<svg width="329" height="267" viewBox="0 0 329 267" fill="none" xmlns="http://www.w3.org/2000/svg">
<path d="M130.753 116.024L130.238 114.122L142.38 82.4229L176.454 58.5337L176.367 59.2513L143.305 83.0862L130.753 116.024Z" fill="url(#paint0_linear_29_18420)"/>
<path d="M130.711 114.282L142.858 82.7765L38.2922 0.0373965L130.711 114.282Z" fill="url(#paint1_linear_29_18420)"/>
<path opacity="0.64" d="M130.711 114.282L142.858 82.7765L38.2922 0.0373965L130.711 114.282Z" fill="url(#paint2_linear_29_18420)"/>
<path d="M130.753 116.024L123.605 88.9727L38.2923 0.0373856L130.753 116.024Z" fill="url(#paint3_linear_29_18420)"/>
<path d="M123.605 88.9728C124.351 87.1364 38.2988 8.53489e-05 38.2988 8.53489e-05L74.2344 114.081L123.605 88.9728Z" fill="#C67702"/>
<path d="M74.2345 114.081L74.3579 112.714L123.488 88.7595L130.981 114.946L130.753 116.024L123.261 89.8381L74.2345 114.081Z" fill="url(#paint4_linear_29_18420)"/>
<path d="M123.605 88.9728C124.351 87.1364 38.2988 8.53489e-05 38.2988 8.53489e-05L74.2904 113.32L123.605 88.9728Z" fill="url(#paint5_linear_29_18420)"/>
<path d="M142.858 82.7766L38.2923 0.0375267L176.454 58.5338L142.858 82.7766Z" fill="url(#paint6_linear_29_18420)"/>
<g style="mix-blend-mode:screen">
<path d="M103.23 49.7723C121.54 63.7359 137.703 78.2879 137.457 78.5919C137.21 78.896 120.543 65.0269 102.377 50.8959C84.6466 37.1494 69.4825 25.0475 69.7286 24.7435C69.9746 24.4394 84.9572 35.8153 103.23 49.7723Z" fill="url(#paint7_radial_29_18420)"/>
</g>
<g style="mix-blend-mode:screen">
<path d="M160.054 68.9314C169.5 61.9064 175.882 58.2793 176.135 58.5936C176.351 58.9014 170.34 63.0562 160.894 70.0812C151.449 77.1062 143.634 82.5267 143.418 82.219C143.165 81.9046 150.609 75.9564 160.054 68.9314Z" fill="url(#paint8_radial_29_18420)"/>
</g>
<g style="mix-blend-mode:screen">
<path d="M100.674 98.9991C111.253 93.8694 120.43 89.9214 120.596 90.2975C120.768 90.6361 111.88 95.1361 101.294 100.303C90.7144 105.433 82.458 109.85 82.2924 109.474C82.1267 109.098 90.0939 104.129 100.674 98.9991Z" fill="url(#paint9_radial_29_18420)"/>
</g>
<path d="M289.359 266.067C289.909 266.164 290.462 265.95 290.809 265.441C291.232 264.791 291.081 263.885 290.383 263.453C287.661 261.631 284.667 259.296 281.494 256.516C280.914 256 279.978 256.044 279.464 256.626C278.95 257.209 278.992 258.148 279.572 258.663C282.828 261.561 285.904 264.014 288.776 265.862C288.959 265.997 289.159 266.032 289.359 266.067ZM263.994 242.226C259.267 236.535 254.77 230.418 250.585 223.994C250.132 223.346 250.34 222.451 250.986 221.995C251.633 221.539 252.525 221.746 252.978 222.395C257.081 228.701 261.546 234.708 266.181 240.332C266.693 240.939 266.585 241.851 265.979 242.366C265.618 242.665 265.191 242.746 264.791 242.676C264.532 242.682 264.2 242.52 263.994 242.226ZM239.267 204.421C239.235 204.312 239.193 204.253 239.111 204.135C237.652 203.931 236.142 203.719 234.692 203.465C229.14 202.494 223.408 201.077 217.856 199.226C217.123 198.995 216.705 198.145 216.937 197.41C217.168 196.674 218.015 196.253 218.748 196.485C224.159 198.259 229.632 199.682 235.084 200.636C235.934 200.785 236.734 200.925 237.593 201.024C234.806 195.154 232.436 189.255 230.498 183.535C230.221 182.762 230.671 181.961 231.382 181.723C232.144 181.494 232.95 181.894 233.186 182.608C235.277 188.924 237.959 195.396 241.159 201.854C241.333 202.04 241.489 202.326 241.545 202.595C241.619 202.763 241.734 202.99 241.808 203.158C242.144 203.889 241.894 204.725 241.156 205.114C240.871 205.271 240.553 205.319 240.253 205.266C239.862 205.146 239.497 204.875 239.267 204.421ZM261.085 203.167C260.966 202.37 261.557 201.646 262.342 201.576C268.819 200.795 274.66 199.23 279.648 196.946C280.821 196.427 282.012 195.807 283.103 195.17C283.791 194.773 284.673 195.031 285.068 195.721C285.463 196.411 285.205 197.297 284.517 197.694C283.317 198.364 282.076 198.975 280.835 199.585C275.572 201.976 269.454 203.648 262.709 204.486C262.551 204.51 262.451 204.493 262.301 204.467C261.659 204.303 261.179 203.805 261.085 203.167ZM197.112 190.216C190.573 186.64 184.189 182.47 178.202 177.8C177.563 177.326 177.462 176.429 177.935 175.787C178.409 175.146 179.303 175.043 179.941 175.517C185.837 180.119 192.03 184.204 198.487 187.662C199.193 188.044 199.453 188.918 199.071 189.627C198.766 190.195 198.154 190.45 197.554 190.345C197.404 190.318 197.254 190.292 197.112 190.216ZM161.504 162.46C156.425 157.018 151.684 151.118 147.322 144.818C146.869 144.17 147.027 143.266 147.674 142.81C148.32 142.354 149.221 142.511 149.674 143.16C153.954 149.342 158.662 155.133 163.609 160.448C164.13 161.005 164.122 161.935 163.557 162.509C163.196 162.808 162.76 162.939 162.31 162.86C162.001 162.858 161.719 162.705 161.504 162.46ZM299.036 182.175C298.388 181.752 298.179 180.887 298.611 180.187C302.31 174.366 304.907 167.472 306.351 159.808C306.492 159.005 307.248 158.516 308.048 158.656C308.848 158.796 309.334 159.554 309.193 160.357C307.679 168.423 304.929 175.6 301.068 181.755C300.722 182.263 300.16 182.527 299.61 182.431C299.419 182.346 299.218 182.311 299.036 182.175ZM225.247 161.401C224.172 153.399 224.122 145.732 225.061 138.601C225.151 137.789 225.865 137.241 226.666 137.381C227.434 137.412 228.02 138.187 227.879 138.99C226.984 145.871 227.02 153.328 228.097 161.02C228.215 161.817 227.675 162.55 226.881 162.67C226.722 162.694 226.572 162.667 226.422 162.641C225.821 162.536 225.342 162.038 225.247 161.401ZM307.369 137.788C306.733 130.226 305.044 122.789 302.58 116.252C302.294 115.53 302.652 114.661 303.422 114.382C304.143 114.094 305.008 114.452 305.285 115.225C307.865 121.989 309.551 129.735 310.251 137.516C310.32 138.304 309.729 139.029 308.944 139.098C308.835 139.131 308.685 139.105 308.585 139.087C307.935 138.974 307.413 138.417 307.369 137.788ZM232.454 118.731C231.748 118.348 231.488 117.475 231.87 116.766C235.73 109.731 240.906 104.013 247.271 99.7456C247.918 99.2896 248.809 99.4973 249.263 100.146C249.716 100.794 249.508 101.689 248.861 102.145C242.908 106.123 238.044 111.533 234.413 118.142C234.108 118.71 233.496 118.965 232.896 118.86C232.746 118.833 232.596 118.807 232.454 118.731ZM289.884 99.5428C284.095 96.098 276.687 94.5432 269.159 95.1408C268.374 95.2103 267.653 94.6185 267.634 93.8391C267.566 93.051 268.157 92.3264 268.933 92.3071C277.087 91.6638 285.028 93.4154 291.341 97.1071C292.048 97.4894 292.249 98.4041 291.875 99.0633C291.579 99.5806 290.967 99.8358 290.367 99.7308C290.217 99.7045 290.076 99.6281 289.884 99.5428ZM135.636 125.284C133.904 121.928 132.207 118.371 130.618 114.782C130.282 114.05 130.64 113.181 131.361 112.894C132.09 112.555 132.955 112.914 133.241 113.636C134.788 117.167 136.453 120.615 138.186 123.971C138.531 124.652 138.272 125.538 137.584 125.935C137.299 126.092 136.982 126.14 136.681 126.088C136.231 126.009 135.816 125.729 135.636 125.284Z" fill="white"/>
<defs>
<linearGradient id="paint0_linear_29_18420" x1="133.163" y1="85.2126" x2="173.31" y2="89.2984" gradientUnits="userSpaceOnUse">
<stop stop-color="#FCDD4E"/>
<stop offset="0.055515" stop-color="#FCDC4E"/>
<stop offset="0.206" stop-color="#BB5902"/>
<stop offset="0.3769" stop-color="#B64B02"/>
<stop offset="0.5839" stop-color="#B34302"/>
<stop offset="0.9266" stop-color="#B24002"/>
</linearGradient>
<linearGradient id="paint1_linear_29_18420" x1="144.828" y1="63.2897" x2="33.0042" y2="51.9091" gradientUnits="userSpaceOnUse">
<stop offset="0.0314685" stop-color="#FFEB5C"/>
<stop offset="0.8462" stop-color="#DC750B"/>
<stop offset="1" stop-color="#C67702"/>
</linearGradient>
<linearGradient id="paint2_linear_29_18420" x1="118.277" y1="31.5312" x2="77.7562" y2="62.2815" gradientUnits="userSpaceOnUse">
<stop offset="0.4545" stop-color="white"/>
<stop offset="0.958" stop-color="#C67702"/>
</linearGradient>
<linearGradient id="paint3_linear_29_18420" x1="102.349" y1="44.4985" x2="78.732" y2="62.4248" gradientUnits="userSpaceOnUse">
<stop offset="0.5" stop-color="#B24002"/>
<stop offset="0.8281" stop-color="#FCDE4E"/>
</linearGradient>
<linearGradient id="paint4_linear_29_18420" x1="76.9304" y1="95.0825" x2="131.368" y2="110.802" gradientUnits="userSpaceOnUse">
<stop stop-color="#BC7718"/>
<stop offset="1" stop-color="#C67702"/>
</linearGradient>
<linearGradient id="paint5_linear_29_18420" x1="126.178" y1="63.7903" x2="32.7627" y2="54.2833" gradientUnits="userSpaceOnUse">
<stop stop-color="#FFEA4D"/>
<stop offset="1" stop-color="#F6C250"/>
</linearGradient>
<linearGradient id="paint6_linear_29_18420" x1="114.363" y1="9.77372" x2="91.4579" y2="73.6238" gradientUnits="userSpaceOnUse">
<stop stop-color="#FFEA4D"/>
<stop offset="1" stop-color="#EFB723"/>
</linearGradient>
<radialGradient id="paint7_radial_29_18420" cx="0" cy="0" r="1" gradientUnits="userSpaceOnUse" gradientTransform="translate(103.711 51.5324) rotate(-52.5788) scale(0.942196 55.6729)">
<stop stop-color="#FFA54A"/>
<stop offset="0.092858" stop-color="#DB8E40"/>
<stop offset="0.277" stop-color="#99632D"/>
<stop offset="0.4523" stop-color="#63401D"/>
<stop offset="0.6139" stop-color="#382410"/>
<stop offset="0.7589" stop-color="#191007"/>
<stop offset="0.8819" stop-color="#070402"/>
<stop offset="0.9685"/>
</radialGradient>
<radialGradient id="paint8_radial_29_18420" cx="0" cy="0" r="1" gradientUnits="userSpaceOnUse" gradientTransform="translate(159.6 70.201) rotate(-126.788) scale(0.712877 21.4426)">
<stop stop-color="#FFA54A"/>
<stop offset="0.092858" stop-color="#DB8E40"/>
<stop offset="0.277" stop-color="#99632D"/>
<stop offset="0.4523" stop-color="#63401D"/>
<stop offset="0.6139" stop-color="#382410"/>
<stop offset="0.7589" stop-color="#191007"/>
<stop offset="0.8819" stop-color="#070402"/>
<stop offset="0.9685"/>
</radialGradient>
<radialGradient id="paint9_radial_29_18420" cx="0" cy="0" r="1" gradientUnits="userSpaceOnUse" gradientTransform="translate(101.307 99.5544) rotate(-116.02) scale(0.750137 22.5891)">
<stop stop-color="#FFA54A"/>
<stop offset="0.092858" stop-color="#DB8E40"/>
<stop offset="0.277" stop-color="#99632D"/>
<stop offset="0.4523" stop-color="#63401D"/>
<stop offset="0.6139" stop-color="#382410"/>
<stop offset="0.7589" stop-color="#191007"/>
<stop offset="0.8819" stop-color="#070402"/>
<stop offset="0.9685"/>
</radialGradient>
</defs>
</svg>
