<svg width="315" height="281" viewBox="0 0 315 281" fill="none" xmlns="http://www.w3.org/2000/svg">
<path d="M194.79 153.704L196.11 152.731L204.601 125.812L194.772 92.633L194.457 93.1452L203.655 125.765L194.79 153.704Z" fill="url(#paint0_linear_29_18433)"/>
<path d="M195.719 152.591L204.106 125.795L314.985 126.011L195.719 152.591Z" fill="url(#paint1_linear_29_18433)"/>
<path opacity="0.64" d="M195.719 152.591L204.106 125.795L314.985 126.011L195.719 152.591Z" fill="url(#paint2_linear_29_18433)"/>
<path d="M194.79 153.704L213.437 139.788L314.985 126.011L194.79 153.704Z" fill="url(#paint3_linear_29_18433)"/>
<path d="M213.437 139.788C213.901 138.207 315 125.983 315 125.983L232.594 181.673L213.437 139.788Z" fill="#C67702"/>
<path d="M232.594 181.673L233.221 180.719L213.623 139.71L195.2 152.884L194.79 153.704L213.213 140.529L232.594 181.673Z" fill="url(#paint4_linear_29_18433)"/>
<path d="M213.437 139.788C213.901 138.207 315 125.983 315 125.983L232.952 181.148L213.437 139.788Z" fill="url(#paint5_linear_29_18433)"/>
<path d="M204.106 125.795L314.985 126.011L194.772 92.633L204.106 125.795Z" fill="url(#paint6_linear_29_18433)"/>
<g style="mix-blend-mode:screen">
<path d="M246.979 124.804C227.835 124.425 209.785 125.539 209.788 125.864C209.791 126.19 227.817 125.781 246.953 125.976C265.608 126.197 281.741 126.162 281.738 125.836C281.735 125.511 266.096 125.168 246.979 124.804Z" fill="url(#paint7_radial_29_18433)"/>
</g>
<g style="mix-blend-mode:screen">
<path d="M200.071 107.886C197.555 98.4263 195.276 92.7636 194.948 92.837C194.648 92.9256 196.413 98.7403 198.93 108.2C201.446 117.659 203.73 125.231 204.03 125.142C204.358 125.069 202.588 117.345 200.071 107.886Z" fill="url(#paint8_radial_29_18433)"/>
</g>
<g style="mix-blend-mode:screen">
<path d="M223.181 158.177C218.946 149.365 215.013 142.048 214.711 142.207C214.423 142.338 217.883 149.866 222.103 158.705C226.338 167.518 229.428 174.665 229.731 174.505C230.033 174.346 227.416 166.989 223.181 158.177Z" fill="url(#paint9_radial_29_18433)"/>
</g>
<path d="M13.0506 134.42C12.6423 134.116 12.4326 133.622 12.5431 133.087C12.6972 132.415 13.3775 131.968 14.0959 132.167C16.9859 132.862 20.3781 133.426 24.1712 133.84C24.8691 133.911 25.4297 134.554 25.3767 135.244C25.3237 135.935 24.6907 136.474 23.9928 136.403C20.0716 136.006 16.5514 135.458 13.5499 134.68C13.3476 134.642 13.1991 134.531 13.0506 134.42ZM44.4157 136.75C51.0665 136.431 57.8482 135.704 64.6327 134.586C65.3371 134.493 65.7845 133.816 65.6723 133.114C65.56 132.413 64.8649 131.95 64.1605 132.043C57.504 133.144 50.8133 133.827 44.2637 134.166C43.549 134.194 43.0274 134.816 43.0756 135.526C43.1099 135.945 43.3261 136.275 43.6231 136.496C43.7818 136.671 44.0955 136.792 44.4157 136.75ZM84.4016 130.233C84.4925 130.188 84.5566 130.18 84.6847 130.163C85.7343 131.002 86.821 131.869 87.8976 132.672C92.0181 135.745 96.5396 138.668 101.229 141.211C101.84 141.554 102.652 141.317 102.981 140.72C103.311 140.123 103.05 139.311 102.439 138.968C97.8883 136.472 93.5255 133.724 89.4792 130.706C88.8481 130.235 88.2542 129.792 87.65 129.286C93.1965 127.581 98.4998 125.583 103.415 123.407C104.089 123.123 104.324 122.344 104.03 121.731C103.698 121.091 102.933 120.801 102.323 121.076C96.9259 123.51 91.0564 125.648 84.8696 127.437C84.6403 127.434 84.3573 127.504 84.1484 127.629C83.9934 127.682 83.7744 127.743 83.6194 127.796C82.9354 128.016 82.552 128.685 82.7654 129.406C82.8433 129.689 83.0122 129.927 83.235 130.093C83.5589 130.278 83.9635 130.355 84.4016 130.233ZM71.4855 115.095C72.0748 114.692 72.1714 113.866 71.7223 113.306C68.1522 108.565 65.4889 103.771 63.8271 99.1049C63.4244 98.0182 63.0755 96.8593 62.8009 95.7558C62.6246 95.0626 61.9025 94.6365 61.2083 94.7927C60.5141 94.9489 60.1038 95.6539 60.2801 96.3471C60.6021 97.542 60.9881 98.7286 61.374 99.9152C63.1408 104.828 65.9089 109.869 69.6107 114.82C69.6952 114.94 69.7694 114.995 69.8808 115.078C70.3903 115.402 71.014 115.418 71.4855 115.095ZM120.102 149.445C126.527 151.598 133.238 153.289 140.023 154.417C140.731 154.552 141.374 154.077 141.491 153.378C141.608 152.679 141.112 152.028 140.403 151.893C133.72 150.784 127.185 149.167 120.888 146.998C120.196 146.763 119.469 147.119 119.25 147.799C119.076 148.343 119.296 148.9 119.741 149.232C119.853 149.315 119.964 149.398 120.102 149.445ZM160.441 156.165C167.153 156.229 173.948 155.793 180.764 154.866C181.468 154.773 181.952 154.124 181.84 153.422C181.728 152.721 181.06 152.222 180.355 152.315C173.668 153.225 166.964 153.616 160.417 153.564C159.729 153.556 159.133 154.123 159.117 154.841C159.152 155.26 159.341 155.626 159.675 155.875C159.871 156.077 160.148 156.171 160.441 156.165ZM61.1735 77.411C61.8547 77.5821 62.5452 77.1985 62.7263 76.491C64.1607 70.5399 66.9807 64.6674 71.0249 59.0901C71.4556 58.5126 71.296 57.7196 70.702 57.2766C70.1081 56.8336 69.3127 56.9706 68.882 57.548C64.6225 63.4141 61.7152 69.5585 60.1666 75.8176C60.0561 76.353 60.2389 76.8825 60.6473 77.1871C60.8227 77.2617 60.9712 77.3725 61.1735 77.411ZM121.022 113.51C126.869 109.39 131.855 104.796 135.873 99.8729C136.341 99.3231 136.245 98.5217 135.651 98.0787C135.148 97.5912 134.278 97.6728 133.848 98.2503C129.964 102.993 125.123 107.47 119.475 111.402C118.886 111.805 118.752 112.604 119.174 113.199C119.259 113.319 119.37 113.402 119.481 113.485C119.927 113.817 120.551 113.833 121.022 113.51ZM84.6143 45.1297C89.9011 40.9847 95.7688 37.6099 101.544 35.2892C102.191 35.0415 102.527 34.2812 102.222 33.6048C101.955 32.9562 101.179 32.6022 100.505 32.886C94.5114 35.268 88.4451 38.8316 82.9764 43.0656C82.4241 43.4962 82.3275 44.3229 82.7767 44.8825C82.824 44.974 82.9354 45.0571 83.0096 45.1124C83.4922 45.4723 84.1799 45.4798 84.6143 45.1297ZM144.061 83.0074C144.752 83.2423 145.48 82.8863 145.698 82.2065C147.816 75.4169 148.254 68.5546 147.007 61.7833C146.895 61.0818 146.2 60.6195 145.496 60.712C144.791 60.8044 144.344 61.4817 144.456 62.1833C145.631 68.5082 145.196 74.9794 143.209 81.3611C143.035 81.9049 143.254 82.4621 143.7 82.7944C143.811 82.8774 143.923 82.9605 144.061 83.0074ZM120.329 33.5727C126.197 35.3096 131.863 39.2544 136.212 44.5767C136.661 45.1363 137.498 45.2545 138.013 44.7962C138.565 44.3656 138.662 43.5389 138.185 43.0154C133.471 37.2526 127.343 33.0754 120.986 31.1423C120.294 30.9074 119.577 31.3272 119.386 31.9709C119.238 32.4786 119.458 33.0358 119.904 33.3681C120.015 33.4511 120.153 33.4981 120.329 33.5727ZM200.738 150.779C203.997 149.896 207.363 148.868 210.682 147.748C211.366 147.528 211.702 146.768 211.435 146.119C211.195 145.435 210.419 145.081 209.772 145.328C206.517 146.439 203.242 147.423 199.983 148.306C199.326 148.49 198.916 149.195 199.092 149.888C199.17 150.171 199.339 150.409 199.562 150.575C199.896 150.825 200.338 150.929 200.738 150.779Z" fill="white"/>
<defs>
<linearGradient id="paint0_linear_29_18433" x1="209.159" y1="132.396" x2="180.906" y2="114.29" gradientUnits="userSpaceOnUse">
<stop stop-color="#FCDD4E"/>
<stop offset="0.055515" stop-color="#FCDC4E"/>
<stop offset="0.206" stop-color="#BB5902"/>
<stop offset="0.3769" stop-color="#B64B02"/>
<stop offset="0.5839" stop-color="#B34302"/>
<stop offset="0.9266" stop-color="#B24002"/>
</linearGradient>
<linearGradient id="paint1_linear_29_18433" x1="212.903" y1="112.088" x2="291.597" y2="162.519" gradientUnits="userSpaceOnUse">
<stop offset="0.0314685" stop-color="#FFEB5C"/>
<stop offset="0.8462" stop-color="#DC750B"/>
<stop offset="1" stop-color="#C67702"/>
</linearGradient>
<linearGradient id="paint2_linear_29_18433" x1="246.617" y1="105.144" x2="257.095" y2="146.125" gradientUnits="userSpaceOnUse">
<stop offset="0.4545" stop-color="white"/>
<stop offset="0.958" stop-color="#C67702"/>
</linearGradient>
<linearGradient id="paint3_linear_29_18433" x1="250.281" y1="121.826" x2="256.385" y2="145.713" gradientUnits="userSpaceOnUse">
<stop offset="0.5" stop-color="#B24002"/>
<stop offset="0.8281" stop-color="#FCDE4E"/>
</linearGradient>
<linearGradient id="paint4_linear_29_18433" x1="240.666" y1="167.908" x2="197.091" y2="149.985" gradientUnits="userSpaceOnUse">
<stop stop-color="#BC7718"/>
<stop offset="1" stop-color="#C67702"/>
</linearGradient>
<linearGradient id="paint5_linear_29_18433" x1="224.787" y1="122.061" x2="290.527" y2="164.19" gradientUnits="userSpaceOnUse">
<stop stop-color="#FFEA4D"/>
<stop offset="1" stop-color="#F6C250"/>
</linearGradient>
<linearGradient id="paint6_linear_29_18433" x1="260.42" y1="93.0024" x2="242.307" y2="146.422" gradientUnits="userSpaceOnUse">
<stop stop-color="#FFEA4D"/>
<stop offset="1" stop-color="#EFB723"/>
</linearGradient>
<radialGradient id="paint7_radial_29_18433" cx="0" cy="0" r="1" gradientUnits="userSpaceOnUse" gradientTransform="translate(245.756 125.701) rotate(-88.9564) scale(0.783479 46.2946)">
<stop stop-color="#FFA54A"/>
<stop offset="0.092858" stop-color="#DB8E40"/>
<stop offset="0.277" stop-color="#99632D"/>
<stop offset="0.4523" stop-color="#63401D"/>
<stop offset="0.6139" stop-color="#382410"/>
<stop offset="0.7589" stop-color="#191007"/>
<stop offset="0.8819" stop-color="#070402"/>
<stop offset="0.9685"/>
</radialGradient>
<radialGradient id="paint8_radial_29_18433" cx="0" cy="0" r="1" gradientUnits="userSpaceOnUse" gradientTransform="translate(199.71 108.947) rotate(-14.7469) scale(0.59279 17.8305)">
<stop stop-color="#FFA54A"/>
<stop offset="0.092858" stop-color="#DB8E40"/>
<stop offset="0.277" stop-color="#99632D"/>
<stop offset="0.4523" stop-color="#63401D"/>
<stop offset="0.6139" stop-color="#382410"/>
<stop offset="0.7589" stop-color="#191007"/>
<stop offset="0.8819" stop-color="#070402"/>
<stop offset="0.9685"/>
</radialGradient>
<radialGradient id="paint9_radial_29_18433" cx="0" cy="0" r="1" gradientUnits="userSpaceOnUse" gradientTransform="translate(222.482 158.212) rotate(-25.5148) scale(0.623773 18.7839)">
<stop stop-color="#FFA54A"/>
<stop offset="0.092858" stop-color="#DB8E40"/>
<stop offset="0.277" stop-color="#99632D"/>
<stop offset="0.4523" stop-color="#63401D"/>
<stop offset="0.6139" stop-color="#382410"/>
<stop offset="0.7589" stop-color="#191007"/>
<stop offset="0.8819" stop-color="#070402"/>
<stop offset="0.9685"/>
</radialGradient>
</defs>
</svg>
