<svg xmlns="http://www.w3.org/2000/svg" viewBox="0 0 69.57 62.77"><defs><style>.cls-1{fill:#f6c250;}</style></defs><g id="Слой_2" data-name="Слой 2"><g id="Слой_1-2" data-name="Слой 1"><path class="cls-1" d="M0,41.17Q0,26.53,4.7,15.48,9.57,4.42,19.46,0,23.2,3.92,26,6.46a41.6,41.6,0,0,0,6.32,4.26Q24,13.94,20.11,18.37a22.29,22.29,0,0,0-4.87,10.38H31.62v34H.16Zm37.3,0q0-14.64,4.7-25.69Q46.88,4.42,56.76,0q3.74,3.92,6.49,6.46a41.6,41.6,0,0,0,6.32,4.26q-8.26,3.22-12.16,7.65a22.29,22.29,0,0,0-4.87,10.38H67.3v34H37.46Z"/></g></g></svg>