<svg width="159" height="159" viewBox="0 0 159 159" fill="none" xmlns="http://www.w3.org/2000/svg">
<circle cx="79.5" cy="79.5" r="79.5" fill="url(#paint0_radial_29_18033)"/>
<path d="M121.021 47.2441C121.021 53.1621 119.791 58.2891 117.33 62.625C114.869 66.9609 111.529 70.5059 107.311 73.2598C103.15 76.0137 98.4629 78.0352 93.248 79.3242V79.8516C103.561 81.1406 111.383 84.3047 116.715 89.3438C122.105 94.3828 124.801 101.121 124.801 109.559C124.801 117.059 122.955 123.768 119.264 129.686C115.631 135.604 110.006 140.262 102.389 143.66C94.7715 147.059 84.957 148.758 72.9453 148.758C65.8555 148.758 59.2344 148.172 53.082 147C46.9883 145.887 41.2461 144.158 35.8555 141.814V118.699C41.3633 121.512 47.1348 123.65 53.1699 125.115C59.2051 126.521 64.8301 127.225 70.0449 127.225C79.7715 127.225 86.5684 125.555 90.4355 122.215C94.3613 118.816 96.3242 114.07 96.3242 107.977C96.3242 104.402 95.416 101.385 93.5996 98.9238C91.7832 96.4629 88.6191 94.5879 84.1074 93.2988C79.6543 92.0098 73.4141 91.3652 65.3867 91.3652H55.6309V70.5352H65.5625C73.4727 70.5352 79.4785 69.8027 83.5801 68.3379C87.7402 66.8145 90.5527 64.7637 92.0176 62.1855C93.541 59.5488 94.3027 56.5605 94.3027 53.2207C94.3027 48.6504 92.8965 45.0762 90.084 42.498C87.2715 39.9199 82.584 38.6309 76.0215 38.6309C71.9199 38.6309 68.1699 39.1582 64.7715 40.2129C61.4316 41.209 58.4141 42.4395 55.7188 43.9043C53.0234 45.3105 50.6504 46.6875 48.5996 48.0352L36.0312 29.3145C41.0703 25.6816 46.959 22.6641 53.6973 20.2617C60.4941 17.8594 68.5801 16.6582 77.9551 16.6582C91.1973 16.6582 101.686 19.3242 109.42 24.6562C117.154 29.9883 121.021 37.5176 121.021 47.2441Z" fill="white"/>
<defs>
<radialGradient id="paint0_radial_29_18033" cx="0" cy="0" r="1" gradientUnits="userSpaceOnUse" gradientTransform="translate(79.5 79.5) rotate(90) scale(79.5)">
<stop stop-color="#F6C250"/>
<stop offset="1" stop-color="#F6C250" stop-opacity="0"/>
</radialGradient>
</defs>
</svg>
