<svg width="159" height="159" viewBox="0 0 159 159" fill="none" xmlns="http://www.w3.org/2000/svg">
<circle cx="79.5" cy="79.5" r="79.5" fill="url(#paint0_radial_29_18039)"/>
<path d="M124.031 142H34.207V123.104L66.4629 90.4961C72.9668 83.8164 78.1816 78.25 82.1074 73.7969C86.0918 69.2852 88.9629 65.1836 90.7207 61.4922C92.5371 57.8008 93.4453 53.8457 93.4453 49.627C93.4453 44.5293 92.0098 40.7207 89.1387 38.2012C86.3262 35.623 82.5469 34.334 77.8008 34.334C72.8203 34.334 67.9863 35.4766 63.2988 37.7617C58.6113 40.0469 53.7188 43.2988 48.6211 47.5176L33.8555 30.0273C37.5469 26.8633 41.4434 23.875 45.5449 21.0625C49.7051 18.25 54.5098 15.9941 59.959 14.2949C65.4668 12.5371 72.0586 11.6582 79.7344 11.6582C88.1719 11.6582 95.4082 13.1816 101.443 16.2285C107.537 19.2754 112.225 23.4355 115.506 28.709C118.787 33.9238 120.428 39.8418 120.428 46.4629C120.428 53.5527 119.021 60.0273 116.209 65.8867C113.396 71.7461 109.295 77.5469 103.904 83.2891C98.5723 89.0312 92.127 95.3887 84.5684 102.361L68.0449 117.918V119.148H124.031V142Z" fill="white"/>
<defs>
<radialGradient id="paint0_radial_29_18039" cx="0" cy="0" r="1" gradientUnits="userSpaceOnUse" gradientTransform="translate(79.5 79.5) rotate(90) scale(79.5)">
<stop stop-color="#F6C250"/>
<stop offset="1" stop-color="#F6C250" stop-opacity="0"/>
</radialGradient>
</defs>
</svg>
