<svg width="148" height="175" viewBox="0 0 148 175" fill="none" xmlns="http://www.w3.org/2000/svg">
<path d="M82.5812 98.563L78.34 95.1437L72.8222 97.9899L69.0378 99.9222L64.9686 93.9486L70.4233 90.076L89.6796 76.5278L137.979 42.605L138.171 43.735L138.593 47.2353L90.5908 98.1497C88.414 100.403 84.907 100.544 82.5812 98.563Z" fill="#848484"/>
<path d="M72.7732 97.9717L68.9888 99.904L64.9197 93.9304L70.3743 90.0578C70.185 93.1071 71.5841 96.08 72.7732 97.9717Z" fill="url(#paint0_linear_29_18051)"/>
<path d="M11.124 114.049C10.9044 120.319 14.07 126.624 18.3859 130.74C19.5368 131.837 20.7913 132.806 22.0881 133.512C22.137 133.53 22.1859 133.549 22.2166 133.616C22.5897 133.811 22.9628 134.005 23.287 134.182C29.5311 137.011 35.7761 134.157 39.387 131.046C40.2715 130.317 42.455 128.345 45.3215 125.736C47.078 124.162 49.0907 122.35 51.1581 120.39C58.3244 113.869 66.6371 106.214 70.5954 102.62C70.9187 102.35 71.193 102.062 71.4309 101.873C72.2665 101.125 72.4595 99.8602 71.9321 98.8837L66.6462 89.448C66.0084 88.3189 64.6023 87.9063 63.4425 88.4768C63.2228 88.6178 62.9724 88.6916 62.7528 88.8326C62.3499 89.0167 61.947 89.2009 61.5441 89.385C52.1364 93.3999 43.4154 92.4337 35.2235 93.3361C32.2547 93.6782 29.3596 94.2706 26.5269 95.4433C19.5367 98.3536 15.469 102.242 13.2469 106.261C11.8528 108.805 11.2289 111.525 11.124 114.049ZM22.1659 105.35C24.8434 102.95 29.3971 100.747 33.8748 100.243C36.8926 99.9195 39.8997 100.372 42.3838 102.078C43.0936 102.565 43.7362 103.083 44.2445 103.662C48.1019 107.663 46.6269 112.517 45.7268 114.633C44.2251 118.363 40.9776 122.891 35.7043 125.829C32.9761 127.319 30.3448 128.4 27.754 128.326C25.988 128.28 24.2395 127.74 22.5015 126.424C21.504 125.662 20.4999 124.619 19.4891 123.295C14.526 116.431 17.6646 109.356 22.1659 105.35Z" fill="#E26D2D"/>
<path d="M35.7715 125.798C40.9776 122.891 44.2924 118.333 45.7941 114.602C46.6452 112.468 48.1509 107.681 44.2627 103.613C44.9236 104.083 45.664 104.637 46.2155 105.4C48.3043 108.017 49.2427 112.824 44.9954 118.539C41.3027 123.514 34.1662 129.657 27.8211 128.295C30.412 128.369 33.0922 127.307 35.7715 125.798Z" fill="#F6C250"/>
<path d="M22.6359 126.362C17.6943 124.075 14.7725 117.414 15.8686 112.53C17.0857 107.023 23.3568 102.006 28.4073 100.713C30.4409 100.189 32.3593 100.124 33.9238 100.262C29.3972 100.747 24.8924 102.968 22.2148 105.369C17.7136 109.374 14.5261 116.431 19.6723 123.252C20.6342 124.558 21.6384 125.6 22.6359 126.362Z" fill="#F6C250"/>
<path d="M13.2834 106.163C23.6119 95.1925 35.2298 96.4584 42.1401 96.3039C49.6796 96.1055 60.7878 93.0587 63.5454 94.0307C65.6671 94.7658 69.179 100.142 70.6626 102.589C70.9859 102.319 71.2602 102.032 71.4981 101.842C72.3337 101.095 72.5267 99.8295 71.9993 98.853L66.7134 89.4173C66.0756 88.2882 64.6695 87.8756 63.5097 88.4461C63.29 88.5871 63.0397 88.6609 62.82 88.8019C62.4171 88.986 62.0142 89.1701 61.6113 89.3542C52.2037 93.3692 43.4826 92.403 35.2907 93.3054C32.3219 93.6475 29.4268 94.2398 26.5941 95.4126C19.5732 98.2557 15.5056 102.144 13.2834 106.163Z" fill="#F6C250"/>
<path d="M18.3859 130.739C19.5368 131.837 20.7914 132.806 22.0881 133.512C22.1371 133.53 22.186 133.549 22.2167 133.616C22.5898 133.81 22.9629 134.005 23.287 134.182C29.5312 137.01 35.7761 134.157 39.3871 131.046C40.2716 130.317 42.455 128.345 45.3215 125.736C47.0781 124.162 49.0908 122.35 51.1582 120.39C47.5886 122.793 43.3848 125.85 40.9212 128.275C36.8478 132.328 28.0339 136.842 18.3859 130.739Z" fill="#F6C250"/>
<path d="M101.853 68.0834L96.9019 91.5318L93.0548 95.725L98.1 70.5289L101.853 68.0834Z" fill="#6B6B6B"/>
<path d="M79.8126 95.0795L84.6265 97.7094L84.0952 103.918L83.7493 108.135L90.8339 109.606L92.3178 103.083L97.4346 80.0865L110.321 22.491L109.222 22.7498L105.851 23.722L77.17 87.5205C75.8315 90.3644 77.0541 93.6614 79.8126 95.0795Z" fill="#BFBFBF"/>
<path d="M81.3469 86.1802C80.8084 88.8208 82.5184 91.4081 85.1408 91.9955C87.7814 92.534 90.3687 90.824 90.9561 88.2016C91.4946 85.561 89.7846 82.9737 87.1622 82.3863C84.4726 81.8296 81.9036 83.4906 81.3469 86.1802Z" fill="url(#paint1_linear_29_18051)"/>
<path d="M92.6091 77.7866L97.4404 79.9216L110.309 22.3749L109.173 22.7316L92.6091 77.7866Z" fill="url(#paint2_linear_29_18051)"/>
<path d="M84.0465 103.9L83.7006 108.117L90.7852 109.587L92.269 103.065C89.5773 104.457 86.2469 104.275 84.0465 103.9Z" fill="url(#paint3_linear_29_18051)"/>
<path d="M69.4897 163.436C69.7774 163.71 70.0652 163.985 70.42 164.228C70.469 164.247 70.4996 164.314 70.5485 164.332C76.0807 168.622 85.5183 170.357 92.7704 167.043C98.5453 164.404 104.081 158.222 104.159 145.604C104.184 142.549 103.61 139.605 102.785 136.735C100.484 128.857 96.2281 121.143 96.3724 110.89C96.3715 110.444 96.4196 110.016 96.4187 109.57C96.412 109.289 96.4542 109.026 96.4782 108.812C96.5734 107.51 95.6057 106.37 94.3223 106.226L83.5965 104.958C82.4781 104.82 81.3979 105.476 81.0639 106.521C79.0344 112.116 72.6781 129.469 68.9961 139.797C67.6959 143.435 66.7055 146.241 66.3534 147.336C64.7738 151.873 64.5005 158.735 69.4897 163.436ZM79.0197 135.176C80.6784 133.565 84.5579 130.331 89.7556 132.38C90.4404 132.635 91.1867 133.025 91.8965 133.512C94.3988 135.169 95.9927 137.769 96.8479 140.706C98.1154 145.079 97.8077 150.089 96.5986 153.483C94.6305 159.212 89.3137 164.807 81.0302 162.667C79.459 162.249 78.0893 161.738 76.9882 161.105C75.1102 160.015 73.9037 158.618 73.2344 156.976C72.2093 154.644 72.1608 151.785 72.5334 148.692C73.1875 142.752 76.1291 137.998 79.0197 135.176Z" fill="#E26D2D"/>
<path d="M69.4897 163.436C68.0292 160.329 66.0013 154.559 67.8592 148.677C70.5913 140.001 78.7299 115.624 85.6609 110.63C89.1691 108.094 96.4005 109.619 96.4005 109.619C96.3938 109.338 96.436 109.075 96.4601 108.861C96.5552 107.559 95.5875 106.419 94.3041 106.275L83.5783 105.007C82.4599 104.869 81.3797 105.525 81.0457 106.57C79.0162 112.165 72.6599 129.518 68.9779 139.846C67.6777 143.484 66.6874 146.29 66.3352 147.385C64.7739 151.873 64.5005 158.735 69.4897 163.436Z" fill="url(#paint4_linear_29_18051)"/>
<path d="M72.4662 148.723C73.1874 142.752 76.129 137.998 78.9524 135.207C80.6111 133.596 84.4907 130.362 89.6884 132.411C89.0276 131.942 88.2324 131.534 87.3154 131.304C84.0935 130.381 79.2867 131.32 75.6207 137.419C72.4114 142.741 69.521 151.692 73.2161 157.025C72.1604 154.626 72.0936 151.815 72.4662 148.723Z" fill="#F6C250"/>
<path d="M76.9883 161.105C80.9734 164.763 88.2692 164.92 92.3328 162.089C96.9394 158.847 99.258 151.131 98.4472 145.982C98.1559 143.924 97.4924 142.116 96.7809 140.737C98.0483 145.109 97.7407 150.12 96.5316 153.514C94.5634 159.243 89.2466 164.838 80.9631 162.698C79.4409 162.298 78.0894 161.738 76.9883 161.105Z" fill="#F6C250"/>
<path d="M70.5485 164.332C76.0807 168.622 85.5182 170.357 92.7704 167.043C98.5453 164.404 104.081 158.222 104.159 145.604C104.184 142.549 103.61 139.605 102.785 136.735C103.271 141.262 103.209 146.81 102.582 151.033C101.309 159.083 96.5432 165.441 88.8548 167.534C83.0167 169.146 74.4072 165.937 70.5485 164.332Z" fill="#F6C250"/>
<defs>
<linearGradient id="paint0_linear_29_18051" x1="73.1662" y1="92.957" x2="67.8381" y2="96.5862" gradientUnits="userSpaceOnUse">
<stop offset="0.00537634" stop-color="#848484"/>
<stop offset="1" stop-color="#666666"/>
</linearGradient>
<linearGradient id="paint1_linear_29_18051" x1="90.9213" y1="88.1569" x2="81.3289" y2="86.1547" gradientUnits="userSpaceOnUse">
<stop stop-color="#666666"/>
<stop offset="1" stop-color="#949494"/>
</linearGradient>
<linearGradient id="paint2_linear_29_18051" x1="106.932" y1="51.7614" x2="95.1895" y2="49.3998" gradientUnits="userSpaceOnUse">
<stop stop-color="#666666"/>
<stop offset="1" stop-color="#BFBFBF"/>
</linearGradient>
<linearGradient id="paint3_linear_29_18051" x1="88.5522" y1="101.624" x2="87.2349" y2="107.935" gradientUnits="userSpaceOnUse">
<stop offset="0.00537634" stop-color="#BFBFBF"/>
<stop offset="1" stop-color="#949494"/>
</linearGradient>
<linearGradient id="paint4_linear_29_18051" x1="80.7858" y1="134.227" x2="60.8651" y2="125.032" gradientUnits="userSpaceOnUse">
<stop stop-color="#F6C250"/>
<stop offset="0.3083" stop-color="#F6C250"/>
<stop offset="0.7871" stop-color="#F6C250"/>
<stop offset="1" stop-color="#F6C250"/>
</linearGradient>
</defs>
</svg>
