<svg width="415" height="709" viewBox="0 0 415 709" fill="none" xmlns="http://www.w3.org/2000/svg">
<path d="M458.341 192.511L438.71 201.052C438.71 201.052 415.258 139.817 401.393 127.852C390.957 118.853 379.684 116.724 375.118 126.981C373.588 130.34 372.813 135.056 373.03 141.273L339.127 132.518C339.127 132.518 339.676 127.018 342.814 120.31C347.125 111.075 356.279 99.5394 375.553 96.8464C408.83 92.1458 434.834 106.81 458.341 192.511Z" fill="#FFF560"/>
<path d="M375.118 126.981C373.588 130.34 372.813 135.056 373.03 141.273L339.127 132.518C339.127 132.518 339.676 127.018 342.814 120.31L375.118 126.981Z" fill="#FFC649"/>
<path d="M240.983 156.986L215.169 180.67C211.335 172.823 207.161 168.534 203.095 167.017C195.468 164.15 188.155 171.024 183.804 182.145C177.177 199.197 185.262 264.282 185.262 264.282L163.897 265.993C144.36 179.295 160.463 154.119 192.052 142.61C206.495 137.347 217.948 139.902 226.139 144.226C235.882 149.377 240.983 156.986 240.983 156.986Z" fill="#FFEB5C"/>
<path d="M240.983 156.986L215.169 180.67C211.335 172.822 207.161 168.534 203.095 167.017L226.184 144.248C235.882 149.377 240.983 156.986 240.983 156.986Z" fill="#FFCF68"/>
<path d="M310.1 145.188L285.568 150.396C285.568 150.396 283.858 114.543 283.682 106.44C283.508 99.3478 284.877 94.2831 282.773 91.9199C282.469 91.5727 282.121 91.3154 281.671 91.092C278.031 89.2822 255.646 101.219 250.102 106.226C244.782 111.008 243.599 113.951 244.065 116.453C244.066 116.565 244.111 116.7 244.145 116.8C244.779 119.358 261.509 137.399 265.794 150.823L243.707 160.414C243.707 160.414 235.927 140.152 233.175 129.059C230.422 117.966 231.168 101.017 236.926 91.4084C242.684 81.7995 266.045 70.0962 273.526 72.75C281.006 75.4038 293.794 92.1863 301.051 104.874C308.196 117.562 310.1 145.188 310.1 145.188Z" fill="#FBB03B"/>
<path d="M282.739 91.9313C282.436 91.5841 282.087 91.3268 281.638 91.1034C277.997 89.2936 255.613 101.23 250.069 106.237C244.749 111.019 243.566 113.963 244.032 116.464C242.008 114.673 239.588 111.929 237.874 108.162C234.343 100.438 234.838 96.0035 241.992 88.3217C249.146 80.6399 261.47 76.4253 267.065 74.3586C272.661 72.2919 276.716 73.9997 280.781 84.7644C281.82 87.635 282.432 90.0129 282.739 91.9313Z" fill="#DD8D24"/>
<path d="M167.132 228.029C193.403 129.914 345.349 105.232 415.298 147.067C521.535 210.67 640.649 548.677 555.702 582.564C474.848 614.815 326.128 647.098 260.198 659.023C153.03 678.36 135.475 346.112 167.132 228.029Z" fill="url(#paint0_linear_29_17734)"/>
<path d="M534.852 374.371C534.807 374.236 534.728 374.113 534.683 373.978C532.631 369.763 515.599 337.671 493.917 318.709C474.181 301.415 442.244 293.274 411.369 307.576C395.786 314.794 369.379 329.468 335.421 335.595C288.147 344.099 226.531 328.742 208.479 340.983C189.184 354.091 181.036 378.654 181.95 410.02C182.293 422.185 184.018 435.346 187.001 449.244L187.013 449.278C188.051 456.828 189.986 463.479 191.817 469.154C191.907 469.423 191.986 469.658 192.077 469.928C192.032 469.793 191.964 469.591 191.885 469.356L191.873 469.322C189.366 462.19 171.526 410.976 168.357 384.823C164.959 356.65 165.482 300.915 168.201 268.216C170.909 235.484 186.004 201.511 209.323 181.211C232.665 160.866 319.427 125.92 382.831 147.602C446.257 169.24 466.862 217.877 479.063 237.815C491.252 257.719 523.219 337.395 534.852 374.371Z" fill="url(#paint1_linear_29_17734)"/>
<path d="M534.694 374.012C532.642 369.797 515.61 337.705 493.929 318.743C474.192 301.449 442.256 293.307 411.381 307.609C395.797 314.828 369.39 329.501 335.432 335.628C288.158 344.132 226.542 328.775 208.49 341.016C189.195 354.124 181.047 378.688 181.961 410.054C179.916 394.38 178.115 377.314 177.404 361.155C175.145 310.96 180.3 268.57 186.989 249.363C193.679 230.156 208.485 197.441 235.656 182.811C262.826 168.181 295.536 161.237 320.277 158.655C345.029 156.106 379.433 163.232 402.887 177.33C426.342 191.428 449.802 227.276 468.709 254.583C487.559 281.834 514.446 329.335 534.694 374.012Z" fill="url(#paint2_linear_29_17734)"/>
<path d="M534.852 374.371C534.852 374.371 534.841 374.337 534.83 374.304C521.027 335.998 472.878 232.667 452.872 205.654C432.822 178.62 399.546 159.135 380.923 152.287C362.299 145.439 329.725 143.314 304.843 147.704C279.96 152.093 242.13 162.741 222.317 175.536C202.538 188.32 185.172 215.643 177.627 238.656C170.105 261.736 165.429 351.138 174.055 393.092C178.584 415.045 183.456 435.123 186.968 449.256L186.979 449.289C190.173 462.143 192.077 470.152 192.077 470.152C192.066 470.118 191.954 470.119 191.942 470.085C191.016 467.439 171.529 412.323 168.211 384.834C164.813 356.661 165.369 300.915 168.088 268.217C170.796 235.484 185.891 201.511 209.211 181.211C232.552 160.866 319.315 125.92 382.752 147.591C446.178 169.229 466.783 217.866 478.984 237.804C491.252 257.719 523.219 337.396 534.852 374.371Z" fill="#362628"/>
<path d="M268.822 198.402L305.498 324.643L398.122 296.002L359.489 172.851L268.822 198.402Z" fill="url(#paint3_linear_29_17734)"/>
<path d="M270.288 196.636L359.489 172.851L397.796 291.132L397.374 292.996L306.611 321.049L270.288 196.636Z" fill="#B3B3B3"/>
<path d="M271.049 195.894L360.845 171.872L397.796 291.131L307.84 318.577L271.049 195.894Z" fill="#CCCCCC"/>
<path d="M272.736 192.557C272.736 192.557 304.69 295.712 312.028 314.438L400.053 286.593C400.053 286.593 389.719 267.975 378.991 229.46C368.262 190.945 362.309 169.321 362.309 169.321L272.736 192.557Z" fill="#F2F2F2"/>
<path d="M346.669 297.971L392.862 282.793L379.379 242.096C379.39 242.129 389.695 281.835 346.669 297.971Z" fill="url(#paint4_linear_29_17734)"/>
<path d="M314.881 183.604L277.094 193.938L286.295 227.238C286.262 227.249 279.61 194.852 314.881 183.604Z" fill="url(#paint5_linear_29_17734)"/>
<path d="M350.825 172.692C350.814 172.658 350.1 169.865 351.625 169.39C353.218 168.893 354.369 171.539 354.369 171.539L356.811 179.142L358.235 178.701L355.771 171.03C355.161 169.55 353.484 167.231 351.185 167.966C348.886 168.701 348.971 171.517 349.401 173.133L350.825 172.692Z" fill="#79272D"/>
<path d="M342.268 175.191C342.256 175.157 341.61 172.342 343.113 171.912C344.706 171.415 345.8 174.117 345.8 174.117L348.108 181.765L349.532 181.324L347.202 173.608C346.626 172.117 344.982 169.787 342.672 170.488C340.362 171.189 340.413 174.017 340.798 175.61L342.268 175.191Z" fill="#79272D"/>
<path d="M333.71 177.579C333.699 177.546 333.086 174.719 334.623 174.278C336.238 173.847 337.288 176.527 337.288 176.527L339.46 184.221L340.896 183.814L338.701 176.053C338.125 174.561 336.582 172.197 334.215 172.842C331.894 173.51 331.9 176.315 332.252 177.919L333.71 177.579Z" fill="#79272D"/>
<path d="M325.096 179.799C325.085 179.765 324.539 176.916 326.054 176.519C327.669 176.089 328.663 178.825 328.663 178.825L330.701 186.564L332.147 186.191L330.098 178.418C329.556 176.915 328.035 174.506 325.691 175.106C323.347 175.706 323.331 178.557 323.649 180.172L325.096 179.799Z" fill="#79272D"/>
<path d="M316.437 181.884C316.425 181.851 315.925 179.024 317.473 178.616C319.099 178.219 320.06 180.967 320.06 180.967L321.952 188.718L323.41 188.377L321.495 180.559C320.987 179.046 319.5 176.625 317.144 177.191C314.789 177.758 314.694 180.598 315.012 182.213L316.437 181.884Z" fill="#79272D"/>
<path d="M313.123 190.746L311.366 182.95C311.366 182.95 310.473 180.18 308.847 180.577C307.31 180.906 307.754 183.789 307.765 183.823L308.002 184.305L306.544 184.645L306.296 184.129C306.012 182.503 306.151 179.685 308.518 179.152C310.885 178.62 312.338 181.052 312.824 182.61L314.604 190.474L313.123 190.746Z" fill="#79272D"/>
<path d="M304.284 192.63L302.661 184.789C302.661 184.789 301.791 181.974 300.164 182.37C298.628 182.699 299.027 185.56 299.038 185.594L299.344 186.839L297.875 187.145L297.557 185.867C297.307 184.229 297.491 181.434 299.869 180.934C302.214 180.446 303.645 182.923 304.12 184.449L305.754 192.323L304.284 192.63Z" fill="#79272D"/>
<path d="M295.422 194.334L293.945 186.481L293.934 186.335C293.934 186.335 293.074 183.442 291.447 183.726C291.447 183.726 291.447 183.726 291.414 183.737C289.854 183.999 290.243 187.051 290.254 187.085L290.64 189.126L289.171 189.433L288.762 187.436C288.512 185.798 288.775 183.014 291.164 182.548C293.52 182.094 294.917 184.582 295.336 186.164L296.836 194.084L295.422 194.334Z" fill="#79272D"/>
<path d="M287.244 195.733L285.797 195.994L284.454 188.097C284.454 188.097 283.674 185.326 282.036 185.577C280.476 185.839 280.775 188.733 280.786 188.767L281.252 191.493L279.805 191.755L279.328 188.995C279.122 187.379 279.441 184.539 281.819 184.152C284.198 183.765 285.528 186.276 285.935 187.824L287.244 195.733Z" fill="#79272D"/>
<g style="mix-blend-mode:multiply">
<path d="M217.857 241.727C178.488 246.79 152.362 296.074 159.55 351.802C166.737 407.529 204.485 448.575 243.855 443.512C283.258 438.438 309.35 389.165 302.162 333.438C295.008 277.698 257.261 236.653 217.857 241.727Z" fill="url(#paint6_radial_29_17734)"/>
</g>
<path d="M337.252 287.657L340.449 306.538L359.41 304.137L354.867 285.708L337.252 287.657Z" fill="url(#paint7_linear_29_17734)"/>
<path d="M341.587 313.044L368.66 309.604L372.391 326.508L344.33 329.794L341.587 313.044Z" fill="url(#paint8_linear_29_17734)"/>
<path d="M346.432 336.164L358.56 334.598L362.143 350.28L348.433 352.04L346.432 336.164Z" fill="url(#paint9_linear_29_17734)"/>
<path d="M181.951 259.554L214.232 450.73L368.008 431.162L330.903 245.014L181.951 259.554Z" fill="url(#paint10_linear_29_17734)"/>
<path d="M366.057 427.137L216.451 444.743L184.744 258.953L186.835 255.256L190.176 249.266L327.777 237.939L364.455 418.353C363.906 418.949 363.593 419.579 363.393 420.207C362.346 423.667 366.057 427.137 366.057 427.137Z" fill="#E6E6E6"/>
<path d="M364.455 418.353C363.906 418.949 363.593 419.578 363.393 420.207L217.26 440.24L186.767 255.278L190.109 249.288L327.71 237.961L364.455 418.353Z" fill="#B3B3B3"/>
<path d="M187.466 246.769L219.216 436.813L366.317 418.102L329.943 232.906L187.466 246.769Z" fill="url(#paint11_linear_29_17734)"/>
<path d="M219.585 265.931L227.705 317.078L314.97 305.362L305.719 254.97L219.585 265.931Z" fill="url(#paint12_linear_29_17734)"/>
<path d="M228.809 323.596L232.611 346.841L320.696 335.337L316.547 312.732L228.809 323.596Z" fill="url(#paint13_linear_29_17734)"/>
<path d="M212.228 443.204C211.488 443.565 210.634 443.252 210.307 442.501C209.134 439.788 207.313 433.586 212.105 429.018C216.305 425.024 221.199 425.664 224.154 426.993C224.986 427.35 225.269 428.415 224.687 429.135L224.608 429.236C224.217 429.742 223.521 429.901 222.903 429.622C221.218 428.84 217.579 427.816 214.231 431C210.737 434.307 212.129 439.119 213.054 441.316C213.325 442.011 213.057 442.775 212.418 443.102L212.228 443.204Z" fill="black"/>
<path d="M208.318 421.867C207.578 422.228 206.691 421.927 206.352 421.142C205.179 418.429 203.324 412.238 208.229 407.67C212.474 403.698 217.391 404.293 220.446 405.588C221.323 405.967 221.583 407.078 221.001 407.798L220.979 407.843C220.554 408.36 219.858 408.518 219.24 408.239C217.521 407.469 213.804 406.434 210.422 409.629C206.895 412.948 208.275 417.726 209.2 419.923C209.505 420.607 209.215 421.416 208.542 421.754L208.318 421.867Z" fill="black"/>
<path d="M204.621 400.495C203.881 400.856 202.994 400.555 202.655 399.77C201.482 397.057 199.627 390.866 204.532 386.298C208.777 382.327 213.694 382.922 216.749 384.217C217.626 384.596 217.886 385.707 217.304 386.426L217.282 386.471C216.857 386.988 216.161 387.147 215.543 386.868C213.824 386.097 210.107 385.062 206.725 388.257C203.198 391.576 204.578 396.354 205.503 398.552C205.808 399.236 205.518 400.044 204.845 400.383L204.621 400.495Z" fill="black"/>
<path d="M202.45 378.874C201.722 379.268 200.789 378.945 200.451 378.16C199.333 375.391 197.658 369.289 202.025 364.79C205.899 360.831 210.446 361.55 213.21 362.868C214.019 363.27 214.279 364.268 213.731 364.976C213.317 365.527 212.588 365.697 212.004 365.407C210.397 364.636 207.073 363.656 204.027 366.738C200.791 370.034 202.16 374.89 203.041 377.066C203.357 377.783 203.089 378.547 202.45 378.874Z" fill="black"/>
<path d="M198.798 357.525C198.07 357.92 197.137 357.596 196.799 356.811C195.682 354.042 194.006 347.941 198.373 343.441C202.247 339.482 206.794 340.201 209.558 341.519C210.367 341.921 210.627 342.919 210.079 343.628C209.665 344.178 208.936 344.348 208.352 344.058C206.745 343.287 203.421 342.307 200.375 345.39C197.139 348.685 198.509 353.542 199.389 355.717C199.694 356.401 199.426 357.165 198.798 357.525Z" fill="black"/>
<path d="M195.135 336.143C194.407 336.537 193.474 336.214 193.136 335.429C192.018 332.659 190.343 326.558 194.71 322.059C198.584 318.099 203.131 318.818 205.895 320.136C206.704 320.538 206.964 321.537 206.416 322.245C206.002 322.796 205.273 322.966 204.689 322.675C203.082 321.905 199.758 320.925 196.712 324.007C193.476 327.303 194.845 332.159 195.726 334.334C196.042 335.052 195.774 335.816 195.135 336.143Z" fill="black"/>
<path d="M191.45 314.805C190.721 315.2 189.789 314.876 189.45 314.092C188.333 311.322 186.658 305.221 191.024 300.721C194.898 296.762 199.445 297.481 202.209 298.799C203.018 299.201 203.279 300.199 202.73 300.908C202.316 301.459 201.587 301.629 201.003 301.338C199.396 300.567 196.072 299.588 193.027 302.67C189.791 305.965 191.16 310.822 192.04 312.997C192.345 313.681 192.077 314.445 191.45 314.805Z" fill="black"/>
<path d="M187.787 293.423C187.058 293.817 186.126 293.494 185.787 292.709C184.67 289.939 182.995 283.838 187.362 279.339C191.236 275.379 195.783 276.098 198.546 277.416C199.355 277.818 199.616 278.817 199.068 279.525C198.654 280.076 197.924 280.246 197.34 279.955C195.734 279.185 192.409 278.205 189.364 281.287C186.128 284.583 187.497 289.439 188.377 291.614C188.693 292.332 188.426 293.096 187.787 293.423Z" fill="black"/>
<path d="M184.124 272.04C183.395 272.434 182.463 272.111 182.124 271.326C181.007 268.557 179.332 262.455 183.698 257.956C187.572 253.997 192.119 254.716 194.883 256.034C195.692 256.436 195.952 257.434 195.404 258.142C194.99 258.693 194.261 258.863 193.677 258.573C192.07 257.802 188.746 256.822 185.7 259.904C182.465 263.2 183.834 268.056 184.714 270.232C185.03 270.949 184.762 271.713 184.124 272.04Z" fill="black"/>
<path d="M362.21 423.038L311.678 430.09L363.021 424.675C363.055 424.663 362.189 423.981 362.21 423.038Z" fill="#B3B3B3"/>
<g style="mix-blend-mode:multiply">
<path d="M366.088 208.614C360.671 210.321 366.563 244.358 379.27 284.642C391.978 324.925 406.673 356.192 412.09 354.485C417.507 352.778 411.615 318.741 398.907 278.458C386.2 238.174 371.504 206.907 366.088 208.614Z" fill="url(#paint14_radial_29_17734)"/>
</g>
<path d="M387.164 237.813L379.044 240.054C379.044 240.054 378.808 234.892 378.697 230.549C378.633 227.35 378.627 224.544 378.975 224.465C379.524 224.318 379.716 224.665 380.324 225.584C380.808 226.358 381.417 227.501 382.071 228.667C382.195 228.924 382.364 229.205 382.488 229.462C384.629 233.273 387.164 237.813 387.164 237.813Z" fill="url(#paint15_linear_29_17734)"/>
<path d="M382.071 228.666C380.882 229.028 379.481 229.985 378.719 230.503C378.656 227.305 378.661 224.533 378.997 224.42C379.547 224.273 379.738 224.62 380.358 225.573C380.797 226.323 381.417 227.5 382.071 228.666Z" fill="url(#paint16_linear_29_17734)"/>
<path d="M406.003 338.035L379.044 240.053C379.044 240.053 379.276 238.403 379.927 238.222C380.162 238.143 380.421 238.355 380.758 238.579C381.005 238.758 381.297 238.959 381.443 238.948C381.511 238.925 381.589 238.824 381.6 238.746C381.745 238.397 381.8 238.004 381.833 237.656C381.955 237.016 382.043 236.388 382.514 236.229L382.548 236.218C382.963 236.116 383.424 236.598 383.942 237.135C384.189 237.426 384.651 237.908 384.785 237.863C384.942 237.773 385.053 237.211 385.153 236.841C385.264 236.279 385.364 235.909 385.633 235.818C385.734 235.784 385.858 235.818 386.027 235.986C386.544 236.635 387.142 237.857 387.142 237.857L414.09 335.805L406.003 338.035Z" fill="#F9E6B7"/>
<path d="M387.164 237.812L414.123 335.794L411.747 336.967L408.494 337.872L406.003 338.035L379.044 240.053C379.044 240.053 379.4 238.549 379.983 238.39C380.252 238.3 380.792 238.905 381.219 239.061C381.432 239.139 381.646 239.105 381.757 238.768C382.103 237.79 381.954 236.567 382.593 236.353C383.031 236.206 383.796 237.259 384.336 237.752C384.55 237.942 384.741 238.065 384.898 237.975C385.402 237.693 385.352 235.426 385.87 236.076C386.421 236.714 387.164 237.812 387.164 237.812Z" fill="url(#paint17_linear_29_17734)"/>
<path d="M384.415 237.763L411.702 336.944L408.449 337.85L381.264 239.083C381.478 239.161 381.657 239.138 381.802 238.79C382.148 237.813 382.033 236.579 382.638 236.375C383.098 236.183 383.696 237.293 384.415 237.763Z" fill="url(#paint18_linear_29_17734)"/>
<path d="M379.012 231.041C379.012 231.041 379.124 235.946 379.375 237.584C379.353 237.628 379.196 232.814 379.012 231.041Z" fill="#E2C688"/>
<path d="M379.135 230.626C379.135 230.626 379.321 233.746 379.528 235.586C379.528 235.586 379.397 232.41 379.135 230.626Z" fill="#E2C688"/>
<path d="M383.042 231.223C383.042 231.223 384.349 233.442 385.386 235.415C385.386 235.415 383.955 233.163 383.042 231.223Z" fill="#E2C688"/>
<path d="M384.082 234.43L384.927 236.056C384.916 236.022 384.488 235.417 384.082 234.43Z" fill="#E2C688"/>
<path d="M380.946 232.675C380.946 232.675 380.96 233.831 381.548 235.693C381.537 235.659 381.286 233.909 380.946 232.675Z" fill="#F3D895"/>
<path d="M380 231.196C380 231.196 380.082 232.666 380.557 234.304C380.591 234.292 380.374 232.531 380 231.196Z" fill="#F3D895"/>
<path d="M380.212 235.393C380.212 235.393 380.238 236.807 380.476 237.851C380.476 237.851 380.382 236.235 380.212 235.393Z" fill="#F3D895"/>
<path d="M381.827 230.171C381.827 230.171 382.291 231.999 383.057 233.165C383.057 233.165 382.233 230.933 381.827 230.171Z" fill="#F3D895"/>
<g style="mix-blend-mode:multiply">
<path d="M357.077 235.175C351.706 237.016 358.45 270.917 372.134 310.873C385.817 350.828 401.286 381.723 406.657 379.881C412.029 378.04 405.284 344.14 391.601 304.184C377.918 264.228 362.483 233.322 357.077 235.175Z" fill="url(#paint19_radial_29_17734)"/>
</g>
<path d="M375.958 261.18L367.996 263.892C367.996 263.892 367.435 258.764 367.099 254.422C366.822 251.258 366.692 248.419 366.995 248.317C367.534 248.136 367.759 248.472 368.401 249.38C368.941 250.097 369.628 251.251 370.338 252.361C370.495 252.607 370.664 252.887 370.822 253.134C373.176 256.798 375.958 261.18 375.958 261.18Z" fill="url(#paint20_linear_29_17734)"/>
<path d="M370.304 252.372C369.138 252.801 367.76 253.825 367.054 254.399C366.777 251.235 366.659 248.429 366.961 248.328C367.5 248.147 367.725 248.483 368.367 249.391C368.941 250.096 369.628 251.251 370.304 252.372Z" fill="url(#paint21_linear_29_17734)"/>
<path d="M400.832 360.086L368.008 263.925C368.008 263.925 368.161 262.264 368.789 262.015C369.025 261.936 369.306 262.104 369.632 262.294C369.868 262.439 370.205 262.663 370.339 262.618C370.407 262.595 370.451 262.505 370.496 262.415C370.608 262.079 370.629 261.697 370.684 261.304C370.761 260.642 370.816 260.024 371.276 259.832L371.309 259.821C371.713 259.686 372.208 260.156 372.748 260.648C373.018 260.895 373.513 261.365 373.647 261.32C373.804 261.229 373.87 260.646 373.937 260.286C374.014 259.736 374.103 259.332 374.338 259.253C374.439 259.219 374.585 259.208 374.72 259.387C375.26 259.992 375.959 261.18 375.959 261.18L408.783 357.341L400.832 360.086Z" fill="#F9E6B7"/>
<path d="M375.958 261.18L408.783 357.341L406.451 358.648L403.255 359.722L400.787 360.064L367.962 263.903C367.962 263.903 368.24 262.387 368.811 262.195C369.081 262.105 369.643 262.664 370.104 262.809C370.351 262.876 370.519 262.82 370.63 262.483C370.931 261.483 370.715 260.283 371.298 260.012C371.724 259.831 372.546 260.828 373.119 261.31C373.366 261.489 373.557 261.612 373.703 261.488C374.196 261.173 374 258.917 374.574 259.511C375.159 260.138 375.958 261.18 375.958 261.18Z" fill="url(#paint22_linear_29_17734)"/>
<path d="M373.22 261.275L406.485 358.636L403.289 359.71L370.193 262.741C370.406 262.819 370.575 262.763 370.686 262.426C370.987 261.427 370.771 260.226 371.387 259.944C371.791 259.809 372.478 260.851 373.22 261.275Z" fill="url(#paint23_linear_29_17734)"/>
<path d="M367.426 254.948C367.426 254.948 367.83 259.829 368.159 261.478C368.159 261.478 367.71 256.687 367.426 254.948Z" fill="#E2C688"/>
<path d="M367.492 254.476C367.492 254.476 367.858 257.573 368.177 259.413C368.211 259.402 367.9 256.249 367.492 254.476Z" fill="#E2C688"/>
<path d="M371.466 254.826C371.466 254.826 372.896 256.967 374.068 258.894C374.068 258.894 372.48 256.732 371.466 254.826Z" fill="#E2C688"/>
<path d="M372.674 257.977L373.609 259.535C373.643 259.524 373.159 258.975 372.674 257.977Z" fill="#E2C688"/>
<path d="M369.46 256.436C369.46 256.436 369.553 257.603 370.23 259.397C370.23 259.397 369.867 257.647 369.46 256.436Z" fill="#F3D895"/>
<path d="M368.425 255.024C368.425 255.024 368.585 256.505 369.195 258.097C369.195 258.097 368.865 256.336 368.425 255.024Z" fill="#F3D895"/>
<path d="M368.894 259.209C368.894 259.209 368.987 260.601 369.304 261.655C369.304 261.655 369.098 260.039 368.894 259.209Z" fill="#F3D895"/>
<path d="M370.207 253.864C370.207 253.864 370.805 255.647 371.594 256.768C371.594 256.768 370.646 254.615 370.207 253.864Z" fill="#F3D895"/>
<g style="mix-blend-mode:multiply">
<path d="M391.541 191.985C386.011 193.355 389.794 227.689 399.933 268.685C410.072 309.682 422.805 341.795 428.301 340.436C433.831 339.065 430.048 304.731 419.909 263.735C409.77 222.738 397.07 190.614 391.541 191.985Z" fill="url(#paint24_radial_29_17734)"/>
</g>
<path d="M410.986 219.335L402.718 220.914C402.718 220.914 402.897 215.762 403.156 211.407C403.362 208.231 403.58 205.424 403.894 205.356C404.455 205.243 404.613 205.602 405.132 206.588C405.549 207.384 406.068 208.595 406.621 209.794C406.745 210.052 406.858 210.389 406.982 210.646C408.865 214.581 410.986 219.335 410.986 219.335Z" fill="url(#paint25_linear_29_17734)"/>
<path d="M406.666 209.817C405.443 210.078 403.964 210.912 403.179 211.362C403.385 208.186 403.603 205.38 403.928 205.345C404.489 205.232 404.658 205.624 405.177 206.61C405.616 207.361 406.102 208.584 406.666 209.817Z" fill="url(#paint26_linear_29_17734)"/>
<path d="M421.646 320.732L402.707 220.88C402.707 220.88 403.096 219.252 403.758 219.105C404.005 219.059 404.263 219.272 404.533 219.518C404.747 219.708 405.051 219.943 405.196 219.932C405.264 219.909 405.342 219.808 405.353 219.73C405.498 219.381 405.598 219.011 405.699 218.64C405.854 217.989 405.999 217.416 406.515 217.28L406.548 217.269C406.975 217.201 407.414 217.727 407.875 218.321C408.123 218.612 408.528 219.15 408.674 219.138C408.831 219.048 409.02 218.498 409.12 218.127C409.276 217.588 409.41 217.206 409.657 217.161C409.758 217.127 409.881 217.16 410.028 217.373C410.478 218.045 410.986 219.335 410.986 219.335L429.947 319.142L421.646 320.732Z" fill="#F9E6B7"/>
<path d="M410.986 219.335L429.925 319.187L427.447 320.169L424.137 320.794L421.657 320.766L402.718 220.914C402.718 220.914 403.197 219.443 403.792 219.318C404.072 219.261 404.556 219.922 404.983 220.079C405.208 220.19 405.421 220.156 405.566 219.808C406.002 218.875 405.965 217.652 406.582 217.482C407.031 217.369 407.707 218.49 408.224 219.027C408.449 219.251 408.607 219.386 408.764 219.295C409.279 219.047 409.42 216.791 409.904 217.452C410.332 218.17 410.986 219.335 410.986 219.335Z" fill="url(#paint27_linear_29_17734)"/>
<path d="M408.269 219.05L427.469 320.124L424.16 320.749L405.062 220.089C405.287 220.201 405.455 220.145 405.611 219.83C406.047 218.898 406.01 217.674 406.661 217.493C407.076 217.391 407.606 218.524 408.269 219.05Z" fill="url(#paint28_linear_29_17734)"/>
<path d="M403.416 211.957C403.416 211.957 403.113 216.851 403.229 218.534C403.252 218.489 403.476 213.696 403.416 211.957Z" fill="#E2C688"/>
<path d="M403.572 211.53C403.572 211.53 403.5 214.661 403.561 216.513C403.583 216.468 403.722 213.314 403.572 211.53Z" fill="#E2C688"/>
<path d="M407.435 212.441C407.435 212.441 408.551 214.762 409.431 216.825C409.431 216.825 408.18 214.437 407.435 212.441Z" fill="#E2C688"/>
<path d="M408.195 215.706L408.905 217.376C408.939 217.365 408.545 216.749 408.195 215.706Z" fill="#E2C688"/>
<path d="M405.238 213.703C405.238 213.703 405.173 214.848 405.593 216.766C405.582 216.733 405.477 214.971 405.238 213.703Z" fill="#F3D895"/>
<path d="M404.415 212.145C404.415 212.145 404.351 213.627 404.726 215.298C404.737 215.332 404.654 213.525 404.415 212.145Z" fill="#F3D895"/>
<path d="M404.301 216.377C404.301 216.377 404.215 217.791 404.374 218.823C404.341 218.834 404.359 217.218 404.301 216.377Z" fill="#F3D895"/>
<path d="M406.333 211.277C406.333 211.277 406.662 213.15 407.294 214.361C407.294 214.361 406.671 212.061 406.333 211.277Z" fill="#F3D895"/>
<g style="mix-blend-mode:multiply">
<path d="M225.742 210.251C217.778 216.97 245.83 263.256 288.402 313.65C330.975 364.044 371.908 399.414 379.838 392.707C387.802 385.988 359.75 339.702 317.178 289.308C274.605 238.914 233.706 203.533 225.742 210.251Z" fill="url(#paint29_radial_29_17734)"/>
</g>
<path d="M248.728 240.231C238.418 227.146 240.157 212.372 240.157 212.372C240.157 212.372 253.525 222.97 260.054 231.26C262.789 234.721 264.423 237.692 265.147 240.181C266.199 243.647 265.497 246.129 263.694 247.558C261.857 248.999 259.231 249.095 256.084 247.194C253.892 245.909 251.407 243.636 248.728 240.231Z" fill="url(#paint30_linear_29_17734)"/>
<path d="M259.631 247.388C259.631 247.388 252.264 245.744 244.082 230.634C244.082 230.634 251.641 242.883 259.631 247.388Z" fill="url(#paint31_linear_29_17734)"/>
<path d="M260.695 246.656C260.695 246.656 249.477 238.893 242.837 226.036C242.803 226.047 251.024 238.036 260.695 246.656Z" fill="url(#paint32_linear_29_17734)"/>
<path d="M261.388 245.487C261.388 245.487 247.255 234.173 241.682 221.594C241.682 221.594 252.82 238.257 261.388 245.487Z" fill="url(#paint33_linear_29_17734)"/>
<path d="M264.246 243.629C264.246 243.629 262.603 236.842 254.128 226.211C254.083 226.189 262.745 239.827 264.246 243.629Z" fill="url(#paint34_linear_29_17734)"/>
<path d="M263.012 243.968C263.012 243.968 258.689 233.103 249.392 221.363C249.38 221.329 259.6 238.825 263.012 243.968Z" fill="url(#paint35_linear_29_17734)"/>
<path d="M261.135 242.839C261.135 242.839 251.129 225.422 243.106 216.361C243.106 216.361 255.732 235.669 261.135 242.839Z" fill="url(#paint36_linear_29_17734)"/>
<path d="M259.731 242.337C259.731 242.337 247.056 225.779 241.105 214.75C241.105 214.75 246.264 227.767 259.731 242.337Z" fill="url(#paint37_linear_29_17734)"/>
<path d="M265.02 243.369C265.02 243.369 264.638 238.331 259.246 231.306C259.246 231.306 264.136 239.847 265.02 243.369Z" fill="url(#paint38_linear_29_17734)"/>
<path d="M256.084 247.194C256.431 246.666 256.991 246.103 257.552 245.99C258.438 245.842 259.11 245.391 259.254 244.706C259.399 244.021 260.295 243.346 261.17 243.277C262.046 243.207 262.335 242.286 262.737 241.477C263.14 240.668 263.61 240.398 264.486 240.553C264.767 240.608 264.968 240.428 265.181 240.17C266.233 243.635 265.531 246.117 263.728 247.547C261.868 249.032 259.265 249.083 256.084 247.194Z" fill="#932F15"/>
<path d="M274.673 268.318L278.101 265.594L281.529 262.87C281.529 262.87 373.635 379.59 370.106 382.347C366.925 384.914 274.673 268.318 274.673 268.318Z" fill="black"/>
<path d="M260.029 249.912L267.076 244.363L279.727 260.405L272.681 265.954L260.029 249.912Z" fill="url(#paint39_linear_29_17734)"/>
<path d="M261.775 252.433L258.308 248.019C260.121 245.726 262.82 243.621 265.657 242.256L269.124 246.67C266.321 248.023 263.587 250.139 261.775 252.433Z" fill="url(#paint40_linear_29_17734)"/>
<path d="M259.163 249.117L258.308 248.019C260.121 245.726 262.82 243.621 265.657 242.256L266.512 243.354C263.698 244.674 260.976 246.823 259.163 249.117Z" fill="url(#paint41_linear_29_17734)"/>
<path d="M261.775 252.433L260.92 251.335C262.733 249.041 265.432 246.937 268.269 245.572L269.124 246.67C266.322 248.023 263.588 250.139 261.775 252.433Z" fill="url(#paint42_linear_29_17734)"/>
<path d="M278.973 259.161L282.619 263.777C280.818 266.104 278.118 268.209 275.304 269.528L271.657 264.913C274.483 263.627 277.171 261.488 278.973 259.161Z" fill="url(#paint43_linear_29_17734)"/>
<path d="M281.719 262.656L282.62 263.777C280.818 266.104 278.118 268.209 275.304 269.528L274.404 268.408C277.218 267.089 279.951 264.972 281.719 262.656Z" fill="url(#paint44_linear_29_17734)"/>
<path d="M278.973 259.161L279.873 260.281C278.072 262.609 275.372 264.714 272.558 266.033L271.657 264.913C274.483 263.627 277.171 261.488 278.973 259.161Z" fill="url(#paint45_linear_29_17734)"/>
<g style="mix-blend-mode:multiply">
<path d="M240.579 191.003C231.793 196.612 253.399 246.224 288.812 301.831C324.237 357.471 360.064 398.038 368.85 392.429C377.636 386.819 356.03 337.208 320.617 281.601C285.192 225.961 249.365 185.394 240.579 191.003Z" fill="url(#paint46_radial_29_17734)"/>
</g>
<path d="M247.218 208.54C238.365 194.442 241.653 179.935 241.653 179.935C241.653 179.935 253.835 191.904 259.456 200.836C261.799 204.579 263.108 207.696 263.585 210.231C264.256 213.787 263.296 216.169 261.357 217.419C259.385 218.68 256.77 218.473 253.813 216.247C251.767 214.725 249.539 212.216 247.218 208.54Z" fill="url(#paint47_linear_29_17734)"/>
<path d="M257.294 216.799C257.294 216.799 250.161 214.403 243.615 198.481C243.627 198.515 249.829 211.519 257.294 216.799Z" fill="url(#paint48_linear_29_17734)"/>
<path d="M258.448 216.224C258.448 216.224 248.114 207.304 242.864 193.792C242.864 193.792 249.751 206.604 258.448 216.224Z" fill="url(#paint49_linear_29_17734)"/>
<path d="M259.242 215.134C259.242 215.134 246.385 202.381 242.202 189.26C242.202 189.26 251.491 206.993 259.242 215.134Z" fill="url(#paint50_linear_29_17734)"/>
<path d="M262.28 213.589C262.28 213.589 261.378 206.667 254.045 195.203C254.067 195.158 261.216 209.641 262.28 213.589Z" fill="url(#paint51_linear_29_17734)"/>
<path d="M261.035 213.783C261.035 213.783 257.889 202.523 249.891 189.859C249.914 189.814 258.194 208.335 261.035 213.783Z" fill="url(#paint52_linear_29_17734)"/>
<path d="M259.281 212.463C259.281 212.463 251.203 194.098 244.177 184.216C244.177 184.216 254.673 204.763 259.281 212.463Z" fill="url(#paint53_linear_29_17734)"/>
<path d="M257.978 211.815C257.978 211.815 247.129 194.007 242.366 182.391C242.366 182.391 246.112 195.884 257.978 211.815Z" fill="url(#paint54_linear_29_17734)"/>
<path d="M263.11 213.386C263.11 213.386 263.29 208.346 258.648 200.77C258.626 200.815 262.586 209.818 263.11 213.386Z" fill="url(#paint55_linear_29_17734)"/>
<path d="M253.824 216.28C254.216 215.774 254.877 215.29 255.426 215.255C256.313 215.219 257.042 214.825 257.265 214.151C257.487 213.477 258.418 212.903 259.327 212.934C260.191 212.943 260.582 212.101 261.074 211.336C261.566 210.572 262.059 210.369 262.913 210.569C263.16 210.636 263.406 210.478 263.63 210.253C264.301 213.809 263.341 216.191 261.402 217.441C259.351 218.691 256.769 218.473 253.824 216.28Z" fill="#932F15"/>
<path d="M270.038 239.25L273.748 236.918L277.457 234.586C277.457 234.586 356.645 360.437 352.834 362.803C349.371 364.977 270.038 239.25 270.038 239.25Z" fill="url(#paint56_linear_29_17734)"/>
<path d="M257.445 219.369L265.021 214.616L275.925 231.919L268.315 236.684L257.445 219.369Z" fill="url(#paint57_linear_29_17734)"/>
<path d="M258.91 222.06L255.925 217.297C257.963 215.227 260.899 213.38 263.837 212.318L266.822 217.081C263.884 218.143 260.982 219.979 258.91 222.06Z" fill="url(#paint58_linear_29_17734)"/>
<path d="M256.657 218.473L255.925 217.297C257.963 215.227 260.899 213.38 263.837 212.318L264.569 213.495C261.631 214.556 258.695 216.404 256.657 218.473Z" fill="url(#paint59_linear_29_17734)"/>
<path d="M258.91 222.06L258.178 220.883C260.216 218.814 263.152 216.966 266.09 215.905L266.822 217.081C263.884 218.143 260.982 219.979 258.91 222.06Z" fill="url(#paint60_linear_29_17734)"/>
<path d="M275.293 230.596L278.425 235.572C276.398 237.675 273.496 239.511 270.546 240.539L267.415 235.563C270.364 234.535 273.267 232.699 275.293 230.596Z" fill="url(#paint61_linear_29_17734)"/>
<path d="M277.648 234.373L278.436 235.605C276.409 237.709 273.507 239.545 270.558 240.573L269.769 239.34C272.719 238.312 275.621 236.476 277.648 234.373Z" fill="url(#paint62_linear_29_17734)"/>
<path d="M275.293 230.596L276.082 231.829C274.055 233.932 271.153 235.768 268.203 236.796L267.415 235.563C270.364 234.535 273.267 232.699 275.293 230.596Z" fill="url(#paint63_linear_29_17734)"/>
<g style="mix-blend-mode:multiply">
<path d="M310.107 230.808C305.198 233.692 318.661 265.523 340.124 301.892C361.588 338.261 382.997 365.439 387.894 362.521C392.803 359.636 379.341 327.806 357.877 291.437C336.38 255.079 315.016 227.924 310.107 230.808Z" fill="url(#paint64_radial_29_17734)"/>
</g>
<path d="M333.923 250.214L326.502 254.204C326.502 254.204 325.133 249.235 324.046 244.995C323.264 241.888 322.64 239.14 322.932 239.005C323.436 238.723 323.695 239.048 324.505 239.787C325.169 240.425 325.99 241.422 326.89 242.43C327.082 242.665 327.307 242.889 327.498 243.124C330.446 246.327 333.923 250.214 333.923 250.214Z" fill="url(#paint65_linear_29_17734)"/>
<path d="M326.924 242.419C325.825 243.05 324.661 244.265 324.068 244.951C323.286 241.844 322.707 239.118 322.999 238.982C323.503 238.701 323.762 239.025 324.583 239.798C325.168 240.425 326.023 241.411 326.924 242.419Z" fill="url(#paint66_linear_29_17734)"/>
<path d="M374.507 343.731L326.49 254.17C326.49 254.17 326.374 252.487 326.946 252.183C327.17 252.07 327.473 252.193 327.822 252.338C328.08 252.438 328.44 252.617 328.597 252.527C328.664 252.504 328.697 252.381 328.708 252.302C328.775 251.943 328.718 251.55 328.706 251.18C328.67 250.518 328.613 249.901 329.05 249.642L329.084 249.63C329.465 249.427 330.038 249.797 330.634 250.233C330.926 250.434 331.511 250.837 331.634 250.758C331.779 250.634 331.767 250.039 331.755 249.669C331.754 249.108 331.73 248.704 331.988 248.58C332.089 248.546 332.223 248.501 332.392 248.669C333.044 249.161 333.9 250.259 333.9 250.259L381.905 339.786L374.507 343.731Z" fill="#F9E6B7"/>
<path d="M333.922 250.214L381.938 339.774L379.877 341.44L376.895 343.041L374.518 343.765L326.501 254.204C326.501 254.204 326.509 252.666 327.047 252.373C327.305 252.249 327.946 252.708 328.417 252.774C328.653 252.807 328.844 252.706 328.876 252.358C329.02 251.336 328.591 250.17 329.151 249.832C329.555 249.584 330.522 250.457 331.162 250.804C331.432 250.938 331.645 251.016 331.757 250.903C332.183 250.498 331.639 248.322 332.291 248.815C332.943 249.307 333.922 250.214 333.922 250.214Z" fill="url(#paint67_linear_29_17734)"/>
<path d="M331.218 250.748L379.832 341.418L376.85 343.018L328.44 252.729C328.675 252.762 328.832 252.672 328.865 252.324C329.009 251.303 328.58 250.136 329.14 249.798C329.577 249.539 330.41 250.458 331.218 250.748Z" fill="url(#paint68_linear_29_17734)"/>
<path d="M324.45 245.421C324.45 245.421 325.639 250.188 326.238 251.747C326.271 251.735 325.049 247.092 324.45 245.421Z" fill="#E2C688"/>
<path d="M324.483 244.961C324.483 244.961 325.343 247.967 325.964 249.705C325.964 249.705 325.16 246.643 324.483 244.961Z" fill="#E2C688"/>
<path d="M328.433 244.682C328.433 244.682 330.188 246.564 331.662 248.278C331.651 248.244 329.75 246.374 328.433 244.682Z" fill="#E2C688"/>
<path d="M330.156 247.585L331.338 248.985C331.36 248.94 330.753 248.47 330.156 247.585Z" fill="#E2C688"/>
<path d="M326.709 246.572C326.709 246.572 326.981 247.716 327.95 249.375C327.95 249.375 327.306 247.682 326.709 246.572Z" fill="#F3D895"/>
<path d="M325.471 245.34C325.471 245.34 325.879 246.776 326.712 248.255C326.712 248.255 326.102 246.551 325.471 245.34Z" fill="#F3D895"/>
<path d="M326.614 249.411C326.614 249.411 326.954 250.757 327.394 251.733C327.427 251.721 326.941 250.163 326.614 249.411Z" fill="#F3D895"/>
<path d="M327.017 243.922C327.017 243.922 327.885 245.615 328.875 246.555C328.875 246.555 327.613 244.583 327.017 243.922Z" fill="#F3D895"/>
<g style="mix-blend-mode:multiply">
<path d="M322.347 248.299C317.088 250.477 325.84 283.89 341.923 322.965C358.006 362.04 375.28 391.954 380.538 389.776C385.797 387.598 377.045 354.185 360.962 315.11C344.879 276.035 327.605 246.121 322.347 248.299Z" fill="url(#paint69_radial_29_17734)"/>
</g>
<path d="M342.463 274.638L334.591 277.619C334.591 277.619 333.884 272.503 333.369 268.183C333.014 265.008 332.749 262.214 333.052 262.112C333.579 261.898 333.804 262.234 334.513 263.119C335.087 263.825 335.797 264.934 336.54 266.032C336.698 266.279 336.867 266.559 337.058 266.794C339.524 270.346 342.463 274.638 342.463 274.638Z" fill="url(#paint70_linear_29_17734)"/>
<path d="M336.529 265.998C335.385 266.495 334.052 267.542 333.358 268.149C333.003 264.974 332.749 262.214 333.041 262.078C333.568 261.864 333.804 262.234 334.502 263.085C335.065 263.757 335.786 264.9 336.529 265.998Z" fill="url(#paint71_linear_29_17734)"/>
<path d="M370.489 372.673L334.558 277.63C334.558 277.63 334.633 275.957 335.261 275.709C335.496 275.63 335.777 275.798 336.103 275.988C336.339 276.133 336.665 276.323 336.833 276.267C336.901 276.244 336.934 276.12 336.979 276.031C337.079 275.66 337.1 275.278 337.133 274.93C337.177 274.279 337.231 273.662 337.68 273.436L337.713 273.425C338.117 273.29 338.646 273.748 339.174 274.207C339.444 274.454 339.973 274.913 340.107 274.867C340.264 274.777 340.33 274.194 340.385 273.801C340.463 273.25 340.506 272.824 340.742 272.745C340.843 272.711 340.989 272.699 341.157 272.867C341.731 273.461 342.418 274.615 342.418 274.615L378.349 369.658L370.489 372.673Z" fill="#F9E6B7"/>
<path d="M342.43 274.649L378.36 369.691L376.096 371.088L372.945 372.296L370.5 372.706L334.569 277.663C334.569 277.663 334.801 276.125 335.362 275.899C335.631 275.809 336.227 276.358 336.676 276.469C336.923 276.535 337.092 276.479 337.192 276.108C337.459 275.12 337.198 273.897 337.781 273.627C338.207 273.446 339.051 274.398 339.658 274.868C339.905 275.047 340.119 275.125 340.242 275.046C340.724 274.697 340.461 272.465 341.034 273.058C341.597 273.618 342.43 274.649 342.43 274.649Z" fill="url(#paint72_linear_29_17734)"/>
<path d="M339.714 274.812L376.085 371.055L372.934 372.263L336.699 276.424C336.912 276.502 337.114 276.434 337.18 276.075C337.448 275.087 337.187 273.864 337.803 273.582C338.229 273.401 338.95 274.432 339.714 274.812Z" fill="url(#paint73_linear_29_17734)"/>
<path d="M333.718 268.665C333.718 268.665 334.268 273.534 334.664 275.161C334.664 275.161 334.036 270.392 333.718 268.665Z" fill="#E2C688"/>
<path d="M333.784 268.193C333.784 268.193 334.263 271.289 334.648 273.107C334.648 273.107 334.226 269.954 333.784 268.193Z" fill="#E2C688"/>
<path d="M337.758 268.431C337.758 268.431 339.255 270.548 340.483 272.42C340.472 272.386 338.828 270.28 337.758 268.431Z" fill="#E2C688"/>
<path d="M339.067 271.547L340.069 273.083C340.058 273.049 339.54 272.512 339.067 271.547Z" fill="#E2C688"/>
<path d="M335.798 270.063C335.798 270.063 335.924 271.218 336.68 273.023C336.646 273.035 336.238 271.262 335.798 270.063Z" fill="#F3D895"/>
<path d="M334.706 268.707C334.706 268.707 334.9 270.177 335.543 271.758C335.577 271.746 335.18 270.008 334.706 268.707Z" fill="#F3D895"/>
<path d="M335.321 272.881C335.321 272.881 335.493 274.283 335.798 275.304C335.798 275.304 335.559 273.699 335.321 272.881Z" fill="#F3D895"/>
<path d="M336.431 267.491C336.431 267.491 337.064 269.263 337.919 270.361C337.919 270.361 336.904 268.231 336.431 267.491Z" fill="#F3D895"/>
<g style="mix-blend-mode:multiply">
<path d="M343.681 257.868C338.23 259.474 343.483 293.613 355.417 334.157C367.339 374.666 381.452 406.204 386.902 404.598C392.353 402.992 387.1 368.852 375.167 328.309C363.244 287.799 349.132 256.261 343.681 257.868Z" fill="url(#paint74_radial_29_17734)"/>
</g>
<path d="M361.442 284.437L353.321 286.566C353.321 286.566 353.163 281.415 353.086 277.06C353.056 273.851 353.095 271.067 353.431 270.954C353.981 270.807 354.172 271.155 354.758 272.118C355.242 272.892 355.829 274.08 356.437 275.223C356.561 275.481 356.73 275.761 356.854 276.019C358.962 279.841 361.442 284.437 361.442 284.437Z" fill="url(#paint75_linear_29_17734)"/>
<path d="M356.437 275.223C355.248 275.585 353.803 276.52 353.074 277.027C353.045 273.817 353.083 271.034 353.397 270.966C353.947 270.818 354.15 271.2 354.724 272.13C355.231 272.858 355.817 274.046 356.437 275.223Z" fill="url(#paint76_linear_29_17734)"/>
<path d="M379.035 384.853L353.276 286.543C353.276 286.543 353.542 284.881 354.192 284.7C354.428 284.621 354.686 284.834 354.99 285.069C355.237 285.248 355.541 285.483 355.675 285.438C355.743 285.415 355.821 285.314 355.832 285.235C355.977 284.887 356.032 284.494 356.099 284.135C356.221 283.495 356.309 282.866 356.814 282.697L356.847 282.685C357.262 282.583 357.735 283.098 358.219 283.647C358.466 283.939 358.928 284.42 359.073 284.408C359.23 284.318 359.375 283.746 359.441 283.386C359.552 282.825 359.653 282.454 359.922 282.364C360.023 282.33 360.146 282.363 360.315 282.531C360.833 283.181 361.397 284.414 361.397 284.414L387.178 382.679L379.035 384.853Z" fill="#F9E6B7"/>
<path d="M361.441 284.437L387.2 382.747L384.778 383.897L381.514 384.769L379.057 384.92L353.298 286.61C353.298 286.61 353.687 285.094 354.271 284.936C354.551 284.879 355.091 285.484 355.518 285.64C355.731 285.718 355.945 285.684 356.056 285.347C356.435 284.359 356.298 283.169 356.903 282.966C357.341 282.819 358.073 283.883 358.658 284.398C358.871 284.589 359.062 284.712 359.219 284.621C359.724 284.34 359.707 282.062 360.225 282.711C360.686 283.305 361.441 284.437 361.441 284.437Z" fill="url(#paint77_linear_29_17734)"/>
<path d="M358.702 284.308L384.79 383.818L381.526 384.69L355.541 285.595C355.754 285.673 355.933 285.65 356.079 285.302C356.458 284.314 356.32 283.124 356.96 282.91C357.386 282.729 357.983 283.839 358.702 284.308Z" fill="url(#paint78_linear_29_17734)"/>
<path d="M353.367 277.565C353.367 277.565 353.401 282.458 353.629 284.141C353.629 284.141 353.539 279.304 353.367 277.565Z" fill="#E2C688"/>
<path d="M353.478 277.115C353.478 277.115 353.631 280.246 353.804 282.098C353.838 282.086 353.752 278.933 353.478 277.115Z" fill="#E2C688"/>
<path d="M357.408 277.78C357.408 277.78 358.693 280.044 359.696 282.028C359.718 281.983 358.288 279.73 357.408 277.78Z" fill="#E2C688"/>
<path d="M358.414 280.998L359.26 282.623C359.248 282.59 358.787 281.996 358.414 280.998Z" fill="#E2C688"/>
<path d="M355.301 279.198C355.301 279.198 355.315 280.354 355.869 282.227C355.825 282.205 355.607 280.443 355.301 279.198Z" fill="#F3D895"/>
<path d="M354.389 277.708C354.389 277.708 354.437 279.189 354.912 280.827C354.912 280.827 354.695 279.065 354.389 277.708Z" fill="#F3D895"/>
<path d="M354.533 281.928C354.533 281.928 354.548 283.308 354.763 284.396C354.763 284.396 354.67 282.78 354.533 281.928Z" fill="#F3D895"/>
<path d="M356.216 276.683C356.216 276.683 356.68 278.511 357.379 279.699C357.379 279.699 356.588 277.456 356.216 276.683Z" fill="#F3D895"/>
<g style="mix-blend-mode:multiply">
<path d="M267.442 349.78C275.256 346.182 268.214 314.291 251.678 278.551C235.154 242.843 215.432 216.784 207.629 220.416C199.815 224.014 206.858 255.905 223.393 291.646C239.883 327.364 259.628 353.378 267.442 349.78Z" fill="url(#paint79_radial_29_17734)"/>
</g>
<path d="M203.598 239.066C202.21 236.051 203.19 232.614 205.791 231.441C208.392 230.268 211.594 231.776 212.982 234.791C214.369 237.807 213.389 241.244 210.788 242.417C208.187 243.59 204.985 242.082 203.598 239.066Z" fill="url(#paint80_linear_29_17734)"/>
<path d="M246.686 332.679L204.048 239.402L213.23 235.195L255.867 328.472C255.867 328.472 259.984 346.969 258.784 347.522C257.619 348.063 246.686 332.679 246.686 332.679Z" fill="url(#paint81_linear_29_17734)"/>
<path d="M223.065 280.973L232.281 276.754L234.176 280.947L224.96 285.166L223.065 280.973Z" fill="url(#paint82_linear_29_17734)"/>
<path d="M231.853 300.223L241.079 296.038L250.78 317.227L241.565 321.445L231.853 300.223Z" fill="url(#paint83_linear_29_17734)"/>
<path d="M222.231 279.157L231.413 274.949L231.943 276.082L222.761 280.289L222.231 279.157Z" fill="url(#paint84_linear_29_17734)"/>
<path d="M203.281 237.9L212.474 233.726L213.297 235.509L204.116 239.716L203.281 237.9Z" fill="url(#paint85_linear_29_17734)"/>
<path d="M228.075 264.49L228.85 264.136L215.187 234.248L214.413 234.602L228.075 264.49Z" fill="#268DC6"/>
<path d="M213.53 237.14L216.015 236.004L215.159 234.132L212.674 235.268L213.53 237.14Z" fill="#268DC6"/>
<path d="M227.635 264.778L228.99 264.158L228.09 262.189L226.735 262.809L227.635 264.778Z" fill="#268DC6"/>
<path d="M246.685 332.679L255.867 328.472C255.867 328.472 258.679 341.08 258.982 345.77C259.052 346.758 259.008 347.409 258.784 347.522C258.594 347.623 258.076 347.198 257.356 346.504C254.128 343.133 246.685 332.679 246.685 332.679Z" fill="url(#paint86_linear_29_17734)"/>
<path d="M257.39 346.492C258.221 346.401 258.714 346.085 259.016 345.759C259.086 346.747 259.042 347.398 258.818 347.51C258.594 347.623 258.088 347.231 257.39 346.492Z" fill="#333333"/>
<path d="M191.669 468.043C191.669 468.043 184.875 437.117 184.322 411.395C183.813 385.696 187.024 371.289 191.698 359.236C196.407 347.172 207.48 340.794 223.492 339.534C239.505 338.274 274.782 339.865 298.901 340.224C323.02 340.584 364.388 335.674 386.259 325.22C408.131 314.766 416.56 304.971 435.231 303.492C453.903 302.012 478.114 308.219 491.553 320.252C505.003 332.32 524.555 352.072 534.819 374.382C545.072 396.658 561.047 457.035 561.047 457.035C561.047 457.035 578.102 513.828 569.702 535.856C561.302 557.883 492.466 589.579 425.182 608.173C357.898 626.767 285.491 638.023 256.897 633.813C224.912 629.094 221.088 591.405 209.291 556.843C193.744 511.336 191.669 468.043 191.669 468.043Z" fill="url(#paint87_linear_29_17734)"/>
<path d="M191.92 470.242C191.92 470.242 187.679 392.746 198.373 372.531C209.033 352.328 227.216 353.184 247.724 359.623C298.219 375.421 319.31 381.59 362.795 355.677C402.503 332.006 412.454 315.485 433.785 313.786C455.116 312.087 495.074 319.032 534.897 374.393C534.897 374.393 521.338 344.279 497.687 322.797C476.554 303.576 444.98 287.151 394.642 314.954C316.966 357.893 226.532 324.286 203.595 344.945C175.305 370.396 181.414 425.7 191.92 470.242Z" fill="#FFC951"/>
<path d="M534.852 374.37C496.898 307.075 439.317 294.257 408.023 316.561C376.729 338.866 327.078 343.414 288.987 343.255C250.862 343.107 212.624 332.702 196.118 358.575C179.613 384.448 191.954 470.23 191.954 470.23C181.645 428.617 179.517 391.631 187.746 363.184C195.15 337.523 211.508 335.622 241.416 334.824C262.424 334.281 300.426 339.525 337.165 332.762C376.227 325.557 406.045 305.433 427.054 300.66C460.963 292.939 490.562 309.278 507.195 328.7C523.219 347.428 533.847 371.713 534.875 374.325C534.841 374.337 534.852 374.37 534.852 374.37Z" fill="url(#paint88_linear_29_17734)"/>
<path d="M534.852 374.371C496.898 307.075 439.317 294.257 408.023 316.562C376.729 338.867 327.078 343.414 288.987 343.255C250.862 343.107 212.624 332.702 196.118 358.575C179.613 384.449 191.954 470.231 191.954 470.231C191.954 470.231 187.236 453.733 186.176 436.755C185.115 419.777 184.188 392.384 187.163 373.489C190.15 354.627 202.534 342.455 216.287 339.483C230.039 336.511 246.056 337.047 264.702 339.17C283.36 341.326 324.878 338.649 339.812 336.741C354.745 334.832 377.369 329.18 396.996 318.843C416.624 308.506 422.601 301.557 443.401 303.181C464.201 304.805 480.192 308.943 493.642 321.011C507.048 333.056 518.591 340.447 534.863 374.292C534.841 374.337 534.852 374.371 534.852 374.371Z" fill="url(#paint89_linear_29_17734)"/>
<path d="M249.322 648.712C238.412 653.125 223.572 656.313 208.269 653.891C190.474 651.07 172.011 640.686 158.307 615.825C132.859 569.601 105.882 473.572 115.143 459.791C120.31 452.103 134.057 451.678 145.17 452.775C154.005 453.664 161.225 455.544 161.225 455.544C199.699 660.476 249.322 648.712 249.322 648.712Z" fill="url(#paint90_linear_29_17734)"/>
<path d="M215.044 467.192C215.044 467.192 179.561 483.604 158.497 479.185L160.329 490.213C160.329 490.213 193.976 495.422 215.455 479.784L215.044 467.192Z" fill="#E26D2D"/>
<path d="M249.322 648.712C238.412 653.125 223.571 656.313 208.269 653.89C160.866 591.679 148.333 490.723 145.17 452.775C154.005 453.663 161.225 455.543 161.225 455.543C199.699 660.476 249.322 648.712 249.322 648.712Z" fill="#E26D2D"/>
<path d="M135.27 452.282C135.27 452.282 143.658 502.664 154.732 530.73L151.658 531.051C151.658 531.051 133.031 478.717 132.296 452.12L135.27 452.282Z" fill="#362628"/>
<path d="M135.487 453.93C135.487 453.93 123.76 454.126 119.706 457.884C115.64 461.608 115.319 473.022 117.872 485.081C120.425 497.14 128.922 536.704 135.98 555.822C135.98 555.822 124.047 500.79 122.669 482.534C121.292 464.277 121.302 458.845 135.487 453.93Z" fill="url(#paint91_linear_29_17734)"/>
<path d="M502.72 383.591C429.939 339.9 256.252 383.228 212.56 456.008C183.939 503.66 208.345 642.97 257.124 644.968C342.595 648.418 476.699 609.962 556.268 570.319C599.875 548.558 550.337 412.223 502.72 383.591Z" fill="#362628"/>
<path d="M501.666 379.34C428.885 335.648 255.198 378.977 211.506 451.757C182.919 499.397 207.291 638.719 256.093 640.671C341.564 644.122 475.668 605.666 555.237 566.023C598.822 544.307 549.272 407.939 501.666 379.34Z" fill="#F6C250"/>
<path d="M403.189 460.7L355.941 432.325L327.565 479.573L374.813 507.948L403.189 460.7Z" fill="#42210B"/>
<path d="M402.648 456.756L355.399 428.38L327.024 475.628L374.272 504.004L402.648 456.756Z" fill="#E26D2D"/>
<path d="M553.242 469.802C553.242 469.802 542.033 432.085 527.958 412.028C513.884 391.971 476.354 372.306 442.499 374.729C408.634 377.119 346.51 394.467 330.827 397.152C315.188 399.859 284.444 407.528 268.686 416.902C252.894 426.287 222.166 446.043 216.196 460.815C210.226 475.587 212.48 513.728 212.627 523.975C212.774 534.221 214.32 547.741 214.32 547.741C214.32 547.741 215.346 491.276 217.329 479.902C219.312 468.529 232.113 452.024 248.793 438.821C265.429 425.596 285.077 414.653 296.44 411.81C307.802 408.967 345.36 406.871 353.466 403.026C361.571 399.18 391.16 386.957 417.051 386.572C442.93 386.153 472.111 377.063 490.853 391.733C509.585 406.369 525.687 405.378 553.242 469.802Z" fill="#362628"/>
<defs>
<linearGradient id="paint0_linear_29_17734" x1="301.018" y1="203.667" x2="406.191" y2="625.093" gradientUnits="userSpaceOnUse">
<stop stop-color="#FFEA4D"/>
<stop offset="1" stop-color="#E26D2D"/>
</linearGradient>
<linearGradient id="paint1_linear_29_17734" x1="283.953" y1="110.948" x2="347.945" y2="367.365" gradientUnits="userSpaceOnUse">
<stop offset="0.00537634" stop-color="#9C7B71"/>
<stop offset="0.9946" stop-color="#271A1D"/>
</linearGradient>
<linearGradient id="paint2_linear_29_17734" x1="300.994" y1="162.343" x2="361.485" y2="404.729" gradientUnits="userSpaceOnUse">
<stop stop-color="#4D3938"/>
<stop offset="1" stop-color="#2C1C1F"/>
</linearGradient>
<linearGradient id="paint3_linear_29_17734" x1="278.997" y1="257.883" x2="388.427" y2="239.183" gradientUnits="userSpaceOnUse">
<stop stop-color="#C1272D"/>
<stop offset="0.1311" stop-color="#B6272D"/>
<stop offset="0.7077" stop-color="#8A272D"/>
<stop offset="1" stop-color="#79272D"/>
</linearGradient>
<linearGradient id="paint4_linear_29_17734" x1="342.509" y1="273.556" x2="389.901" y2="265.458" gradientUnits="userSpaceOnUse">
<stop offset="0.00537634" stop-color="#F2F2F2"/>
<stop offset="1" stop-color="#E6E6E6"/>
</linearGradient>
<linearGradient id="paint5_linear_29_17734" x1="317.229" y1="203.448" x2="278.756" y2="208.018" gradientUnits="userSpaceOnUse">
<stop offset="0.00537634" stop-color="#F2F2F2"/>
<stop offset="1" stop-color="#E6E6E6"/>
</linearGradient>
<radialGradient id="paint6_radial_29_17734" cx="0" cy="0" r="1" gradientUnits="userSpaceOnUse" gradientTransform="translate(230.863 342.614) rotate(-97.3383) scale(101.068 71.4536)">
<stop offset="0.00537634" stop-color="#0F6680"/>
<stop offset="0.1584" stop-color="#4A8B9F"/>
<stop offset="0.3202" stop-color="#80AEBC"/>
<stop offset="0.4783" stop-color="#AECBD4"/>
<stop offset="0.6288" stop-color="#D1E2E7"/>
<stop offset="0.7697" stop-color="#EAF2F4"/>
<stop offset="0.8973" stop-color="#FAFCFC"/>
<stop offset="1" stop-color="white"/>
</radialGradient>
<linearGradient id="paint7_linear_29_17734" x1="338.447" y1="297.148" x2="358.217" y2="294.632" gradientUnits="userSpaceOnUse">
<stop stop-color="#F15A24"/>
<stop offset="0.0641701" stop-color="#F36B29"/>
<stop offset="0.1833" stop-color="#F6842F"/>
<stop offset="0.3164" stop-color="#F89835"/>
<stop offset="0.4692" stop-color="#FAA638"/>
<stop offset="0.6592" stop-color="#FBAE3A"/>
<stop offset="1" stop-color="#FBB03B"/>
</linearGradient>
<linearGradient id="paint8_linear_29_17734" x1="342.667" y1="321.605" x2="371.31" y2="317.96" gradientUnits="userSpaceOnUse">
<stop offset="0.00537634" stop-color="#662D91"/>
<stop offset="0.0145442" stop-color="#672D91"/>
<stop offset="0.1745" stop-color="#7B2A90"/>
<stop offset="0.3586" stop-color="#89288F"/>
<stop offset="0.5882" stop-color="#91278F"/>
<stop offset="1" stop-color="#93278F"/>
</linearGradient>
<linearGradient id="paint9_linear_29_17734" x1="347.426" y1="344.095" x2="361.125" y2="342.352" gradientUnits="userSpaceOnUse">
<stop offset="0.00537634" stop-color="#006837"/>
<stop offset="0.0575994" stop-color="#117338"/>
<stop offset="0.1914" stop-color="#368D3A"/>
<stop offset="0.3312" stop-color="#55A13C"/>
<stop offset="0.4765" stop-color="#6EB23D"/>
<stop offset="0.6298" stop-color="#7FBD3E"/>
<stop offset="0.7962" stop-color="#89C43F"/>
<stop offset="1" stop-color="#8CC63F"/>
</linearGradient>
<linearGradient id="paint10_linear_29_17734" x1="194.189" y1="355.646" x2="355.769" y2="335.083" gradientUnits="userSpaceOnUse">
<stop stop-color="#A80000"/>
<stop offset="1" stop-color="#8F272D"/>
</linearGradient>
<linearGradient id="paint11_linear_29_17734" x1="199.605" y1="342.261" x2="354.179" y2="322.59" gradientUnits="userSpaceOnUse">
<stop stop-color="#FF0000"/>
<stop offset="1" stop-color="#C1272D"/>
</linearGradient>
<linearGradient id="paint12_linear_29_17734" x1="222.857" y1="291.607" x2="311.783" y2="280.29" gradientUnits="userSpaceOnUse">
<stop stop-color="#E6E6E6"/>
<stop offset="1" stop-color="#CCCCCC"/>
</linearGradient>
<linearGradient id="paint13_linear_29_17734" x1="230.311" y1="335.268" x2="319.236" y2="323.951" gradientUnits="userSpaceOnUse">
<stop stop-color="#E6E6E6"/>
<stop offset="1" stop-color="#CCCCCC"/>
</linearGradient>
<radialGradient id="paint14_radial_29_17734" cx="0" cy="0" r="1" gradientUnits="userSpaceOnUse" gradientTransform="translate(389.08 281.543) rotate(-107.499) scale(75.999 10.2315)">
<stop offset="0.00537634" stop-color="#0F6680"/>
<stop offset="0.1584" stop-color="#4A8B9F"/>
<stop offset="0.3202" stop-color="#80AEBC"/>
<stop offset="0.4783" stop-color="#AECBD4"/>
<stop offset="0.6288" stop-color="#D1E2E7"/>
<stop offset="0.7697" stop-color="#EAF2F4"/>
<stop offset="0.8973" stop-color="#FAFCFC"/>
<stop offset="1" stop-color="white"/>
</radialGradient>
<linearGradient id="paint15_linear_29_17734" x1="377.054" y1="232.786" x2="385.159" y2="230.555" gradientUnits="userSpaceOnUse">
<stop stop-color="#FBD291"/>
<stop offset="0.5054" stop-color="#FBE6B1"/>
<stop offset="1" stop-color="#F0D38B"/>
</linearGradient>
<linearGradient id="paint16_linear_29_17734" x1="377.933" y1="227.706" x2="381.52" y2="226.719" gradientUnits="userSpaceOnUse">
<stop offset="0.00537634" stop-color="#0028FF"/>
<stop offset="0.5108" stop-color="#004CFF"/>
<stop offset="1" stop-color="#0000FF"/>
</linearGradient>
<linearGradient id="paint17_linear_29_17734" x1="392.229" y1="288.012" x2="400.351" y2="285.776" gradientUnits="userSpaceOnUse">
<stop stop-color="#1133D0"/>
<stop offset="0.0708181" stop-color="#0C38D6"/>
<stop offset="0.1613" stop-color="#0045E6"/>
<stop offset="0.1876" stop-color="#004FE6"/>
<stop offset="0.2324" stop-color="#006AE4"/>
<stop offset="0.2419" stop-color="#0071E4"/>
<stop offset="0.5258" stop-color="#0057E1"/>
<stop offset="0.7204" stop-color="#0042DF"/>
<stop offset="0.8065" stop-color="#003DE6"/>
<stop offset="1" stop-color="#0032DD"/>
</linearGradient>
<linearGradient id="paint18_linear_29_17734" x1="394.572" y1="287.355" x2="397.822" y2="286.461" gradientUnits="userSpaceOnUse">
<stop offset="0.00537634" stop-color="#0069E9"/>
<stop offset="0.5108" stop-color="#0061F5"/>
<stop offset="1" stop-color="#0051FF"/>
</linearGradient>
<radialGradient id="paint19_radial_29_17734" cx="0" cy="0" r="1" gradientUnits="userSpaceOnUse" gradientTransform="translate(381.886 307.521) rotate(-108.916) scale(75.9924 10.2323)">
<stop offset="0.00537634" stop-color="#0F6680"/>
<stop offset="0.1584" stop-color="#4A8B9F"/>
<stop offset="0.3202" stop-color="#80AEBC"/>
<stop offset="0.4783" stop-color="#AECBD4"/>
<stop offset="0.6288" stop-color="#D1E2E7"/>
<stop offset="0.7697" stop-color="#EAF2F4"/>
<stop offset="0.8973" stop-color="#FAFCFC"/>
<stop offset="1" stop-color="white"/>
</radialGradient>
<linearGradient id="paint20_linear_29_17734" x1="365.575" y1="256.783" x2="373.531" y2="254.065" gradientUnits="userSpaceOnUse">
<stop stop-color="#FBD291"/>
<stop offset="0.5054" stop-color="#FBE6B1"/>
<stop offset="1" stop-color="#F0D38B"/>
</linearGradient>
<linearGradient id="paint21_linear_29_17734" x1="366.146" y1="251.658" x2="369.667" y2="250.456" gradientUnits="userSpaceOnUse">
<stop stop-color="#0095EA"/>
<stop offset="0.5161" stop-color="#45BAE2"/>
<stop offset="1" stop-color="#00A1E2"/>
</linearGradient>
<linearGradient id="paint22_linear_29_17734" x1="384.058" y1="310.991" x2="392.035" y2="308.266" gradientUnits="userSpaceOnUse">
<stop offset="0.00537634" stop-color="#2490C7"/>
<stop offset="0.0925346" stop-color="#2195CD"/>
<stop offset="0.1613" stop-color="#1D9CD6"/>
<stop offset="0.1829" stop-color="#27A2D8"/>
<stop offset="0.2196" stop-color="#42B3DD"/>
<stop offset="0.2473" stop-color="#5BC3E2"/>
<stop offset="0.5127" stop-color="#41B6E2"/>
<stop offset="0.7204" stop-color="#29ABE2"/>
<stop offset="0.8065" stop-color="#1F92D3"/>
<stop offset="1" stop-color="#1A84D3"/>
</linearGradient>
<linearGradient id="paint23_linear_29_17734" x1="386.356" y1="310.193" x2="389.552" y2="309.102" gradientUnits="userSpaceOnUse">
<stop stop-color="#5CBAEA"/>
<stop offset="0.5161" stop-color="#45BAE2"/>
<stop offset="1" stop-color="#29ABE2"/>
</linearGradient>
<radialGradient id="paint24_radial_29_17734" cx="0" cy="0" r="1" gradientUnits="userSpaceOnUse" gradientTransform="translate(409.928 266.224) rotate(-103.915) scale(75.9996 10.2314)">
<stop offset="0.00537634" stop-color="#0F6680"/>
<stop offset="0.1584" stop-color="#4A8B9F"/>
<stop offset="0.3202" stop-color="#80AEBC"/>
<stop offset="0.4783" stop-color="#AECBD4"/>
<stop offset="0.6288" stop-color="#D1E2E7"/>
<stop offset="0.7697" stop-color="#EAF2F4"/>
<stop offset="0.8973" stop-color="#FAFCFC"/>
<stop offset="1" stop-color="white"/>
</radialGradient>
<linearGradient id="paint25_linear_29_17734" x1="401.34" y1="213.51" x2="409.599" y2="211.941" gradientUnits="userSpaceOnUse">
<stop stop-color="#FBD291"/>
<stop offset="0.5054" stop-color="#FBE6B1"/>
<stop offset="1" stop-color="#F0D38B"/>
</linearGradient>
<linearGradient id="paint26_linear_29_17734" x1="402.628" y1="208.518" x2="406.283" y2="207.824" gradientUnits="userSpaceOnUse">
<stop stop-color="#126E46"/>
<stop offset="0.5161" stop-color="#149C45"/>
<stop offset="1" stop-color="#007045"/>
</linearGradient>
<linearGradient id="paint27_linear_29_17734" x1="411.992" y1="269.784" x2="420.273" y2="268.212" gradientUnits="userSpaceOnUse">
<stop offset="0.00537634" stop-color="#007837"/>
<stop offset="0.0661792" stop-color="#067A37"/>
<stop offset="0.1473" stop-color="#177F37"/>
<stop offset="0.1667" stop-color="#1C8037"/>
<stop offset="0.1961" stop-color="#158641"/>
<stop offset="0.2462" stop-color="#01975C"/>
<stop offset="0.2473" stop-color="#00975D"/>
<stop offset="0.5612" stop-color="#007D45"/>
<stop offset="0.7151" stop-color="#006E37"/>
<stop offset="0.8118" stop-color="#00693C"/>
<stop offset="1" stop-color="#006C37"/>
</linearGradient>
<linearGradient id="paint28_linear_29_17734" x1="414.38" y1="269.318" x2="417.697" y2="268.689" gradientUnits="userSpaceOnUse">
<stop stop-color="#129646"/>
<stop offset="0.5161" stop-color="#149C45"/>
<stop offset="1" stop-color="#00AC45"/>
</linearGradient>
<radialGradient id="paint29_radial_29_17734" cx="0" cy="0" r="1" gradientUnits="userSpaceOnUse" gradientTransform="translate(302.804 301.485) rotate(-130.182) scale(118.641 18.725)">
<stop offset="0.00537634" stop-color="#0F6680"/>
<stop offset="0.1584" stop-color="#4A8B9F"/>
<stop offset="0.3202" stop-color="#80AEBC"/>
<stop offset="0.4783" stop-color="#AECBD4"/>
<stop offset="0.6288" stop-color="#D1E2E7"/>
<stop offset="0.7697" stop-color="#EAF2F4"/>
<stop offset="0.8973" stop-color="#FAFCFC"/>
<stop offset="1" stop-color="white"/>
</radialGradient>
<linearGradient id="paint30_linear_29_17734" x1="238.665" y1="212.327" x2="262.454" y2="247.702" gradientUnits="userSpaceOnUse">
<stop stop-color="#D56416"/>
<stop offset="1" stop-color="#AD371F"/>
</linearGradient>
<linearGradient id="paint31_linear_29_17734" x1="258.381" y1="247.671" x2="243.291" y2="230.177" gradientUnits="userSpaceOnUse">
<stop stop-color="#B43F1D"/>
<stop offset="0.2069" stop-color="#B7441D"/>
<stop offset="0.4492" stop-color="#BF521F"/>
<stop offset="0.7091" stop-color="#CC6A21"/>
<stop offset="0.98" stop-color="#DE8A24"/>
<stop offset="1" stop-color="#E08D24"/>
</linearGradient>
<linearGradient id="paint32_linear_29_17734" x1="262.92" y1="252.481" x2="244.251" y2="226.275" gradientUnits="userSpaceOnUse">
<stop stop-color="#B43F1D"/>
<stop offset="0.2069" stop-color="#B7441D"/>
<stop offset="0.4492" stop-color="#BF521F"/>
<stop offset="0.7091" stop-color="#CC6A21"/>
<stop offset="0.98" stop-color="#DE8A24"/>
<stop offset="1" stop-color="#E08D24"/>
</linearGradient>
<linearGradient id="paint33_linear_29_17734" x1="263.965" y1="251.736" x2="245.296" y2="225.531" gradientUnits="userSpaceOnUse">
<stop offset="0.00537634" stop-color="#B43F1D"/>
<stop offset="0.2111" stop-color="#B7441D"/>
<stop offset="0.4521" stop-color="#BF521F"/>
<stop offset="0.7107" stop-color="#CC6A21"/>
<stop offset="0.9801" stop-color="#DE8A24"/>
<stop offset="1" stop-color="#E08D24"/>
</linearGradient>
<linearGradient id="paint34_linear_29_17734" x1="268.79" y1="248.299" x2="250.121" y2="222.094" gradientUnits="userSpaceOnUse">
<stop stop-color="#B43F1D"/>
<stop offset="0.2069" stop-color="#B7441D"/>
<stop offset="0.4492" stop-color="#BF521F"/>
<stop offset="0.7091" stop-color="#CC6A21"/>
<stop offset="0.98" stop-color="#DE8A24"/>
<stop offset="1" stop-color="#E08D24"/>
</linearGradient>
<linearGradient id="paint35_linear_29_17734" x1="267.889" y1="248.941" x2="249.22" y2="222.736" gradientUnits="userSpaceOnUse">
<stop stop-color="#B43F1D"/>
<stop offset="0.2069" stop-color="#B7441D"/>
<stop offset="0.4492" stop-color="#BF521F"/>
<stop offset="0.7091" stop-color="#CC6A21"/>
<stop offset="0.98" stop-color="#DE8A24"/>
<stop offset="1" stop-color="#E08D24"/>
</linearGradient>
<linearGradient id="paint36_linear_29_17734" x1="266.733" y1="249.764" x2="248.064" y2="223.559" gradientUnits="userSpaceOnUse">
<stop stop-color="#B43F1D"/>
<stop offset="0.2069" stop-color="#B7441D"/>
<stop offset="0.4492" stop-color="#BF521F"/>
<stop offset="0.7091" stop-color="#CC6A21"/>
<stop offset="0.98" stop-color="#DE8A24"/>
<stop offset="1" stop-color="#E08D24"/>
</linearGradient>
<linearGradient id="paint37_linear_29_17734" x1="265.565" y1="250.596" x2="246.896" y2="224.391" gradientUnits="userSpaceOnUse">
<stop stop-color="#B43F1D"/>
<stop offset="0.2069" stop-color="#B7441D"/>
<stop offset="0.4492" stop-color="#BF521F"/>
<stop offset="0.7091" stop-color="#CC6A21"/>
<stop offset="0.98" stop-color="#DE8A24"/>
<stop offset="1" stop-color="#E08D24"/>
</linearGradient>
<linearGradient id="paint38_linear_29_17734" x1="269.567" y1="247.746" x2="250.898" y2="221.541" gradientUnits="userSpaceOnUse">
<stop stop-color="#B43F1D"/>
<stop offset="0.2069" stop-color="#B7441D"/>
<stop offset="0.4492" stop-color="#BF521F"/>
<stop offset="0.7091" stop-color="#CC6A21"/>
<stop offset="0.98" stop-color="#DE8A24"/>
<stop offset="1" stop-color="#E08D24"/>
</linearGradient>
<linearGradient id="paint39_linear_29_17734" x1="273.401" y1="252.39" x2="266.364" y2="257.937" gradientUnits="userSpaceOnUse">
<stop stop-color="#CCCCCC"/>
<stop offset="0.2204" stop-color="#999999"/>
<stop offset="0.7742" stop-color="#F2F2F2"/>
<stop offset="1" stop-color="#CCCCCC"/>
</linearGradient>
<linearGradient id="paint40_linear_29_17734" x1="267.221" y1="244.249" x2="259.894" y2="250.024" gradientUnits="userSpaceOnUse">
<stop stop-color="#CCCCCC"/>
<stop offset="0.2204" stop-color="#999999"/>
<stop offset="0.7742" stop-color="#F2F2F2"/>
<stop offset="1" stop-color="#CCCCCC"/>
</linearGradient>
<linearGradient id="paint41_linear_29_17734" x1="265.907" y1="242.583" x2="258.581" y2="248.357" gradientUnits="userSpaceOnUse">
<stop stop-color="#808080"/>
<stop offset="1" stop-color="#CCCCCC"/>
</linearGradient>
<linearGradient id="paint42_linear_29_17734" x1="268.534" y1="245.916" x2="261.208" y2="251.69" gradientUnits="userSpaceOnUse">
<stop stop-color="#808080"/>
<stop offset="1" stop-color="#CCCCCC"/>
</linearGradient>
<linearGradient id="paint43_linear_29_17734" x1="273.641" y1="267.461" x2="280.96" y2="261.692" gradientUnits="userSpaceOnUse">
<stop stop-color="#CCCCCC"/>
<stop offset="0.2204" stop-color="#999999"/>
<stop offset="0.7742" stop-color="#F2F2F2"/>
<stop offset="1" stop-color="#CCCCCC"/>
</linearGradient>
<linearGradient id="paint44_linear_29_17734" x1="282.255" y1="263.5" x2="275.132" y2="269.114" gradientUnits="userSpaceOnUse">
<stop stop-color="#808080"/>
<stop offset="1" stop-color="#CCCCCC"/>
</linearGradient>
<linearGradient id="paint45_linear_29_17734" x1="279.124" y1="260.313" x2="270.698" y2="266.954" gradientUnits="userSpaceOnUse">
<stop stop-color="#808080"/>
<stop offset="1" stop-color="#CCCCCC"/>
</linearGradient>
<radialGradient id="paint46_radial_29_17734" cx="0" cy="0" r="1" gradientUnits="userSpaceOnUse" gradientTransform="translate(304.723 291.706) rotate(-122.486) scale(118.645 18.7244)">
<stop offset="0.00537634" stop-color="#0F6680"/>
<stop offset="0.1584" stop-color="#4A8B9F"/>
<stop offset="0.3202" stop-color="#80AEBC"/>
<stop offset="0.4783" stop-color="#AECBD4"/>
<stop offset="0.6288" stop-color="#D1E2E7"/>
<stop offset="0.7697" stop-color="#EAF2F4"/>
<stop offset="0.8973" stop-color="#FAFCFC"/>
<stop offset="1" stop-color="white"/>
</radialGradient>
<linearGradient id="paint47_linear_29_17734" x1="240.192" y1="179.734" x2="260.082" y2="217.439" gradientUnits="userSpaceOnUse">
<stop stop-color="#D56416"/>
<stop offset="1" stop-color="#AD371F"/>
</linearGradient>
<linearGradient id="paint48_linear_29_17734" x1="256.036" y1="216.975" x2="242.894" y2="197.975" gradientUnits="userSpaceOnUse">
<stop stop-color="#B43F1D"/>
<stop offset="0.2069" stop-color="#B7441D"/>
<stop offset="0.4492" stop-color="#BF521F"/>
<stop offset="0.7091" stop-color="#CC6A21"/>
<stop offset="0.98" stop-color="#DE8A24"/>
<stop offset="1" stop-color="#E08D24"/>
</linearGradient>
<linearGradient id="paint49_linear_29_17734" x1="260.038" y1="222.241" x2="244.263" y2="194.198" gradientUnits="userSpaceOnUse">
<stop stop-color="#B43F1D"/>
<stop offset="0.2069" stop-color="#B7441D"/>
<stop offset="0.4492" stop-color="#BF521F"/>
<stop offset="0.7091" stop-color="#CC6A21"/>
<stop offset="0.98" stop-color="#DE8A24"/>
<stop offset="1" stop-color="#E08D24"/>
</linearGradient>
<linearGradient id="paint50_linear_29_17734" x1="261.156" y1="221.612" x2="245.381" y2="193.569" gradientUnits="userSpaceOnUse">
<stop offset="0.00537634" stop-color="#B43F1D"/>
<stop offset="0.2111" stop-color="#B7441D"/>
<stop offset="0.4521" stop-color="#BF521F"/>
<stop offset="0.7107" stop-color="#CC6A21"/>
<stop offset="0.9801" stop-color="#DE8A24"/>
<stop offset="1" stop-color="#E08D24"/>
</linearGradient>
<linearGradient id="paint51_linear_29_17734" x1="266.319" y1="218.707" x2="250.544" y2="190.664" gradientUnits="userSpaceOnUse">
<stop stop-color="#B43F1D"/>
<stop offset="0.2069" stop-color="#B7441D"/>
<stop offset="0.4492" stop-color="#BF521F"/>
<stop offset="0.7091" stop-color="#CC6A21"/>
<stop offset="0.98" stop-color="#DE8A24"/>
<stop offset="1" stop-color="#E08D24"/>
</linearGradient>
<linearGradient id="paint52_linear_29_17734" x1="265.354" y1="219.25" x2="249.579" y2="191.207" gradientUnits="userSpaceOnUse">
<stop stop-color="#B43F1D"/>
<stop offset="0.2069" stop-color="#B7441D"/>
<stop offset="0.4492" stop-color="#BF521F"/>
<stop offset="0.7091" stop-color="#CC6A21"/>
<stop offset="0.98" stop-color="#DE8A24"/>
<stop offset="1" stop-color="#E08D24"/>
</linearGradient>
<linearGradient id="paint53_linear_29_17734" x1="264.118" y1="219.945" x2="248.343" y2="191.902" gradientUnits="userSpaceOnUse">
<stop stop-color="#B43F1D"/>
<stop offset="0.2069" stop-color="#B7441D"/>
<stop offset="0.4492" stop-color="#BF521F"/>
<stop offset="0.7091" stop-color="#CC6A21"/>
<stop offset="0.98" stop-color="#DE8A24"/>
<stop offset="1" stop-color="#E08D24"/>
</linearGradient>
<linearGradient id="paint54_linear_29_17734" x1="262.867" y1="220.649" x2="247.092" y2="192.607" gradientUnits="userSpaceOnUse">
<stop stop-color="#B43F1D"/>
<stop offset="0.2069" stop-color="#B7441D"/>
<stop offset="0.4492" stop-color="#BF521F"/>
<stop offset="0.7091" stop-color="#CC6A21"/>
<stop offset="0.98" stop-color="#DE8A24"/>
<stop offset="1" stop-color="#E08D24"/>
</linearGradient>
<linearGradient id="paint55_linear_29_17734" x1="267.151" y1="218.239" x2="251.376" y2="190.196" gradientUnits="userSpaceOnUse">
<stop stop-color="#B43F1D"/>
<stop offset="0.2069" stop-color="#B7441D"/>
<stop offset="0.4492" stop-color="#BF521F"/>
<stop offset="0.7091" stop-color="#CC6A21"/>
<stop offset="0.98" stop-color="#DE8A24"/>
<stop offset="1" stop-color="#E08D24"/>
</linearGradient>
<linearGradient id="paint56_linear_29_17734" x1="303.758" y1="355.944" x2="319.982" y2="240.551" gradientUnits="userSpaceOnUse">
<stop stop-color="#FF0000"/>
<stop offset="1" stop-color="#C1272D"/>
</linearGradient>
<linearGradient id="paint57_linear_29_17734" x1="270.47" y1="223.265" x2="262.883" y2="228.031" gradientUnits="userSpaceOnUse">
<stop stop-color="#CCCCCC"/>
<stop offset="0.2204" stop-color="#999999"/>
<stop offset="0.7742" stop-color="#F2F2F2"/>
<stop offset="1" stop-color="#CCCCCC"/>
</linearGradient>
<linearGradient id="paint58_linear_29_17734" x1="265.19" y1="214.513" x2="257.291" y2="219.476" gradientUnits="userSpaceOnUse">
<stop stop-color="#CCCCCC"/>
<stop offset="0.2204" stop-color="#999999"/>
<stop offset="0.7742" stop-color="#F2F2F2"/>
<stop offset="1" stop-color="#CCCCCC"/>
</linearGradient>
<linearGradient id="paint59_linear_29_17734" x1="264.062" y1="212.717" x2="256.162" y2="217.679" gradientUnits="userSpaceOnUse">
<stop stop-color="#808080"/>
<stop offset="1" stop-color="#CCCCCC"/>
</linearGradient>
<linearGradient id="paint60_linear_29_17734" x1="266.319" y1="216.311" x2="258.42" y2="221.273" gradientUnits="userSpaceOnUse">
<stop stop-color="#808080"/>
<stop offset="1" stop-color="#CCCCCC"/>
</linearGradient>
<linearGradient id="paint61_linear_29_17734" x1="269.107" y1="238.275" x2="276.998" y2="233.318" gradientUnits="userSpaceOnUse">
<stop stop-color="#CCCCCC"/>
<stop offset="0.2204" stop-color="#999999"/>
<stop offset="0.7742" stop-color="#F2F2F2"/>
<stop offset="1" stop-color="#CCCCCC"/>
</linearGradient>
<linearGradient id="paint62_linear_29_17734" x1="278.093" y1="235.253" x2="270.413" y2="240.077" gradientUnits="userSpaceOnUse">
<stop stop-color="#808080"/>
<stop offset="1" stop-color="#CCCCCC"/>
</linearGradient>
<linearGradient id="paint63_linear_29_17734" x1="275.318" y1="231.751" x2="266.234" y2="237.457" gradientUnits="userSpaceOnUse">
<stop stop-color="#808080"/>
<stop offset="1" stop-color="#CCCCCC"/>
</linearGradient>
<radialGradient id="paint64_radial_29_17734" cx="0" cy="0" r="1" gradientUnits="userSpaceOnUse" gradientTransform="translate(349.004 296.68) rotate(-120.559) scale(75.9868 10.2331)">
<stop offset="0.00537634" stop-color="#0F6680"/>
<stop offset="0.1584" stop-color="#4A8B9F"/>
<stop offset="0.3202" stop-color="#80AEBC"/>
<stop offset="0.4783" stop-color="#AECBD4"/>
<stop offset="0.6288" stop-color="#D1E2E7"/>
<stop offset="0.7697" stop-color="#EAF2F4"/>
<stop offset="0.8973" stop-color="#FAFCFC"/>
<stop offset="1" stop-color="white"/>
</radialGradient>
<linearGradient id="paint65_linear_29_17734" x1="322.947" y1="247.542" x2="330.356" y2="243.569" gradientUnits="userSpaceOnUse">
<stop stop-color="#FBD291"/>
<stop offset="0.5054" stop-color="#FBE6B1"/>
<stop offset="1" stop-color="#F0D38B"/>
</linearGradient>
<linearGradient id="paint66_linear_29_17734" x1="322.678" y1="242.395" x2="325.956" y2="240.636" gradientUnits="userSpaceOnUse">
<stop stop-color="#51971D"/>
<stop offset="0.5161" stop-color="#68D642"/>
<stop offset="1" stop-color="#50AF25"/>
</linearGradient>
<linearGradient id="paint67_linear_29_17734" x1="349.995" y1="298.027" x2="357.419" y2="294.044" gradientUnits="userSpaceOnUse">
<stop stop-color="#4BAE23"/>
<stop offset="0.1073" stop-color="#4DB129"/>
<stop offset="0.1667" stop-color="#50B52F"/>
<stop offset="0.2186" stop-color="#56BF2C"/>
<stop offset="0.2473" stop-color="#5AC729"/>
<stop offset="0.7151" stop-color="#5CBE29"/>
<stop offset="0.8065" stop-color="#3CBB2C"/>
<stop offset="1" stop-color="#3FAC36"/>
</linearGradient>
<linearGradient id="paint68_linear_29_17734" x1="352.133" y1="296.866" x2="355.105" y2="295.272" gradientUnits="userSpaceOnUse">
<stop stop-color="#51C31D"/>
<stop offset="0.5161" stop-color="#68D642"/>
<stop offset="1" stop-color="#50D225"/>
</linearGradient>
<radialGradient id="paint69_radial_29_17734" cx="0" cy="0" r="1" gradientUnits="userSpaceOnUse" gradientTransform="translate(351.436 319.018) rotate(-112.36) scale(75.9974 10.2316)">
<stop offset="0.00537634" stop-color="#0F6680"/>
<stop offset="0.1584" stop-color="#4A8B9F"/>
<stop offset="0.3202" stop-color="#80AEBC"/>
<stop offset="0.4783" stop-color="#AECBD4"/>
<stop offset="0.6288" stop-color="#D1E2E7"/>
<stop offset="0.7697" stop-color="#EAF2F4"/>
<stop offset="0.8973" stop-color="#FAFCFC"/>
<stop offset="1" stop-color="white"/>
</radialGradient>
<linearGradient id="paint70_linear_29_17734" x1="331.916" y1="270.56" x2="339.78" y2="267.587" gradientUnits="userSpaceOnUse">
<stop stop-color="#FBD291"/>
<stop offset="0.5054" stop-color="#FBE6B1"/>
<stop offset="1" stop-color="#F0D38B"/>
</linearGradient>
<linearGradient id="paint71_linear_29_17734" x1="332.322" y1="265.42" x2="335.802" y2="264.105" gradientUnits="userSpaceOnUse">
<stop stop-color="#FB7E3B"/>
<stop offset="0.5161" stop-color="#F7A01E"/>
<stop offset="1" stop-color="#FB683B"/>
</linearGradient>
<linearGradient id="paint72_linear_29_17734" x1="352.146" y1="324.141" x2="360.026" y2="321.162" gradientUnits="userSpaceOnUse">
<stop stop-color="#EB7000"/>
<stop offset="0.0658385" stop-color="#EE7602"/>
<stop offset="0.1537" stop-color="#F68708"/>
<stop offset="0.1667" stop-color="#F78A09"/>
<stop offset="0.1929" stop-color="#F89413"/>
<stop offset="0.2376" stop-color="#FAAD2E"/>
<stop offset="0.2527" stop-color="#FBB739"/>
<stop offset="0.7151" stop-color="#FBB43B"/>
<stop offset="0.8065" stop-color="#F7961E"/>
<stop offset="1" stop-color="#ED7D08"/>
</linearGradient>
<linearGradient id="paint73_linear_29_17734" x1="354.418" y1="323.27" x2="357.571" y2="322.077" gradientUnits="userSpaceOnUse">
<stop stop-color="#FBB03B"/>
<stop offset="0.5161" stop-color="#F7A01E"/>
<stop offset="1" stop-color="#FBB03B"/>
</linearGradient>
<radialGradient id="paint74_radial_29_17734" cx="0" cy="0" r="1" gradientUnits="userSpaceOnUse" gradientTransform="translate(365.294 331.221) rotate(-106.418) scale(75.994 10.2321)">
<stop offset="0.00537634" stop-color="#0F6680"/>
<stop offset="0.1584" stop-color="#4A8B9F"/>
<stop offset="0.3202" stop-color="#80AEBC"/>
<stop offset="0.4783" stop-color="#AECBD4"/>
<stop offset="0.6288" stop-color="#D1E2E7"/>
<stop offset="0.7697" stop-color="#EAF2F4"/>
<stop offset="0.8973" stop-color="#FAFCFC"/>
<stop offset="1" stop-color="white"/>
</radialGradient>
<linearGradient id="paint75_linear_29_17734" x1="351.397" y1="279.269" x2="359.529" y2="277.137" gradientUnits="userSpaceOnUse">
<stop stop-color="#FBD291"/>
<stop offset="0.5054" stop-color="#FBE6B1"/>
<stop offset="1" stop-color="#F0D38B"/>
</linearGradient>
<linearGradient id="paint76_linear_29_17734" x1="352.338" y1="274.201" x2="355.937" y2="273.257" gradientUnits="userSpaceOnUse">
<stop stop-color="#B62D62"/>
<stop offset="0.5215" stop-color="#ED357D"/>
<stop offset="1" stop-color="#B31769"/>
</linearGradient>
<linearGradient id="paint77_linear_29_17734" x1="365.899" y1="334.676" x2="374.045" y2="332.54" gradientUnits="userSpaceOnUse">
<stop stop-color="#CA1449"/>
<stop offset="0.1509" stop-color="#C80E4F"/>
<stop offset="0.1667" stop-color="#C80D50"/>
<stop offset="0.1962" stop-color="#D11759"/>
<stop offset="0.2467" stop-color="#EA3270"/>
<stop offset="0.2527" stop-color="#ED3673"/>
<stop offset="0.7151" stop-color="#E61C6D"/>
<stop offset="0.8065" stop-color="#B4145A"/>
<stop offset="1" stop-color="#AA1450"/>
</linearGradient>
<linearGradient id="paint78_linear_29_17734" x1="368.249" y1="334.047" x2="371.508" y2="333.193" gradientUnits="userSpaceOnUse">
<stop stop-color="#F23562"/>
<stop offset="0.5215" stop-color="#ED357D"/>
<stop offset="1" stop-color="#DF1769"/>
</linearGradient>
<radialGradient id="paint79_radial_29_17734" cx="0" cy="0" r="1" gradientUnits="userSpaceOnUse" gradientTransform="translate(237.518 285.084) rotate(65.189) scale(70.8137 15.4806)">
<stop offset="0.00537634" stop-color="#0F6680"/>
<stop offset="0.1584" stop-color="#4A8B9F"/>
<stop offset="0.3202" stop-color="#80AEBC"/>
<stop offset="0.4783" stop-color="#AECBD4"/>
<stop offset="0.6288" stop-color="#D1E2E7"/>
<stop offset="0.7697" stop-color="#EAF2F4"/>
<stop offset="0.8973" stop-color="#FAFCFC"/>
<stop offset="1" stop-color="white"/>
</radialGradient>
<linearGradient id="paint80_linear_29_17734" x1="212.963" y1="234.779" x2="203.593" y2="239.063" gradientUnits="userSpaceOnUse">
<stop stop-color="#15709C"/>
<stop offset="0.2204" stop-color="#2686C6"/>
<stop offset="0.7742" stop-color="#26A9C6"/>
<stop offset="1" stop-color="#006DAD"/>
</linearGradient>
<linearGradient id="paint81_linear_29_17734" x1="238.44" y1="290.275" x2="229.234" y2="294.484" gradientUnits="userSpaceOnUse">
<stop stop-color="#15709C"/>
<stop offset="0.2204" stop-color="#2686C6"/>
<stop offset="0.7742" stop-color="#26A9C6"/>
<stop offset="1" stop-color="#006DAD"/>
</linearGradient>
<linearGradient id="paint82_linear_29_17734" x1="233.234" y1="278.855" x2="224.019" y2="283.069" gradientUnits="userSpaceOnUse">
<stop stop-color="#CCCCCC"/>
<stop offset="0.2204" stop-color="#999999"/>
<stop offset="0.7742" stop-color="#F2F2F2"/>
<stop offset="1" stop-color="#CCCCCC"/>
</linearGradient>
<linearGradient id="paint83_linear_29_17734" x1="245.929" y1="306.623" x2="236.713" y2="310.837" gradientUnits="userSpaceOnUse">
<stop stop-color="#4D4D4D"/>
<stop offset="0.2204" stop-color="#1A1A1A"/>
<stop offset="0.7742" stop-color="#B3B3B3"/>
<stop offset="0.9624" stop-color="#494949"/>
<stop offset="1" stop-color="#333333"/>
</linearGradient>
<linearGradient id="paint84_linear_29_17734" x1="231.69" y1="275.519" x2="222.507" y2="279.718" gradientUnits="userSpaceOnUse">
<stop stop-color="#CCCCCC"/>
<stop offset="0.2204" stop-color="#999999"/>
<stop offset="0.7742" stop-color="#F2F2F2"/>
<stop offset="1" stop-color="#CCCCCC"/>
</linearGradient>
<linearGradient id="paint85_linear_29_17734" x1="212.885" y1="234.609" x2="203.686" y2="238.815" gradientUnits="userSpaceOnUse">
<stop stop-color="#CCCCCC"/>
<stop offset="0.2204" stop-color="#999999"/>
<stop offset="0.7742" stop-color="#F2F2F2"/>
<stop offset="1" stop-color="#CCCCCC"/>
</linearGradient>
<linearGradient id="paint86_linear_29_17734" x1="251.195" y1="340.825" x2="259.309" y2="337.115" gradientUnits="userSpaceOnUse">
<stop stop-color="#CCCCCC"/>
<stop offset="0.2204" stop-color="#999999"/>
<stop offset="0.7742" stop-color="#F2F2F2"/>
<stop offset="1" stop-color="#CCCCCC"/>
</linearGradient>
<linearGradient id="paint87_linear_29_17734" x1="346.516" y1="353.768" x2="410.621" y2="610.635" gradientUnits="userSpaceOnUse">
<stop stop-color="#FFE94D"/>
<stop offset="1" stop-color="#C85815"/>
</linearGradient>
<linearGradient id="paint88_linear_29_17734" x1="335.645" y1="311.141" x2="351.993" y2="376.649" gradientUnits="userSpaceOnUse">
<stop offset="0.00537634" stop-color="#9C7B71"/>
<stop offset="0.7464" stop-color="#D3CAC7"/>
<stop offset="1" stop-color="#E6E6E6"/>
</linearGradient>
<linearGradient id="paint89_linear_29_17734" x1="327.193" y1="277.367" x2="362.237" y2="417.789" gradientUnits="userSpaceOnUse">
<stop offset="0.00537634" stop-color="#9C7B71"/>
<stop offset="0.9946" stop-color="#271A1D"/>
</linearGradient>
<linearGradient id="paint90_linear_29_17734" x1="135.504" y1="447.246" x2="209.875" y2="654.429" gradientUnits="userSpaceOnUse">
<stop stop-color="#F6C250"/>
<stop offset="1" stop-color="#E26D2D"/>
</linearGradient>
<linearGradient id="paint91_linear_29_17734" x1="141.29" y1="505.916" x2="102.787" y2="498.754" gradientUnits="userSpaceOnUse">
<stop/>
<stop offset="1" stop-color="#333333"/>
</linearGradient>
</defs>
</svg>
