<svg width="123" height="122" viewBox="0 0 123 122" fill="none" xmlns="http://www.w3.org/2000/svg">
<path d="M22.6999 6.15889C20.2588 3.18346 16.1791 2.46282 13.6372 4.58006C11.0954 6.6973 11.0442 10.8003 13.4853 13.7757C15.9264 16.7511 20.0061 17.4718 22.5479 15.3545C25.0898 13.2373 25.141 9.13432 22.6999 6.15889Z" fill="url(#paint0_linear_29_18078)"/>
<path d="M98.4626 98.5423L22.8219 6.79825L13.7802 14.239L89.421 105.983C89.421 105.983 106.62 119.652 107.805 118.682C108.96 117.741 98.4626 98.5423 98.4626 98.5423Z" fill="url(#paint1_linear_29_18078)"/>
<path d="M56.5253 47.7018L47.4548 55.1719L50.8659 59.2735L59.9364 51.8035L56.5253 47.7018Z" fill="url(#paint2_linear_29_18078)"/>
<path d="M72.1414 66.6224L63.1003 74.1213L80.2755 94.9777L89.346 87.5076L72.1414 66.6224Z" fill="url(#paint3_linear_29_18078)"/>
<path d="M55.0548 45.9108L46.0132 53.3515L46.925 54.4782L55.9667 47.0375L55.0548 45.9108Z" fill="url(#paint4_linear_29_18078)"/>
<path d="M21.6443 5.23724L12.632 12.7068L14.0732 14.469L23.1149 7.02826L21.6443 5.23724Z" fill="url(#paint5_linear_29_18078)"/>
<path d="M36.799 44.5691L36.0371 45.1973L11.7997 15.8001L12.5616 15.1719L36.799 44.5691Z" fill="#268DC6"/>
<path d="M15.6564 15.5377L13.2119 17.5532L11.6938 15.7119L14.1383 13.6964L15.6564 15.5377Z" fill="#268DC6"/>
<path d="M37.3221 44.2562L35.9888 45.3555L34.3921 43.419L35.7255 42.3197L37.3221 44.2562Z" fill="#268DC6"/>
<path d="M98.4628 98.5421L89.4211 105.983C89.4211 105.983 101.141 115.307 105.879 118C106.873 118.573 107.574 118.858 107.805 118.682C108.007 118.534 107.826 117.78 107.467 116.677C105.59 111.602 98.4628 98.5421 98.4628 98.5421Z" fill="url(#paint6_linear_29_18078)"/>
<path d="M107.438 116.706C106.922 117.526 106.343 117.88 105.85 118.03C106.844 118.603 107.545 118.888 107.776 118.711C108.007 118.534 107.856 117.808 107.438 116.706Z" fill="#333333"/>
<defs>
<linearGradient id="paint0_linear_29_18078" x1="13.4821" y1="13.7498" x2="22.6986" y2="6.15247" gradientUnits="userSpaceOnUse">
<stop stop-color="#15709C"/>
<stop offset="0.2204" stop-color="#2686C6"/>
<stop offset="0.7742" stop-color="#26A9C6"/>
<stop offset="1" stop-color="#006DAD"/>
</linearGradient>
<linearGradient id="paint1_linear_29_18078" x1="58.4292" y1="68.4476" x2="67.4847" y2="60.9831" gradientUnits="userSpaceOnUse">
<stop stop-color="#15709C"/>
<stop offset="0.2204" stop-color="#2686C6"/>
<stop offset="0.7742" stop-color="#26A9C6"/>
<stop offset="1" stop-color="#006DAD"/>
</linearGradient>
<linearGradient id="paint2_linear_29_18078" x1="49.1618" y1="57.2309" x2="58.2268" y2="49.7586" gradientUnits="userSpaceOnUse">
<stop stop-color="#CCCCCC"/>
<stop offset="0.2204" stop-color="#999999"/>
<stop offset="0.7742" stop-color="#F2F2F2"/>
<stop offset="1" stop-color="#CCCCCC"/>
</linearGradient>
<linearGradient id="paint3_linear_29_18078" x1="71.6787" y1="84.5441" x2="80.7448" y2="77.0708" gradientUnits="userSpaceOnUse">
<stop stop-color="#4D4D4D"/>
<stop offset="0.2204" stop-color="#1A1A1A"/>
<stop offset="0.7742" stop-color="#B3B3B3"/>
<stop offset="0.9624" stop-color="#494949"/>
<stop offset="1" stop-color="#333333"/>
</linearGradient>
<linearGradient id="paint4_linear_29_18078" x1="46.4666" y1="53.9294" x2="55.4999" y2="46.4832" gradientUnits="userSpaceOnUse">
<stop stop-color="#CCCCCC"/>
<stop offset="0.2204" stop-color="#999999"/>
<stop offset="0.7742" stop-color="#F2F2F2"/>
<stop offset="1" stop-color="#CCCCCC"/>
</linearGradient>
<linearGradient id="paint5_linear_29_18078" x1="13.3438" y1="13.5824" x2="22.3928" y2="6.12314" gradientUnits="userSpaceOnUse">
<stop stop-color="#CCCCCC"/>
<stop offset="0.2204" stop-color="#999999"/>
<stop offset="0.7742" stop-color="#F2F2F2"/>
<stop offset="1" stop-color="#CCCCCC"/>
</linearGradient>
<linearGradient id="paint6_linear_29_18078" x1="104.67" y1="107.374" x2="96.6887" y2="113.953" gradientUnits="userSpaceOnUse">
<stop stop-color="#CCCCCC"/>
<stop offset="0.2204" stop-color="#999999"/>
<stop offset="0.7742" stop-color="#F2F2F2"/>
<stop offset="1" stop-color="#CCCCCC"/>
</linearGradient>
</defs>
</svg>
