<svg width="247" height="235" viewBox="0 0 247 235" fill="none" xmlns="http://www.w3.org/2000/svg">
<path d="M77.3357 7.00552L199.403 209.245L169.672 227.217L47.5785 24.9549L77.3357 7.00552Z" fill="url(#paint0_linear_29_18091)"/>
<path d="M77.3357 7.00552L199.403 209.245L169.672 227.217L47.5785 24.9549L77.3357 7.00552Z" fill="url(#paint1_linear_29_18091)"/>
<path d="M77.3357 7.00552L199.403 209.245L169.672 227.217L47.5785 24.9549L77.3357 7.00552Z" fill="url(#paint2_linear_29_18091)"/>
<path d="M145.673 184.226C145.479 183.919 145.311 183.635 145.114 183.279C147.716 181.717 150.27 180.159 152.872 178.597C153.066 178.904 153.234 179.188 153.431 179.544C150.829 181.106 148.298 182.638 145.673 184.226Z" fill="black"/>
<path d="M127.833 144.38C127.998 144.615 128.109 144.804 128.225 145.042C126.687 145.963 125.198 146.88 123.66 147.801C123.522 147.589 123.383 147.377 123.268 147.138C124.806 146.218 126.295 145.3 127.833 144.38Z" fill="black"/>
<path d="M132.236 151.665C132.4 151.9 132.512 152.089 132.627 152.328C131.089 153.248 129.6 154.165 128.062 155.086C127.924 154.874 127.786 154.662 127.671 154.423C129.186 153.529 130.675 152.612 132.236 151.665Z" fill="black"/>
<path d="M130.76 149.229C130.924 149.464 131.036 149.653 131.151 149.892C129.613 150.812 128.124 151.73 126.586 152.65C126.448 152.438 126.31 152.226 126.195 151.987C127.707 151.044 129.222 150.149 130.76 149.229Z" fill="black"/>
<path d="M129.283 146.793C129.448 147.028 129.56 147.217 129.675 147.456C128.137 148.376 126.648 149.294 125.11 150.214C124.972 150.002 124.834 149.79 124.718 149.551C126.256 148.631 127.745 147.713 129.283 146.793Z" fill="black"/>
<path d="M135.133 156.442C135.297 156.677 135.409 156.866 135.524 157.105C133.986 158.025 132.497 158.943 130.959 159.863C130.821 159.651 130.683 159.439 130.568 159.2C132.057 158.283 133.572 157.389 135.133 156.442Z" fill="black"/>
<path d="M133.656 154.006C133.821 154.241 133.933 154.43 134.048 154.669C132.51 155.589 131.021 156.507 129.483 157.427C129.345 157.215 129.207 157.003 129.091 156.765C130.58 155.847 132.096 154.953 133.656 154.006Z" fill="black"/>
<path d="M133.656 154.006C133.821 154.241 133.933 154.43 134.048 154.669C132.51 155.589 131.021 156.507 129.483 157.427C129.345 157.215 129.207 157.003 129.091 156.765C130.58 155.847 132.096 154.953 133.656 154.006Z" fill="black"/>
<path d="M139.513 163.753C139.677 163.988 139.789 164.178 139.904 164.416C138.366 165.337 136.877 166.254 135.339 167.175C135.201 166.962 135.063 166.75 134.948 166.512C136.486 165.591 137.975 164.674 139.513 163.753Z" fill="black"/>
<path d="M141.015 166.212C141.179 166.447 141.291 166.636 141.406 166.875C139.868 167.795 138.379 168.713 136.841 169.633C136.703 169.421 136.565 169.209 136.45 168.97C137.965 168.076 139.454 167.159 141.015 166.212Z" fill="black"/>
<path d="M139.287 160.515C139.451 160.75 139.563 160.939 139.678 161.178C137.738 162.348 135.799 163.519 133.859 164.69C133.721 164.477 133.583 164.265 133.468 164.027C135.407 162.856 137.324 161.712 139.287 160.515Z" fill="black"/>
<path d="M136.583 158.855C136.747 159.09 136.859 159.279 136.974 159.518C135.436 160.439 133.947 161.356 132.409 162.277C132.271 162.064 132.133 161.852 132.018 161.614C133.533 160.719 135.022 159.802 136.583 158.855Z" fill="black"/>
<path d="M142.465 168.625C142.629 168.86 142.741 169.049 142.856 169.288C141.318 170.208 139.83 171.126 138.292 172.046C138.153 171.834 138.015 171.622 137.9 171.384C139.412 170.44 140.927 169.546 142.465 168.625Z" fill="black"/>
<path d="M146.868 175.91C147.032 176.145 147.144 176.334 147.259 176.573C145.721 177.493 144.232 178.411 142.694 179.331C142.556 179.119 142.418 178.907 142.303 178.668C143.841 177.748 145.33 176.831 146.868 175.91Z" fill="black"/>
<path d="M148.288 178.251C148.452 178.486 148.564 178.676 148.68 178.914C147.141 179.835 145.653 180.752 144.115 181.673C143.976 181.46 143.838 181.248 143.723 181.01C145.238 180.115 146.727 179.198 148.288 178.251Z" fill="black"/>
<path d="M145.391 173.474C145.556 173.709 145.668 173.898 145.783 174.137C144.245 175.058 142.756 175.975 141.218 176.896C141.08 176.683 140.942 176.471 140.826 176.233C142.338 175.289 143.853 174.395 145.391 173.474Z" fill="black"/>
<path d="M143.915 171.038C144.08 171.273 144.191 171.462 144.307 171.701C142.769 172.622 141.28 173.539 139.742 174.46C139.604 174.247 139.466 174.035 139.35 173.797C140.888 172.876 142.377 171.959 143.915 171.038Z" fill="black"/>
<path d="M169.114 223.09C168.92 222.784 168.752 222.499 168.554 222.143C171.157 220.582 173.71 219.023 176.313 217.461C176.507 217.768 176.675 218.052 176.872 218.408C174.292 219.944 171.739 221.502 169.114 223.09Z" fill="black"/>
<path d="M151.297 183.218C151.461 183.453 151.573 183.642 151.688 183.881C150.15 184.801 148.661 185.719 147.123 186.639C146.985 186.427 146.847 186.215 146.732 185.976C148.221 185.059 149.736 184.165 151.297 183.218Z" fill="black"/>
<path d="M155.699 190.503C155.864 190.738 155.976 190.927 156.091 191.166C154.553 192.086 153.064 193.004 151.526 193.924C151.388 193.712 151.25 193.5 151.134 193.261C152.623 192.344 154.139 191.45 155.699 190.503Z" fill="black"/>
<path d="M154.197 188.044C154.361 188.279 154.473 188.469 154.588 188.707C153.05 189.628 151.561 190.545 150.023 191.466C149.885 191.253 149.747 191.041 149.632 190.803C151.147 189.908 152.636 188.991 154.197 188.044Z" fill="black"/>
<path d="M152.747 185.631C152.911 185.866 153.023 186.055 153.138 186.294C151.6 187.215 150.111 188.132 148.573 189.052C148.435 188.84 148.297 188.628 148.182 188.39C149.697 187.495 151.186 186.578 152.747 185.631Z" fill="black"/>
<path d="M158.547 195.283C158.711 195.518 158.823 195.708 158.938 195.946C157.4 196.867 155.911 197.784 154.373 198.705C154.235 198.493 154.097 198.281 153.982 198.042C155.52 197.121 157.009 196.204 158.547 195.283Z" fill="black"/>
<path d="M157.094 192.821C157.258 193.056 157.37 193.246 157.485 193.484C155.947 194.405 154.458 195.322 152.92 196.243C152.782 196.031 152.644 195.818 152.529 195.58C154.044 194.685 155.533 193.768 157.094 192.821Z" fill="black"/>
<path d="M157.094 192.821C157.258 193.056 157.37 193.246 157.485 193.484C155.947 194.405 154.458 195.322 152.92 196.243C152.782 196.031 152.644 195.818 152.529 195.58C154.044 194.685 155.533 193.768 157.094 192.821Z" fill="black"/>
<path d="M162.976 202.591C163.14 202.826 163.252 203.016 163.367 203.254C161.829 204.175 160.34 205.092 158.802 206.013C158.664 205.801 158.526 205.588 158.411 205.35C159.923 204.406 161.438 203.512 162.976 202.591Z" fill="black"/>
<path d="M164.478 205.05C164.643 205.285 164.755 205.474 164.87 205.713C163.332 206.633 161.843 207.551 160.305 208.471C160.167 208.259 160.029 208.047 159.914 207.808C161.402 206.891 162.918 205.997 164.478 205.05Z" fill="black"/>
<path d="M162.75 199.353C162.914 199.588 163.026 199.778 163.141 200.016C161.202 201.187 159.262 202.357 157.323 203.528C157.184 203.316 157.046 203.103 156.931 202.865C158.871 201.694 160.788 200.55 162.75 199.353Z" fill="black"/>
<path d="M160.023 197.719C160.188 197.954 160.299 198.144 160.415 198.382C158.877 199.303 157.388 200.22 155.85 201.141C155.712 200.929 155.574 200.716 155.458 200.478C156.97 199.534 158.485 198.64 160.023 197.719Z" fill="black"/>
<path d="M165.902 207.44C166.067 207.675 166.178 207.865 166.294 208.103C164.756 209.024 163.267 209.941 161.729 210.862C161.591 210.65 161.453 210.437 161.337 210.199C162.875 209.278 164.368 208.41 165.902 207.44Z" fill="black"/>
<path d="M170.331 214.748C170.495 214.983 170.607 215.172 170.722 215.411C169.184 216.332 167.696 217.249 166.158 218.17C166.019 217.957 165.881 217.745 165.766 217.507C167.255 216.589 168.77 215.695 170.331 214.748Z" fill="black"/>
<path d="M171.752 217.089C171.916 217.324 172.028 217.514 172.143 217.752C170.605 218.673 169.116 219.59 167.578 220.511C167.44 220.299 167.302 220.086 167.187 219.848C168.676 218.931 170.191 218.036 171.752 217.089Z" fill="black"/>
<path d="M168.829 212.289C168.993 212.524 169.105 212.714 169.22 212.952C167.682 213.873 166.193 214.79 164.655 215.711C164.517 215.499 164.379 215.286 164.264 215.048C165.802 214.127 167.291 213.21 168.829 212.289Z" fill="black"/>
<path d="M167.379 209.876C167.543 210.111 167.655 210.301 167.77 210.539C166.232 211.46 164.743 212.377 163.205 213.298C163.067 213.086 162.929 212.873 162.814 212.635C164.352 211.714 165.818 210.823 167.379 209.876Z" fill="black"/>
<path d="M122.266 145.483C122.072 145.176 121.904 144.892 121.707 144.536C124.309 142.974 126.863 141.416 129.465 139.854C129.659 140.161 129.827 140.445 130.024 140.801C127.471 142.359 124.891 143.895 122.266 145.483Z" fill="black"/>
<path d="M104.427 105.637C104.591 105.872 104.703 106.061 104.818 106.3C103.28 107.22 101.791 108.137 100.253 109.058C100.115 108.846 99.9769 108.634 99.8617 108.395C101.4 107.475 102.889 106.557 104.427 105.637Z" fill="black"/>
<path d="M108.829 112.922C108.993 113.157 109.105 113.346 109.22 113.584C107.682 114.505 106.194 115.422 104.656 116.343C104.517 116.131 104.379 115.919 104.264 115.68C105.802 114.76 107.291 113.842 108.829 112.922Z" fill="black"/>
<path d="M107.376 110.459C107.54 110.694 107.652 110.884 107.767 111.122C106.229 112.043 104.74 112.96 103.202 113.881C103.064 113.669 102.926 113.456 102.811 113.218C104.3 112.301 105.815 111.406 107.376 110.459Z" fill="black"/>
<path d="M105.903 108.073C106.067 108.308 106.179 108.497 106.294 108.736C104.756 109.656 103.267 110.573 101.729 111.494C101.591 111.282 101.453 111.07 101.338 110.831C102.85 109.888 104.365 108.993 105.903 108.073Z" fill="black"/>
<path d="M111.726 117.699C111.89 117.934 112.002 118.123 112.117 118.362C110.579 119.282 109.09 120.199 107.552 121.12C107.414 120.908 107.276 120.696 107.161 120.457C108.673 119.514 110.188 118.619 111.726 117.699Z" fill="black"/>
<path d="M110.249 115.263C110.414 115.498 110.526 115.687 110.641 115.926C109.103 116.846 107.614 117.764 106.076 118.684C105.938 118.472 105.8 118.26 105.685 118.021C107.196 117.078 108.711 116.183 110.249 115.263Z" fill="black"/>
<path d="M110.249 115.263C110.414 115.498 110.526 115.687 110.641 115.926C109.103 116.846 107.614 117.764 106.076 118.684C105.938 118.472 105.8 118.26 105.685 118.021C107.196 117.078 108.711 116.183 110.249 115.263Z" fill="black"/>
<path d="M116.128 124.984C116.293 125.219 116.404 125.408 116.52 125.647C114.982 126.567 113.493 127.484 111.955 128.405C111.817 128.193 111.679 127.981 111.563 127.742C113.079 126.848 114.568 125.931 116.128 124.984Z" fill="black"/>
<path d="M117.608 127.469C117.772 127.704 117.884 127.893 117.999 128.132C116.461 129.052 114.972 129.969 113.434 130.89C113.296 130.678 113.158 130.466 113.043 130.227C114.581 129.307 116.096 128.412 117.608 127.469Z" fill="black"/>
<path d="M115.929 121.769C116.093 122.004 116.205 122.193 116.32 122.431C114.381 123.602 112.441 124.772 110.501 125.943C110.363 125.731 110.225 125.519 110.11 125.28C112.027 124.136 113.917 122.969 115.929 121.769Z" fill="black"/>
<path d="M113.176 120.112C113.34 120.347 113.452 120.536 113.567 120.775C112.029 121.695 110.54 122.613 109.002 123.533C108.864 123.321 108.726 123.109 108.611 122.87C110.149 121.95 111.638 121.033 113.176 120.112Z" fill="black"/>
<path d="M119.081 129.856C119.245 130.091 119.357 130.28 119.472 130.518C117.934 131.439 116.445 132.356 114.907 133.277C114.769 133.065 114.631 132.853 114.516 132.614C116.031 131.72 117.52 130.802 119.081 129.856Z" fill="black"/>
<path d="M123.461 137.167C123.625 137.402 123.737 137.591 123.852 137.83C122.314 138.75 120.825 139.668 119.287 140.588C119.149 140.376 119.011 140.164 118.896 139.925C120.434 139.005 121.923 138.087 123.461 137.167Z" fill="black"/>
<path d="M124.881 139.508C125.045 139.743 125.157 139.932 125.273 140.171C123.735 141.092 122.246 142.009 120.708 142.93C120.569 142.717 120.431 142.505 120.316 142.267C121.854 141.346 123.369 140.451 124.881 139.508Z" fill="black"/>
<path d="M122.007 134.705C122.172 134.94 122.283 135.129 122.399 135.367C120.861 136.288 119.372 137.205 117.834 138.126C117.696 137.914 117.558 137.702 117.442 137.463C118.931 136.546 120.446 135.652 122.007 134.705Z" fill="black"/>
<path d="M120.557 132.291C120.722 132.527 120.833 132.716 120.949 132.954C119.411 133.875 117.922 134.792 116.384 135.713C116.246 135.501 116.108 135.289 115.992 135.05C117.481 134.133 118.997 133.238 120.557 132.291Z" fill="black"/>
<path d="M98.8585 106.74C98.6646 106.433 98.4969 106.149 98.2995 105.793C100.902 104.231 103.455 102.672 106.058 101.11C106.252 101.417 106.42 101.701 106.617 102.057C104.064 103.616 101.484 105.151 98.8585 106.74Z" fill="black"/>
<path d="M81.042 66.8669C81.2062 67.1019 81.318 67.2913 81.4333 67.5298C79.8953 68.4505 78.4063 69.3677 76.8683 70.2884C76.7303 70.0762 76.5922 69.864 76.477 69.6255C77.9922 68.7311 79.4811 67.8138 81.042 66.8669Z" fill="black"/>
<path d="M85.4708 74.1747C85.6351 74.4097 85.7469 74.5992 85.8621 74.8376C84.3241 75.7583 82.8351 76.6756 81.2971 77.5962C81.1591 77.384 81.0211 77.1718 80.9058 76.9333C82.3948 76.0161 83.91 75.1216 85.4708 74.1747Z" fill="black"/>
<path d="M83.9682 71.716C84.1325 71.9511 84.2443 72.1405 84.3595 72.3789C82.8215 73.2996 81.3326 74.2169 79.7946 75.1376C79.6565 74.9253 79.5185 74.7131 79.4033 74.4747C80.9413 73.554 82.4074 72.663 83.9682 71.716Z" fill="black"/>
<path d="M82.5183 69.3029C82.6826 69.538 82.7943 69.7274 82.9096 69.9658C81.3716 70.8865 79.8826 71.8038 78.3446 72.7245C78.2066 72.5122 78.0686 72.3 77.9533 72.0615C79.4423 71.1443 80.9575 70.2498 82.5183 69.3029Z" fill="black"/>
<path d="M88.3183 78.9554C88.4826 79.1904 88.5944 79.3798 88.7096 79.6183C87.1716 80.539 85.6827 81.4562 84.1447 82.3769C84.0066 82.1647 83.8686 81.9524 83.7534 81.714C85.2914 80.7933 86.7803 79.876 88.3183 78.9554Z" fill="black"/>
<path d="M86.8648 76.4932C87.0291 76.7282 87.1409 76.9176 87.2562 77.156C85.7182 78.0767 84.2292 78.994 82.6912 79.9147C82.5532 79.7025 82.4151 79.4902 82.2999 79.2518C83.7888 78.3345 85.304 77.4401 86.8648 76.4932Z" fill="black"/>
<path d="M86.8648 76.4932C87.0291 76.7282 87.1409 76.9176 87.2562 77.156C85.7182 78.0767 84.2292 78.994 82.6912 79.9147C82.5532 79.7025 82.4151 79.4902 82.2999 79.2518C83.7888 78.3345 85.304 77.4401 86.8648 76.4932Z" fill="black"/>
<path d="M92.7209 86.2403C92.8852 86.4753 92.997 86.6647 93.1122 86.9032C91.5742 87.8239 90.0853 88.7411 88.5473 89.6618C88.4092 89.4496 88.2712 89.2374 88.156 88.9989C89.694 88.0782 91.1829 87.161 92.7209 86.2403Z" fill="black"/>
<path d="M94.2497 88.7218C94.414 88.9569 94.5258 89.1463 94.641 89.3848C93.103 90.3055 91.6141 91.2227 90.0761 92.1434C89.938 91.9312 89.8 91.7189 89.6848 91.4805C91.1737 90.5632 92.6889 89.6688 94.2497 88.7218Z" fill="black"/>
<path d="M92.5215 83.0252C92.6857 83.2603 92.7976 83.4496 92.9128 83.6881C90.9732 84.8586 89.0335 86.0292 87.0939 87.1997C86.9559 86.9875 86.8178 86.7753 86.7026 86.5368C88.6422 85.3663 90.5328 84.1992 92.5215 83.0252Z" fill="black"/>
<path d="M89.7946 81.3912C89.9589 81.6262 90.0707 81.8157 90.1859 82.0541C88.6479 82.9748 87.159 83.892 85.621 84.8127C85.4829 84.6005 85.3449 84.3883 85.2297 84.1498C86.7415 83.2063 88.2566 82.3119 89.7946 81.3912Z" fill="black"/>
<path d="M95.6736 91.1122C95.8378 91.3472 95.9496 91.5366 96.0648 91.7751C94.5268 92.6958 93.0379 93.613 91.4999 94.5337C91.3619 94.3215 91.2238 94.1093 91.1086 93.8708C92.6466 92.9501 94.1356 92.0329 95.6736 91.1122Z" fill="black"/>
<path d="M100.102 98.42C100.267 98.655 100.379 98.8445 100.494 99.0829C98.9558 100.004 97.4669 100.921 95.9289 101.842C95.7908 101.629 95.6528 101.417 95.5376 101.179C97.0265 100.261 98.5417 99.3669 100.102 98.42Z" fill="black"/>
<path d="M101.523 100.761C101.687 100.996 101.799 101.186 101.914 101.424C100.376 102.345 98.8871 103.262 97.3491 104.183C97.2111 103.971 97.0731 103.758 96.9578 103.52C98.4468 102.603 99.962 101.708 101.523 100.761Z" fill="black"/>
<path d="M98.5999 95.9611C98.7642 96.1962 98.876 96.3856 98.9912 96.6241C97.4532 97.5447 95.9643 98.462 94.4263 99.3827C94.2882 99.1705 94.1502 98.9582 94.035 98.7198C95.573 97.7991 97.0619 96.8818 98.5999 95.9611Z" fill="black"/>
<path d="M97.1497 93.5481C97.314 93.7832 97.4258 93.9726 97.541 94.211C96.003 95.1317 94.5141 96.049 92.9761 96.9697C92.8381 96.7574 92.7 96.5452 92.5848 96.3067C94.0966 95.3632 95.6117 94.4688 97.1497 93.5481Z" fill="black"/>
<path d="M52.1192 29.2723C51.8956 28.8935 51.7279 28.6094 51.534 28.3025C54.1365 26.7406 56.6899 25.1822 59.2924 23.6204C59.4864 23.9273 59.6575 24.2605 59.8777 24.5902C57.2752 26.152 54.7218 27.7105 52.1192 29.2723Z" fill="black"/>
<path d="M75.5001 67.9927C75.3062 67.6858 75.1385 67.4017 74.9411 67.0458C77.5436 65.4839 80.0971 63.9255 82.6996 62.3636C82.8935 62.6705 83.0612 62.9546 83.2586 63.3106C80.6789 64.8462 78.1254 66.4047 75.5001 67.9927Z" fill="black"/>
<path d="M57.6344 28.1234C57.7986 28.3585 57.9104 28.5479 58.0257 28.7863C56.4877 29.707 54.9987 30.6243 53.4607 31.545C53.3227 31.3328 53.1846 31.1206 53.0694 30.8821C54.6074 29.9614 56.1226 29.0669 57.6344 28.1234Z" fill="black"/>
<path d="M62.0632 35.4313C62.2275 35.6663 62.3393 35.8557 62.4545 36.0942C60.9165 37.0149 59.4276 37.9321 57.8896 38.8528C57.7515 38.6406 57.6135 38.4284 57.4982 38.1899C59.01 37.2464 60.5252 36.352 62.0632 35.4313Z" fill="black"/>
<path d="M60.5608 32.9725C60.725 33.2075 60.8368 33.3969 60.9521 33.6354C59.4141 34.5561 57.9251 35.4734 56.3871 36.394C56.2491 36.1818 56.111 35.9696 55.9958 35.7312C57.5338 34.8105 59.0227 33.8932 60.5608 32.9725Z" fill="black"/>
<path d="M59.1107 30.5594C59.275 30.7944 59.3868 30.9838 59.502 31.2223C57.964 32.143 56.475 33.0602 54.937 33.9809C54.799 33.7687 54.6609 33.5565 54.5457 33.318C56.0837 32.3974 57.5727 31.4801 59.1107 30.5594Z" fill="black"/>
<path d="M64.9338 40.1856C65.0981 40.4207 65.2099 40.6101 65.3251 40.8485C63.7871 41.7692 62.2982 42.6865 60.7602 43.6072C60.6221 43.3949 60.4841 43.1827 60.3689 42.9443C61.884 42.0498 63.373 41.1326 64.9338 40.1856Z" fill="black"/>
<path d="M63.4576 37.7497C63.6219 37.9847 63.7337 38.1741 63.8489 38.4126C62.3109 39.3333 60.822 40.2505 59.284 41.1712C59.1459 40.959 59.0079 40.7468 58.8927 40.5083C60.4307 39.5876 61.9196 38.6704 63.4576 37.7497Z" fill="black"/>
<path d="M63.4576 37.7497C63.6219 37.9847 63.7337 38.1741 63.8489 38.4126C62.3109 39.3333 60.822 40.2505 59.284 41.1712C59.1459 40.959 59.0079 40.7468 58.8927 40.5083C60.4307 39.5876 61.9196 38.6704 63.4576 37.7497Z" fill="black"/>
<path d="M69.3628 47.4935C69.527 47.7285 69.6388 47.9179 69.7541 48.1564C68.2161 49.0771 66.7271 49.9943 65.1891 50.915C65.0511 50.7028 64.913 50.4905 64.7978 50.2521C66.2868 49.3348 67.8019 48.4404 69.3628 47.4935Z" fill="black"/>
<path d="M70.8424 49.9785C71.0067 50.2135 71.1184 50.4029 71.2337 50.6414C69.6957 51.5621 68.2067 52.4793 66.6687 53.4C66.5307 53.1878 66.3926 52.9756 66.2774 52.7371C67.7892 51.7936 69.3044 50.8992 70.8424 49.9785Z" fill="black"/>
<path d="M69.1141 44.2817C69.2784 44.5168 69.3902 44.7062 69.5054 44.9447C67.5658 46.1152 65.6262 47.2857 63.6865 48.4563C63.5485 48.244 63.4105 48.0318 63.2953 47.7933C65.2349 46.6228 67.1517 45.4785 69.1141 44.2817Z" fill="black"/>
<path d="M66.41 42.6216C66.5743 42.8566 66.6861 43.046 66.8013 43.2845C65.2633 44.2052 63.7744 45.1224 62.2364 46.0431C62.0983 45.8309 61.9603 45.6187 61.8451 45.3802C63.334 44.4629 64.8492 43.5685 66.41 42.6216Z" fill="black"/>
<path d="M72.2662 52.3687C72.4305 52.6037 72.5423 52.7932 72.6575 53.0316C71.1195 53.9523 69.6306 54.8696 68.0926 55.7902C67.9545 55.578 67.8165 55.3658 67.7012 55.1274C69.2392 54.2067 70.7282 53.2894 72.2662 52.3687Z" fill="black"/>
<path d="M76.695 59.6764C76.8593 59.9115 76.9711 60.1009 77.0863 60.3394C75.5483 61.26 74.0594 62.1773 72.5214 63.098C72.3833 62.8858 72.2453 62.6736 72.1301 62.4351C73.6418 61.4916 75.157 60.5971 76.695 59.6764Z" fill="black"/>
<path d="M78.1154 62.0177C78.2797 62.2528 78.3915 62.4422 78.5067 62.6806C76.9687 63.6013 75.4798 64.5186 73.9418 65.4393C73.8037 65.227 73.6657 65.0148 73.5505 64.7763C75.0623 63.8328 76.5546 62.9647 78.1154 62.0177Z" fill="black"/>
<path d="M75.2153 57.1916C75.3796 57.4266 75.4914 57.616 75.6066 57.8545C74.0686 58.7752 72.5797 59.6924 71.0417 60.6131C70.9036 60.4009 70.7656 60.1886 70.6504 59.9502C72.1655 59.0557 73.6545 58.1385 75.2153 57.1916Z" fill="black"/>
<path d="M73.7425 54.8046C73.9068 55.0397 74.0186 55.2291 74.1338 55.4676C72.5958 56.3883 71.1069 57.3055 69.5689 58.2262C69.4308 58.014 69.2928 57.8018 69.1775 57.5633C70.6893 56.6198 72.2045 55.7253 73.7425 54.8046Z" fill="black"/>
<path d="M127.889 144.474C128.054 144.709 128.166 144.899 128.281 145.137C126.743 146.058 125.254 146.975 123.716 147.896C123.578 147.684 123.466 147.494 123.325 147.233C124.863 146.312 126.329 145.421 127.889 144.474Z" fill="black"/>
<path d="M60.6787 23.3512C60.2052 22.5707 60.5236 21.8337 61.6337 21.1401C62.2019 20.8047 62.7085 20.6461 63.1535 20.6643C63.5756 20.7089 63.9099 20.9074 64.1597 21.309C64.6332 22.0894 64.2886 22.8036 63.1785 23.4973C62.6103 23.8327 62.1037 23.9913 61.7078 23.9696C61.2628 23.9513 60.9286 23.7528 60.6787 23.3512ZM63.5915 21.6444C63.3976 21.3375 62.9104 21.4208 62.1038 21.8714C61.3462 22.3186 61.0529 22.7088 61.2469 23.0158C61.4408 23.3227 61.928 23.2394 62.6856 22.7922C63.466 22.3187 63.7855 21.9513 63.5915 21.6444Z" fill="black"/>
<path d="M87.8009 60.5783L84.3952 62.6398L83.9742 61.9051L86.5539 60.3695C86.4786 60.3501 86.4261 60.3044 86.3508 60.285C86.2983 60.2394 86.223 60.22 86.1705 60.1744C86.118 60.1287 86.0393 60.0603 85.9868 60.0146C85.9343 59.969 85.8556 59.9005 85.826 59.8286L86.4398 59.4408C86.6235 59.6005 86.7809 59.7374 86.9612 59.848C87.1415 59.9587 87.3445 60.0432 87.5248 60.1539L87.8009 60.5783Z" fill="black"/>
<path d="M107.864 100.146L108.703 101.567L108.112 101.929L106.773 99.7049L107.035 99.5634C107.201 99.4778 107.368 99.3923 107.538 99.3558C107.708 99.3193 107.881 99.3318 108.032 99.3706C108.205 99.3832 108.356 99.422 108.484 99.487C108.634 99.5258 108.762 99.5908 108.89 99.6559C109.018 99.7209 109.119 99.7632 109.243 99.7791C109.345 99.8213 109.469 99.8373 109.545 99.8567C109.62 99.8761 109.718 99.8693 109.816 99.8624C109.888 99.8328 109.986 99.8259 110.032 99.7735C110.172 99.6651 110.241 99.5863 110.279 99.4357C110.295 99.3114 110.285 99.1642 110.151 99.001C109.983 98.7169 109.698 98.515 109.318 98.3689L109.981 97.9776C110.338 98.1499 110.653 98.4237 110.85 98.7797C110.936 98.9463 111.021 99.1129 111.058 99.2829C111.094 99.4529 111.104 99.6001 111.066 99.7507C111.027 99.9013 110.985 100.003 110.897 100.157C110.805 100.262 110.691 100.393 110.548 100.452C110.381 100.538 110.237 100.597 110.116 100.63C109.969 100.641 109.822 100.651 109.698 100.635C109.547 100.596 109.423 100.58 109.272 100.541C109.121 100.502 108.994 100.437 108.84 100.35C108.738 100.307 108.637 100.265 108.561 100.246C108.46 100.204 108.384 100.184 108.309 100.165C108.234 100.145 108.158 100.126 108.083 100.107C107.959 100.091 107.91 100.094 107.864 100.146Z" fill="black"/>
<path d="M130.433 138.529L131.073 138.164C131.044 138.462 131.117 138.802 131.285 139.086C131.397 139.275 131.528 139.39 131.656 139.455C131.784 139.52 131.954 139.483 132.071 139.401C132.238 139.315 132.303 139.188 132.289 138.991C132.302 138.818 132.213 138.602 132.075 138.39L131.881 138.083L132.449 137.748L132.617 138.032C132.893 138.456 133.148 138.586 133.432 138.419C133.716 138.251 133.748 138.002 133.528 137.672C133.39 137.46 133.18 137.278 132.925 137.148L133.516 136.786C133.775 136.965 133.988 137.197 134.182 137.504C134.379 137.86 134.475 138.173 134.42 138.448C134.366 138.723 134.232 138.93 133.997 139.094C133.573 139.37 133.173 139.299 132.776 138.908C132.892 139.147 132.909 139.392 132.85 139.618C132.792 139.844 132.655 140.001 132.443 140.139C132.136 140.333 131.819 140.38 131.488 140.23C131.184 140.104 130.895 139.853 130.645 139.451C130.598 139.134 130.476 138.797 130.433 138.529Z" fill="black"/>
<path d="M158.014 177.031L155.907 178.287L156.157 178.689L155.589 179.024L155.339 178.622L154.654 179.04L154.262 178.377L154.948 177.959L154.083 176.516L154.651 176.181C154.877 176.239 155.1 176.248 155.375 176.303C155.623 176.335 155.872 176.367 156.144 176.372C156.392 176.404 156.664 176.41 156.909 176.393C157.155 176.376 157.377 176.385 157.596 176.345L158.014 177.031ZM155.043 176.844L155.516 177.624L156.675 176.927C156.528 176.937 156.404 176.921 156.257 176.931C156.109 176.942 155.985 176.926 155.812 176.913C155.687 176.897 155.514 176.885 155.39 176.869C155.291 176.876 155.167 176.86 155.043 176.844Z" fill="black"/>
<path d="M177.392 216.326L178.006 215.938C178.004 216.259 178.073 216.55 178.238 216.785C178.35 216.974 178.481 217.088 178.658 217.15C178.808 217.189 178.955 217.178 179.122 217.093C179.452 216.873 179.48 216.575 179.201 216.101C179.115 215.935 178.954 215.749 178.816 215.537L180.743 214.54L181.802 216.29L181.211 216.651L180.488 215.469L179.799 215.838C179.881 215.955 179.937 216.05 179.993 216.145C180.19 216.501 180.286 216.815 180.208 217.116C180.131 217.417 179.974 217.65 179.667 217.844C179.338 218.064 178.994 218.088 178.618 217.991C178.264 217.868 177.953 217.643 177.729 217.264C177.532 216.908 177.413 216.621 177.392 216.326Z" fill="black"/>
<path d="M138.726 117.122C138.614 116.933 138.532 116.815 138.446 116.649C139.393 116.09 140.314 115.508 141.261 114.949C141.347 115.115 141.455 115.256 141.541 115.422C140.594 115.981 139.673 116.563 138.726 117.122Z" fill="black"/>
<path d="M196.276 206.111C196.388 206.3 196.47 206.418 196.582 206.607C195.635 207.166 194.714 207.748 193.767 208.307C193.682 208.141 193.573 208 193.462 207.811C194.382 207.229 195.329 206.67 196.276 206.111Z" fill="black"/>
<path d="M193.837 206.478C193.755 206.361 193.699 206.266 193.617 206.148C194.28 205.757 194.893 205.369 195.556 204.978C195.638 205.095 195.694 205.19 195.776 205.308C195.136 205.673 194.474 206.064 193.837 206.478Z" fill="black"/>
<path d="M191.634 202.811C191.552 202.694 191.496 202.599 191.414 202.481C192.076 202.09 192.69 201.702 193.353 201.311C193.435 201.428 193.491 201.523 193.573 201.641C192.91 202.032 192.297 202.42 191.634 202.811Z" fill="black"/>
<path d="M192.361 204.042C192.279 203.925 192.223 203.83 192.14 203.712C192.803 203.321 193.417 202.933 194.08 202.542C194.162 202.659 194.218 202.754 194.3 202.872C193.66 203.237 193.024 203.651 192.361 204.042Z" fill="black"/>
<path d="M193.11 205.247C193.028 205.13 192.972 205.035 192.89 204.917C193.553 204.526 194.167 204.138 194.83 203.747C194.912 203.864 194.968 203.959 195.05 204.076C194.387 204.468 193.773 204.856 193.11 205.247Z" fill="black"/>
<path d="M190.184 200.398C190.102 200.281 190.046 200.186 189.964 200.068C190.627 199.677 191.241 199.289 191.904 198.898C191.986 199.015 192.042 199.11 192.124 199.228C191.487 199.642 190.847 200.007 190.184 200.398Z" fill="black"/>
<path d="M187.981 196.731C187.899 196.614 187.843 196.519 187.761 196.401C188.424 196.01 189.038 195.622 189.701 195.231C189.783 195.348 189.839 195.443 189.921 195.561C189.284 195.975 188.644 196.34 187.981 196.731Z" fill="black"/>
<path d="M188.734 197.985C188.652 197.867 188.596 197.773 188.514 197.655C189.177 197.264 189.79 196.876 190.453 196.485C190.536 196.602 190.591 196.697 190.674 196.814C190.011 197.206 189.397 197.594 188.734 197.985Z" fill="black"/>
<path d="M189.435 199.193C189.352 199.076 189.296 198.981 189.214 198.864C189.877 198.472 190.491 198.084 191.154 197.693C191.236 197.811 191.292 197.905 191.374 198.023C190.76 198.411 190.097 198.802 189.435 199.193Z" fill="black"/>
<path d="M186.504 194.295C186.422 194.178 186.366 194.083 186.284 193.965C186.947 193.574 187.561 193.186 188.224 192.795C188.306 192.912 188.362 193.007 188.444 193.125C187.807 193.539 187.167 193.904 186.504 194.295Z" fill="black"/>
<path d="M184.279 190.654C184.197 190.537 184.141 190.442 184.059 190.325C184.721 189.933 185.335 189.545 185.998 189.154C186.08 189.272 186.136 189.366 186.218 189.484C185.605 189.872 184.942 190.263 184.279 190.654Z" fill="black"/>
<path d="M185.055 191.882C184.972 191.764 184.916 191.67 184.834 191.552C185.497 191.161 186.111 190.773 186.774 190.382C186.856 190.499 186.912 190.594 186.994 190.711C186.331 191.103 185.691 191.468 185.055 191.882Z" fill="black"/>
<path d="M185.755 193.09C185.673 192.973 185.617 192.878 185.535 192.761C186.198 192.369 186.811 191.981 187.474 191.59C187.557 191.708 187.612 191.802 187.695 191.92C187.081 192.308 186.418 192.699 185.755 193.09Z" fill="black"/>
<path d="M182.829 188.241C182.747 188.124 182.691 188.029 182.609 187.912C183.272 187.52 183.885 187.132 184.548 186.741C184.63 186.859 184.686 186.953 184.768 187.071C184.155 187.459 183.492 187.85 182.829 188.241Z" fill="black"/>
<path d="M180.626 184.574C180.544 184.457 180.488 184.362 180.406 184.245C181.068 183.853 181.682 183.465 182.345 183.074C182.427 183.192 182.483 183.286 182.565 183.404C181.929 183.818 181.289 184.183 180.626 184.574Z" fill="black"/>
<path d="M181.379 185.828C181.296 185.711 181.241 185.616 181.158 185.498C181.821 185.107 182.435 184.719 183.098 184.328C183.18 184.445 183.236 184.54 183.318 184.658C182.678 185.023 182.042 185.437 181.379 185.828Z" fill="black"/>
<path d="M182.128 187.033C182.046 186.916 181.99 186.821 181.908 186.703C182.571 186.312 183.185 185.924 183.848 185.533C183.93 185.65 183.986 185.745 184.068 185.862C183.405 186.254 182.765 186.619 182.128 187.033Z" fill="black"/>
<path d="M179.176 182.161C179.093 182.044 179.038 181.949 178.955 181.831C179.618 181.44 180.232 181.052 180.895 180.661C180.977 180.778 181.033 180.873 181.115 180.991C180.452 181.382 179.812 181.747 179.176 182.161Z" fill="black"/>
<path d="M176.973 178.494C176.89 178.377 176.835 178.282 176.752 178.164C177.415 177.773 178.029 177.385 178.692 176.994C178.774 177.111 178.83 177.206 178.912 177.324C178.249 177.715 177.635 178.103 176.973 178.494Z" fill="black"/>
<path d="M177.699 179.725C177.617 179.608 177.561 179.513 177.479 179.395C178.142 179.004 178.756 178.616 179.419 178.225C179.501 178.342 179.557 178.437 179.639 178.555C178.976 178.946 178.362 179.334 177.699 179.725Z" fill="black"/>
<path d="M178.449 180.93C178.367 180.813 178.311 180.718 178.229 180.6C178.892 180.209 179.505 179.821 180.168 179.43C180.25 179.547 180.306 179.642 180.389 179.76C179.726 180.151 179.089 180.565 178.449 180.93Z" fill="black"/>
<path d="M175.5 176.107C175.418 175.99 175.362 175.895 175.28 175.777C175.942 175.386 176.556 174.998 177.219 174.607C177.301 174.724 177.357 174.819 177.439 174.937C176.799 175.302 176.163 175.716 175.5 176.107Z" fill="black"/>
<path d="M173.297 172.44C173.214 172.323 173.159 172.228 173.076 172.11C173.739 171.719 174.353 171.331 175.016 170.94C175.098 171.057 175.154 171.152 175.236 171.27C174.573 171.661 173.959 172.049 173.297 172.44Z" fill="black"/>
<path d="M174.023 173.671C173.941 173.554 173.885 173.459 173.803 173.341C174.466 172.95 175.08 172.562 175.743 172.171C175.825 172.288 175.881 172.383 175.963 172.501C175.349 172.889 174.686 173.28 174.023 173.671Z" fill="black"/>
<path d="M174.773 174.876C174.691 174.758 174.635 174.664 174.553 174.546C175.216 174.155 175.829 173.767 176.492 173.376C176.574 173.493 176.63 173.588 176.713 173.705C176.05 174.097 175.436 174.485 174.773 174.876Z" fill="black"/>
<path d="M171.821 170.004C171.738 169.887 171.682 169.792 171.6 169.675C172.263 169.283 172.877 168.895 173.54 168.504C173.622 168.621 173.678 168.716 173.76 168.834C173.12 169.199 172.483 169.613 171.821 170.004Z" fill="black"/>
<path d="M169.617 166.337C169.535 166.22 169.479 166.125 169.397 166.008C170.06 165.616 170.674 165.228 171.337 164.837C171.419 164.955 171.475 165.049 171.557 165.167C170.894 165.558 170.28 165.946 169.617 166.337Z" fill="black"/>
<path d="M170.344 167.568C170.262 167.451 170.206 167.356 170.124 167.239C170.787 166.847 171.401 166.459 172.064 166.068C172.146 166.186 172.202 166.28 172.284 166.398C171.67 166.786 171.007 167.177 170.344 167.568Z" fill="black"/>
<path d="M171.094 168.773C171.012 168.656 170.956 168.561 170.874 168.443C171.536 168.052 172.15 167.664 172.813 167.273C172.895 167.39 172.951 167.485 173.033 167.603C172.37 167.994 171.757 168.382 171.094 168.773Z" fill="black"/>
<path d="M168.167 163.924C168.085 163.807 168.029 163.712 167.947 163.594C168.61 163.203 169.224 162.815 169.887 162.424C169.969 162.541 170.025 162.636 170.107 162.754C169.444 163.145 168.83 163.533 168.167 163.924Z" fill="black"/>
<path d="M165.965 160.257C165.882 160.14 165.827 160.045 165.744 159.927C166.407 159.536 167.021 159.148 167.684 158.757C167.766 158.874 167.822 158.969 167.904 159.087C167.241 159.478 166.627 159.866 165.965 160.257Z" fill="black"/>
<path d="M166.691 161.488C166.609 161.371 166.553 161.276 166.471 161.158C167.134 160.767 167.748 160.379 168.411 159.988C168.493 160.105 168.549 160.2 168.631 160.318C167.994 160.732 167.354 161.097 166.691 161.488Z" fill="black"/>
<path d="M167.418 162.719C167.336 162.602 167.28 162.507 167.198 162.39C167.861 161.998 168.474 161.61 169.137 161.219C169.219 161.337 169.275 161.431 169.358 161.549C168.717 161.914 168.081 162.328 167.418 162.719Z" fill="black"/>
<path d="M146.032 129.283C145.946 129.116 145.864 128.998 145.753 128.809C146.7 128.25 147.62 127.668 148.567 127.109C148.649 127.227 148.735 127.393 148.847 127.583C147.926 128.164 147.002 128.697 146.032 129.283Z" fill="black"/>
<path d="M149.708 135.336C149.622 135.17 149.514 135.029 149.428 134.863C150.375 134.304 151.296 133.722 152.243 133.163C152.329 133.33 152.437 133.47 152.523 133.636C151.602 134.218 150.655 134.777 149.708 135.336Z" fill="black"/>
<path d="M153.387 141.439C153.302 141.273 153.193 141.132 153.108 140.966C154.055 140.407 154.975 139.825 155.922 139.266C156.008 139.433 156.116 139.573 156.202 139.739C155.281 140.321 154.334 140.88 153.387 141.439Z" fill="black"/>
<path d="M137.559 108.872C137.645 109.039 137.753 109.179 137.839 109.346C136.892 109.905 135.971 110.486 135.024 111.045C134.938 110.879 134.83 110.739 134.744 110.572C135.691 110.013 136.638 109.454 137.559 108.872Z" fill="black"/>
<path d="M185.268 187.874C185.38 188.063 185.462 188.181 185.574 188.37C184.627 188.929 183.706 189.511 182.759 190.07C182.674 189.903 182.565 189.763 182.453 189.574C183.4 189.015 184.321 188.433 185.268 187.874Z" fill="black"/>
<path d="M188.918 193.905C189.03 194.094 189.112 194.212 189.223 194.401C188.276 194.96 187.356 195.542 186.409 196.101C186.323 195.935 186.215 195.794 186.103 195.605C187.05 195.046 187.948 194.49 188.918 193.905Z" fill="black"/>
<path d="M192.6 200.057C192.712 200.246 192.794 200.364 192.906 200.553C191.959 201.112 191.038 201.694 190.091 202.253C190.006 202.087 189.897 201.946 189.786 201.757C190.733 201.198 191.653 200.616 192.6 200.057Z" fill="black"/>
<path d="M159.576 145.346C159.661 145.513 159.77 145.653 159.855 145.82C158.908 146.379 157.987 146.96 157.04 147.519C156.955 147.353 156.847 147.213 156.761 147.046C157.708 146.487 158.629 145.905 159.576 145.346Z" fill="black"/>
<path d="M166.931 157.503C167.016 157.669 167.125 157.81 167.21 157.976C166.263 158.535 165.343 159.117 164.396 159.676C164.31 159.51 164.202 159.369 164.116 159.203C165.037 158.621 165.984 158.062 166.931 157.503Z" fill="black"/>
<path d="M168.049 165.756C167.963 165.59 167.855 165.449 167.769 165.283C168.716 164.724 169.637 164.142 170.584 163.583C170.669 163.75 170.778 163.89 170.863 164.057C169.943 164.638 169.018 165.171 168.049 165.756Z" fill="black"/>
<path d="M174.26 169.637C174.345 169.804 174.454 169.944 174.539 170.11C173.592 170.67 172.672 171.251 171.725 171.81C171.639 171.644 171.531 171.503 171.445 171.337C172.392 170.778 173.29 170.222 174.26 169.637Z" fill="black"/>
<path d="M177.939 175.74C178.025 175.906 178.133 176.047 178.219 176.213C177.272 176.772 176.351 177.354 175.404 177.913C175.318 177.747 175.21 177.606 175.124 177.44C176.045 176.858 176.992 176.299 177.939 175.74Z" fill="black"/>
<path d="M181.592 181.82C181.678 181.987 181.786 182.127 181.872 182.293C180.925 182.852 180.004 183.434 179.057 183.993C178.971 183.827 178.863 183.686 178.777 183.52C179.698 182.938 180.645 182.379 181.592 181.82Z" fill="black"/>
<path d="M142.379 123.202C142.267 123.013 142.185 122.895 142.1 122.729C143.047 122.17 143.967 121.588 144.914 121.029C145 121.195 145.108 121.336 145.194 121.502C144.247 122.061 143.326 122.643 142.379 123.202Z" fill="black"/>
<path d="M163.252 151.4C163.363 151.589 163.446 151.707 163.531 151.873C162.584 152.432 161.663 153.014 160.716 153.573C160.631 153.407 160.522 153.266 160.437 153.1C161.384 152.541 162.308 152.008 163.252 151.4Z" fill="black"/>
<path d="M158.635 148.123C158.553 148.006 158.497 147.911 158.415 147.793C159.078 147.402 159.692 147.014 160.355 146.623C160.411 146.717 160.493 146.835 160.575 146.953C159.912 147.344 159.298 147.732 158.635 148.123Z" fill="black"/>
<path d="M159.362 149.354C159.28 149.237 159.224 149.142 159.142 149.024C159.805 148.633 160.419 148.245 161.082 147.854C161.137 147.949 161.22 148.066 161.302 148.184C160.665 148.598 160.025 148.963 159.362 149.354Z" fill="black"/>
<path d="M148.354 131.117C148.272 131 148.216 130.905 148.16 130.81C148.823 130.419 149.437 130.031 150.1 129.64C150.155 129.734 150.238 129.852 150.293 129.947C149.631 130.338 149.017 130.726 148.354 131.117Z" fill="black"/>
<path d="M147.897 125.973C147.952 126.067 148.008 126.162 148.09 126.28C147.428 126.671 146.814 127.059 146.151 127.45C146.095 127.355 146.039 127.261 145.957 127.143C146.62 126.752 147.234 126.364 147.897 125.973Z" fill="black"/>
<path d="M142.767 117.457C142.849 117.574 142.905 117.669 142.961 117.764C142.298 118.155 141.684 118.543 141.021 118.934C140.966 118.839 140.91 118.745 140.828 118.627C141.468 118.262 142.104 117.848 142.767 117.457Z" fill="black"/>
<path d="M142.018 116.252C142.1 116.369 142.156 116.464 142.212 116.559C141.549 116.95 140.935 117.338 140.272 117.729C140.216 117.634 140.16 117.54 140.078 117.422C140.741 117.031 141.355 116.643 142.018 116.252Z" fill="black"/>
<path d="M140.541 113.816C140.623 113.933 140.679 114.028 140.735 114.123C140.072 114.514 139.459 114.902 138.796 115.293C138.74 115.199 138.684 115.104 138.602 114.986C139.265 114.595 139.905 114.23 140.541 113.816Z" fill="black"/>
<path d="M139.065 111.38C139.147 111.497 139.203 111.592 139.259 111.687C138.596 112.078 137.982 112.466 137.319 112.857C137.263 112.763 137.207 112.668 137.125 112.55C137.788 112.159 138.428 111.794 139.065 111.38Z" fill="black"/>
<path d="M136.425 111.342C137.088 110.951 137.702 110.563 138.364 110.172C138.42 110.266 138.476 110.361 138.558 110.479C137.895 110.87 137.282 111.258 136.619 111.649C136.563 111.554 136.507 111.46 136.425 111.342Z" fill="black"/>
<path d="M138.095 114.085C138.013 113.967 137.957 113.873 137.901 113.778C138.564 113.387 139.178 112.999 139.841 112.608C139.897 112.702 139.979 112.82 140.035 112.914C139.372 113.306 138.709 113.697 138.095 114.085Z" fill="black"/>
<path d="M149.103 132.322C149.021 132.204 148.965 132.11 148.909 132.015C149.572 131.624 150.186 131.236 150.849 130.844C150.905 130.939 150.961 131.034 151.043 131.151C150.38 131.543 149.74 131.908 149.103 132.322Z" fill="black"/>
<path d="M143.494 118.688C143.576 118.805 143.632 118.9 143.688 118.995C143.025 119.386 142.411 119.774 141.748 120.165C141.692 120.071 141.61 119.953 141.554 119.858C142.191 119.444 142.831 119.079 143.494 118.688Z" fill="black"/>
<path d="M160.838 151.79C160.756 151.673 160.7 151.578 160.618 151.46C161.281 151.069 161.895 150.681 162.558 150.29C162.64 150.407 162.696 150.502 162.778 150.62C162.115 151.011 161.475 151.376 160.838 151.79Z" fill="black"/>
<path d="M164.492 157.87C164.409 157.753 164.353 157.658 164.271 157.541C164.934 157.149 165.548 156.761 166.211 156.37C166.293 156.488 166.349 156.582 166.431 156.7C165.791 157.065 165.128 157.456 164.492 157.87Z" fill="black"/>
<path d="M162.289 154.203C162.206 154.086 162.15 153.991 162.068 153.873C162.731 153.482 163.345 153.094 164.008 152.703C164.09 152.82 164.146 152.915 164.228 153.033C163.565 153.424 162.951 153.812 162.289 154.203Z" fill="black"/>
<path d="M163.015 155.434C162.933 155.317 162.877 155.222 162.795 155.105C163.458 154.713 164.072 154.325 164.735 153.934C164.817 154.051 164.873 154.146 164.955 154.264C164.315 154.629 163.678 155.043 163.015 155.434Z" fill="black"/>
<path d="M163.765 156.639C163.683 156.522 163.627 156.427 163.545 156.309C164.207 155.918 164.821 155.53 165.484 155.139C165.566 155.256 165.622 155.351 165.704 155.469C165.041 155.86 164.428 156.248 163.765 156.639Z" fill="black"/>
<path d="M158.349 143.312C157.686 143.703 157.072 144.091 156.41 144.482C156.327 144.365 156.271 144.27 156.216 144.175C156.878 143.784 157.492 143.396 158.155 143.005C158.211 143.1 158.267 143.194 158.349 143.312Z" fill="black"/>
<path d="M159.099 144.517C158.436 144.908 157.822 145.296 157.159 145.687C157.077 145.57 157.021 145.475 156.965 145.38C157.628 144.989 158.242 144.601 158.905 144.21C158.961 144.304 159.017 144.399 159.099 144.517Z" fill="black"/>
<path d="M147.147 124.768C147.229 124.885 147.285 124.98 147.341 125.075C146.678 125.466 146.064 125.854 145.401 126.245C145.345 126.151 145.289 126.056 145.207 125.938C145.87 125.547 146.507 125.133 147.147 124.768Z" fill="black"/>
<path d="M146.42 123.537C146.502 123.654 146.558 123.749 146.614 123.844C145.951 124.235 145.337 124.623 144.675 125.014C144.619 124.92 144.563 124.825 144.481 124.707C145.143 124.316 145.757 123.928 146.42 123.537Z" fill="black"/>
<path d="M145.697 122.355C145.779 122.472 145.835 122.567 145.891 122.662C145.228 123.053 144.614 123.441 143.951 123.832C143.895 123.737 143.839 123.643 143.757 123.525C144.394 123.111 145.057 122.72 145.697 122.355Z" fill="black"/>
<path d="M160.085 150.536C160.003 150.419 159.947 150.324 159.891 150.229C160.554 149.838 161.168 149.45 161.831 149.059C161.887 149.153 161.943 149.248 162.025 149.366C161.388 149.78 160.748 150.145 160.085 150.536Z" fill="black"/>
<path d="M154.956 142.02C154.9 141.925 154.844 141.831 154.762 141.713C155.425 141.322 156.039 140.934 156.702 140.543C156.758 140.637 156.813 140.732 156.896 140.85C156.259 141.264 155.596 141.655 154.956 142.02Z" fill="black"/>
<path d="M155.709 143.274C155.653 143.179 155.597 143.085 155.515 142.967C156.178 142.576 156.792 142.188 157.455 141.797C157.511 141.891 157.567 141.986 157.649 142.104C156.986 142.495 156.346 142.86 155.709 143.274Z" fill="black"/>
<path d="M154.502 136.925C154.584 137.042 154.64 137.137 154.673 137.258C154.01 137.649 153.396 138.037 152.734 138.428C152.678 138.334 152.622 138.239 152.54 138.121C153.199 137.681 153.839 137.316 154.502 136.925Z" fill="black"/>
<path d="M155.252 138.129C155.334 138.247 155.39 138.342 155.423 138.463C154.76 138.854 154.146 139.242 153.483 139.633C153.427 139.538 153.371 139.444 153.289 139.326C153.952 138.935 154.589 138.521 155.252 138.129Z" fill="black"/>
<path d="M153.775 135.694C153.831 135.788 153.887 135.883 153.969 136C153.306 136.392 152.693 136.78 152.03 137.171C151.974 137.076 151.918 136.982 151.836 136.864C152.476 136.499 153.113 136.085 153.775 135.694Z" fill="black"/>
<path d="M149.804 133.53C149.722 133.413 149.666 133.318 149.61 133.223C150.273 132.832 150.887 132.444 151.55 132.053C151.605 132.148 151.661 132.242 151.744 132.36C151.107 132.774 150.467 133.139 149.804 133.53Z" fill="black"/>
<path d="M151.28 135.966C151.198 135.849 151.142 135.754 151.086 135.659C151.749 135.268 152.363 134.88 153.026 134.489C153.082 134.583 153.138 134.678 153.22 134.796C152.583 135.21 151.943 135.575 151.28 135.966Z" fill="black"/>
<path d="M147.627 129.886C147.545 129.768 147.489 129.674 147.433 129.579C148.096 129.188 148.71 128.8 149.373 128.409C149.429 128.503 149.485 128.598 149.567 128.715C148.904 129.107 148.29 129.495 147.627 129.886Z" fill="black"/>
<path d="M142.475 121.396C142.419 121.302 142.363 121.207 142.281 121.089C142.944 120.698 143.558 120.31 144.221 119.919C144.277 120.014 144.332 120.108 144.415 120.226C143.774 120.591 143.134 120.956 142.475 121.396Z" fill="black"/>
<path d="M79.9267 19.7659C79.8149 19.5765 79.7327 19.459 79.6472 19.2924C80.5942 18.7334 81.5149 18.1515 82.4619 17.5925C82.5475 17.7591 82.6559 17.8994 82.7414 18.066C81.7944 18.625 80.8737 19.2068 79.9267 19.7659Z" fill="black"/>
<path d="M135.06 109.096C134.978 108.978 134.922 108.884 134.84 108.766C135.503 108.375 136.117 107.987 136.78 107.595C136.862 107.713 136.918 107.808 137 107.925C136.337 108.316 135.697 108.682 135.06 109.096Z" fill="black"/>
<path d="M132.857 105.429C132.775 105.311 132.719 105.217 132.637 105.099C133.3 104.708 133.914 104.32 134.577 103.928C134.659 104.046 134.715 104.141 134.797 104.258C134.134 104.65 133.494 105.015 132.857 105.429Z" fill="black"/>
<path d="M133.584 106.66C133.502 106.542 133.446 106.448 133.364 106.33C134.027 105.939 134.641 105.551 135.304 105.16C135.386 105.277 135.442 105.372 135.524 105.489C134.861 105.881 134.247 106.269 133.584 106.66Z" fill="black"/>
<path d="M134.334 107.865C134.252 107.747 134.196 107.652 134.114 107.535C134.776 107.144 135.39 106.756 136.053 106.364C136.135 106.482 136.191 106.577 136.273 106.694C135.61 107.085 134.997 107.473 134.334 107.865Z" fill="black"/>
<path d="M131.384 103.042C131.302 102.924 131.246 102.83 131.164 102.712C131.827 102.321 132.441 101.933 133.104 101.541C133.186 101.659 133.242 101.754 133.324 101.871C132.71 102.259 132.047 102.65 131.384 103.042Z" fill="black"/>
<path d="M129.181 99.3748C129.099 99.2572 129.043 99.1625 128.961 99.045C129.624 98.6537 130.238 98.2658 130.901 97.8745C130.983 97.992 131.039 98.0867 131.121 98.2042C130.484 98.6183 129.844 98.9834 129.181 99.3748Z" fill="black"/>
<path d="M129.935 100.629C129.852 100.511 129.796 100.416 129.714 100.299C130.377 99.9076 130.991 99.5197 131.654 99.1283C131.736 99.2459 131.792 99.3406 131.874 99.4581C131.234 99.8232 130.571 100.214 129.935 100.629Z" fill="black"/>
<path d="M130.658 101.811C130.576 101.693 130.52 101.598 130.437 101.481C131.1 101.09 131.714 100.702 132.377 100.31C132.459 100.428 132.515 100.523 132.597 100.64C131.961 101.054 131.321 101.419 130.658 101.811Z" fill="black"/>
<path d="M127.705 96.9389C127.623 96.8214 127.567 96.7266 127.485 96.6091C128.148 96.2178 128.762 95.8299 129.425 95.4386C129.507 95.5561 129.563 95.6508 129.645 95.7683C129.005 96.1334 128.368 96.5476 127.705 96.9389Z" fill="black"/>
<path d="M125.502 93.2718C125.42 93.1543 125.364 93.0596 125.282 92.942C125.945 92.5507 126.559 92.1628 127.222 91.7715C127.304 91.889 127.36 91.9837 127.442 92.1013C126.805 92.5154 126.165 92.8805 125.502 93.2718Z" fill="black"/>
<path d="M126.255 94.5257C126.173 94.4082 126.117 94.3135 126.035 94.196C126.698 93.8047 127.312 93.4168 127.975 93.0255C128.057 93.143 128.113 93.2377 128.195 93.3552C127.555 93.7203 126.892 94.1116 126.255 94.5257Z" fill="black"/>
<path d="M126.978 95.7077C126.896 95.5902 126.84 95.4955 126.758 95.378C127.421 94.9867 128.035 94.5988 128.698 94.2075C128.78 94.325 128.836 94.4197 128.918 94.5372C128.281 94.9514 127.641 95.3164 126.978 95.7077Z" fill="black"/>
<path d="M124.052 90.8586C123.97 90.7411 123.914 90.6464 123.832 90.5289C124.495 90.1376 125.109 89.7497 125.772 89.3584C125.854 89.4759 125.91 89.5706 125.992 89.6881C125.355 90.1023 124.715 90.4673 124.052 90.8586Z" fill="black"/>
<path d="M121.849 87.1916C121.767 87.074 121.711 86.9794 121.629 86.8618C122.292 86.4705 122.906 86.0826 123.569 85.6913C123.651 85.8088 123.707 85.9035 123.789 86.021C123.152 86.4352 122.512 86.8002 121.849 87.1916Z" fill="black"/>
<path d="M122.602 88.4455C122.52 88.328 122.464 88.2333 122.382 88.1158C123.045 87.7244 123.659 87.3365 124.321 86.9452C124.404 87.0627 124.459 87.1575 124.542 87.275C123.879 87.6663 123.265 88.0542 122.602 88.4455Z" fill="black"/>
<path d="M123.329 89.6765C123.247 89.559 123.191 89.4643 123.109 89.3468C123.771 88.9555 124.385 88.5676 125.048 88.1763C125.13 88.2938 125.186 88.3885 125.268 88.506C124.628 88.8711 123.965 89.2624 123.329 89.6765Z" fill="black"/>
<path d="M120.399 84.7786C120.317 84.6611 120.261 84.5664 120.179 84.4489C120.842 84.0575 121.456 83.6696 122.119 83.2783C122.201 83.3958 122.257 83.4905 122.339 83.6081C121.676 83.9994 121.036 84.3644 120.399 84.7786Z" fill="black"/>
<path d="M118.173 81.1378C118.091 81.0203 118.035 80.9256 117.953 80.8081C118.616 80.4168 119.23 80.0289 119.893 79.6376C119.975 79.7551 120.031 79.8498 120.113 79.9673C119.473 80.3324 118.81 80.7237 118.173 81.1378Z" fill="black"/>
<path d="M118.923 82.3427C118.841 82.2252 118.785 82.1305 118.703 82.013C119.366 81.6217 119.979 81.2338 120.642 80.8424C120.724 80.96 120.78 81.0547 120.863 81.1722C120.2 81.5635 119.586 81.9514 118.923 82.3427Z" fill="black"/>
<path d="M119.65 83.5738C119.567 83.4562 119.512 83.3615 119.429 83.244C120.092 82.8527 120.706 82.4648 121.369 82.0735C121.451 82.191 121.507 82.2857 121.589 82.4032C120.926 82.7946 120.312 83.1824 119.65 83.5738Z" fill="black"/>
<path d="M116.723 78.7246C116.641 78.6071 116.585 78.5124 116.503 78.3949C117.166 78.0035 117.78 77.6157 118.443 77.2243C118.525 77.3419 118.581 77.4366 118.663 77.5541C118 77.9454 117.386 78.3333 116.723 78.7246Z" fill="black"/>
<path d="M114.52 75.0576C114.438 74.9401 114.382 74.8454 114.3 74.7279C114.963 74.3366 115.577 73.9487 116.24 73.5574C116.322 73.6749 116.378 73.7696 116.46 73.8871C115.797 74.2784 115.183 74.6663 114.52 75.0576Z" fill="black"/>
<path d="M115.247 76.2888C115.165 76.1713 115.109 76.0765 115.027 75.959C115.69 75.5677 116.303 75.1798 116.966 74.7885C117.048 74.906 117.104 75.0007 117.187 75.1183C116.55 75.5324 115.91 75.8975 115.247 76.2888Z" fill="black"/>
<path d="M115.997 77.4936C115.914 77.376 115.858 77.2814 115.776 77.1639C116.439 76.7725 117.053 76.3846 117.716 75.9933C117.798 76.1108 117.854 76.2055 117.936 76.323C117.273 76.7144 116.659 77.1022 115.997 77.4936Z" fill="black"/>
<path d="M113.044 72.6218C112.962 72.5042 112.906 72.4096 112.824 72.2921C113.487 71.9007 114.101 71.5128 114.763 71.1215C114.846 71.239 114.901 71.3337 114.984 71.4512C114.321 71.8426 113.707 72.2304 113.044 72.6218Z" fill="black"/>
<path d="M110.841 68.9548C110.759 68.8373 110.703 68.7425 110.621 68.625C111.284 68.2337 111.897 67.8458 112.56 67.4545C112.642 67.572 112.698 67.6667 112.781 67.7842C112.118 68.1755 111.504 68.5635 110.841 68.9548Z" fill="black"/>
<path d="M111.568 70.1858C111.486 70.0683 111.43 69.9736 111.348 69.8561C112.011 69.4648 112.624 69.0768 113.287 68.6855C113.369 68.803 113.425 68.8978 113.507 69.0153C112.871 69.4294 112.231 69.7945 111.568 70.1858Z" fill="black"/>
<path d="M112.317 71.3907C112.235 71.2732 112.179 71.1785 112.097 71.061C112.76 70.6697 113.374 70.2818 114.037 69.8905C114.119 70.008 114.175 70.1026 114.257 70.2202C113.594 70.6115 112.957 71.0256 112.317 71.3907Z" fill="black"/>
<path d="M109.368 66.5678C109.286 66.4502 109.23 66.3555 109.148 66.238C109.811 65.8467 110.425 65.4588 111.087 65.0675C111.17 65.185 111.225 65.2797 111.308 65.3972C110.668 65.7623 110.031 66.1764 109.368 66.5678Z" fill="black"/>
<path d="M107.165 62.9007C107.083 62.7832 107.027 62.6885 106.945 62.571C107.608 62.1796 108.222 61.7917 108.884 61.4004C108.967 61.5179 109.022 61.6126 109.105 61.7302C108.442 62.1215 107.828 62.5094 107.165 62.9007Z" fill="black"/>
<path d="M107.892 64.1317C107.81 64.0142 107.754 63.9195 107.671 63.802C108.334 63.4107 108.948 63.0228 109.611 62.6314C109.693 62.749 109.749 62.8437 109.831 62.9612C109.217 63.3491 108.555 63.7404 107.892 64.1317Z" fill="black"/>
<path d="M108.641 65.3366C108.559 65.2191 108.503 65.1244 108.421 65.0069C109.084 64.6156 109.698 64.2277 110.361 63.8363C110.443 63.9539 110.499 64.0486 110.581 64.1661C109.918 64.5574 109.304 64.9453 108.641 65.3366Z" fill="black"/>
<path d="M87.2555 31.9C87.17 31.7334 87.0878 31.6159 86.976 31.4265C87.923 30.8675 88.8438 30.2856 89.7908 29.7266C89.8729 29.8441 89.9585 30.0107 90.0703 30.2001C89.1495 30.7819 88.2025 31.341 87.2555 31.9Z" fill="black"/>
<path d="M90.9086 37.9801C90.8231 37.8135 90.7147 37.6732 90.6291 37.5066C91.5761 36.9476 92.4969 36.3657 93.4438 35.8067C93.5294 35.9733 93.6378 36.1136 93.7234 36.2802C92.8254 36.8358 91.8784 37.3948 90.9086 37.9801Z" fill="black"/>
<path d="M94.6108 44.0568C94.5252 43.8903 94.4168 43.7499 94.3313 43.5833C95.2783 43.0243 96.199 42.4425 97.146 41.8834C97.2316 42.05 97.3399 42.1904 97.4255 42.3569C96.4785 42.916 95.5578 43.4978 94.6108 44.0568Z" fill="black"/>
<path d="M78.7825 11.4896C78.868 11.6562 78.9764 11.7965 79.062 11.9631C78.115 12.5221 77.1942 13.1039 76.2472 13.663C76.1617 13.4964 76.0533 13.3561 75.9677 13.1895C76.9147 12.6304 77.8617 12.0714 78.7825 11.4896Z" fill="black"/>
<path d="M126.469 90.5177C126.581 90.7071 126.663 90.8246 126.774 91.014C125.828 91.573 124.907 92.1548 123.96 92.7139C123.874 92.5473 123.766 92.4069 123.654 92.2176C124.624 91.6323 125.522 91.0767 126.469 90.5177Z" fill="black"/>
<path d="M130.118 96.5488C130.23 96.7382 130.312 96.8557 130.424 97.0451C129.477 97.6042 128.556 98.186 127.609 98.745C127.524 98.5785 127.415 98.4381 127.304 98.2487C128.251 97.6897 129.171 97.1078 130.118 96.5488Z" fill="black"/>
<path d="M133.824 102.675C133.936 102.864 134.018 102.981 134.13 103.171C133.183 103.73 132.262 104.312 131.315 104.871C131.229 104.704 131.121 104.564 131.009 104.374C131.956 103.815 132.877 103.234 133.824 102.675Z" fill="black"/>
<path d="M100.799 47.9635C100.885 48.1301 100.993 48.2705 101.079 48.437C100.132 48.9961 99.2108 49.5779 98.2638 50.1369C98.1783 49.9704 98.0699 49.83 97.9843 49.6634C98.9313 49.1044 99.8521 48.5226 100.799 47.9635Z" fill="black"/>
<path d="M108.154 60.1205C108.24 60.287 108.348 60.4274 108.434 60.594C107.487 61.153 106.566 61.7348 105.619 62.2939C105.534 62.1273 105.425 61.9869 105.34 61.8204C106.26 61.2385 107.184 60.7057 108.154 60.1205Z" fill="black"/>
<path d="M109.272 68.374C109.187 68.2074 109.078 68.0671 108.993 67.9005C109.94 67.3415 110.86 66.7596 111.807 66.2006C111.893 66.3672 112.001 66.5075 112.087 66.6741C111.166 67.256 110.219 67.815 109.272 68.374Z" fill="black"/>
<path d="M115.46 72.2807C115.546 72.4473 115.654 72.5876 115.74 72.7542C114.793 73.3132 113.872 73.8951 112.925 74.4541C112.84 74.2875 112.731 74.1472 112.646 73.9806C113.593 73.4216 114.513 72.8397 115.46 72.2807Z" fill="black"/>
<path d="M119.163 78.3574C119.248 78.524 119.357 78.6643 119.442 78.8309C118.495 79.3899 117.574 79.9718 116.627 80.5308C116.542 80.3642 116.433 80.2239 116.348 80.0573C117.269 79.4755 118.193 78.9427 119.163 78.3574Z" fill="black"/>
<path d="M122.816 84.4375C122.901 84.6041 123.01 84.7445 123.095 84.911C122.148 85.4701 121.227 86.0519 120.28 86.6109C120.195 86.4444 120.087 86.304 120.001 86.1374C120.922 85.5556 121.869 84.9966 122.816 84.4375Z" fill="black"/>
<path d="M83.6026 25.8198C83.4908 25.6304 83.4086 25.5129 83.3231 25.3463C84.2701 24.7873 85.1908 24.2054 86.1378 23.6464C86.2234 23.813 86.3318 23.9533 86.4173 24.1199C85.4703 24.6789 84.5496 25.2608 83.6026 25.8198Z" fill="black"/>
<path d="M104.452 54.0437C104.564 54.2331 104.646 54.3506 104.732 54.5172C103.785 55.0762 102.864 55.6581 101.917 56.2171C101.831 56.0505 101.723 55.9102 101.638 55.7436C102.585 55.1846 103.532 54.6255 104.452 54.0437Z" fill="black"/>
<path d="M99.8361 50.7668C99.754 50.6493 99.6981 50.5547 99.6159 50.4371C100.279 50.0458 100.893 49.6579 101.556 49.2666C101.611 49.3613 101.694 49.4788 101.776 49.5963C101.136 49.9614 100.499 50.3755 99.8361 50.7668Z" fill="black"/>
<path d="M100.586 51.9717C100.503 51.8541 100.448 51.7594 100.365 51.6419C101.028 51.2506 101.642 50.8627 102.305 50.4714C102.361 50.5661 102.443 50.6836 102.525 50.8011C101.889 51.2152 101.249 51.5803 100.586 51.9717Z" fill="black"/>
<path d="M89.5773 33.7346C89.4952 33.6171 89.4393 33.5224 89.3834 33.4277C90.0463 33.0364 90.6601 32.6485 91.323 32.2572C91.3789 32.3519 91.4611 32.4694 91.517 32.5641C90.8541 32.9554 90.2402 33.3433 89.5773 33.7346Z" fill="black"/>
<path d="M89.12 28.5903C89.1759 28.685 89.2318 28.7797 89.314 28.8972C88.6511 29.2885 88.0372 29.6764 87.3743 30.0677C87.3184 29.973 87.2626 29.8783 87.1804 29.7608C87.8205 29.3957 88.4343 29.0078 89.12 28.5903Z" fill="black"/>
<path d="M83.9678 20.1004C84.0499 20.2179 84.1058 20.3126 84.1617 20.4073C83.4988 20.7986 82.885 21.1865 82.2221 21.5778C82.1662 21.4831 82.1103 21.3884 82.0282 21.2709C82.6911 20.8796 83.3049 20.4917 83.9678 20.1004Z" fill="black"/>
<path d="M83.2411 18.8693C83.3233 18.9868 83.3792 19.0815 83.4351 19.1762C82.7722 19.5675 82.1583 19.9554 81.4954 20.3467C81.4395 20.252 81.3836 20.1573 81.3015 20.0398C81.9416 19.6747 82.5782 19.2606 83.2411 18.8693Z" fill="black"/>
<path d="M81.7647 16.4334C81.8468 16.5509 81.9027 16.6456 81.9586 16.7403C81.2957 17.1316 80.6819 17.5195 80.019 17.9108C79.9631 17.8161 79.9072 17.7214 79.8251 17.6039C80.4651 17.2388 81.128 16.8475 81.7647 16.4334Z" fill="black"/>
<path d="M80.2885 13.9974C80.3706 14.1149 80.4265 14.2096 80.4824 14.3043C79.8195 14.6956 79.2057 15.0835 78.5428 15.4748C78.4869 15.3801 78.431 15.2854 78.3489 15.1679C79.0118 14.7766 79.6518 14.4115 80.2885 13.9974Z" fill="black"/>
<path d="M77.6484 13.9597C78.3113 13.5684 78.9251 13.1805 79.588 12.7892C79.6439 12.8839 79.6998 12.9786 79.782 13.0961C79.1191 13.4874 78.5053 13.8753 77.8424 14.2666C77.7636 14.1982 77.6815 14.0807 77.6484 13.9597Z" fill="black"/>
<path d="M79.2957 16.7288C79.2136 16.6113 79.1577 16.5166 79.1018 16.4219C79.7647 16.0306 80.3785 15.6427 81.0414 15.2514C81.0973 15.3461 81.1794 15.4636 81.2353 15.5583C80.5724 15.9496 79.9324 16.3147 79.2957 16.7288Z" fill="black"/>
<path d="M90.3042 34.9657C90.222 34.8482 90.1661 34.7535 90.1102 34.6588C90.7731 34.2675 91.3869 33.8796 92.0498 33.4883C92.1057 33.583 92.1616 33.6777 92.2438 33.7952C91.5809 34.1865 90.9408 34.5516 90.3042 34.9657Z" fill="black"/>
<path d="M84.7173 21.3052C84.7994 21.4228 84.8554 21.5174 84.9113 21.6121C84.2484 22.0035 83.6345 22.3914 82.9716 22.7827C82.9157 22.688 82.8336 22.5705 82.7777 22.4758C83.4144 22.0616 84.0544 21.6966 84.7173 21.3052Z" fill="black"/>
<path d="M102.062 54.4076C101.98 54.2901 101.924 54.1954 101.842 54.0779C102.505 53.6866 103.118 53.2987 103.781 52.9074C103.863 53.0249 103.919 53.1196 104.001 53.2371C103.339 53.6284 102.698 53.9935 102.062 54.4076Z" fill="black"/>
<path d="M105.715 60.4877C105.633 60.3702 105.577 60.2755 105.495 60.158C106.158 59.7667 106.771 59.3788 107.434 58.9875C107.516 59.105 107.572 59.1997 107.655 59.3172C106.992 59.7085 106.352 60.0736 105.715 60.4877Z" fill="black"/>
<path d="M103.512 56.8206C103.43 56.7031 103.374 56.6084 103.292 56.4909C103.955 56.0996 104.568 55.7117 105.231 55.3204C105.313 55.4379 105.369 55.5326 105.452 55.6501C104.789 56.0414 104.149 56.4065 103.512 56.8206Z" fill="black"/>
<path d="M104.239 58.0518C104.156 57.9343 104.101 57.8396 104.018 57.7221C104.681 57.3308 105.295 56.9428 105.958 56.5515C106.04 56.669 106.096 56.7638 106.178 56.8813C105.515 57.2726 104.902 57.6605 104.239 58.0518Z" fill="black"/>
<path d="M104.988 59.2567C104.906 59.1392 104.85 59.0445 104.768 58.9269C105.431 58.5356 106.045 58.1477 106.708 57.7564C106.79 57.8739 106.846 57.9686 106.928 58.0861C106.265 58.4774 105.651 58.8654 104.988 59.2567Z" fill="black"/>
<path d="M99.5726 45.9293C98.9098 46.3206 98.2959 46.7085 97.633 47.0999C97.5509 46.9823 97.495 46.8876 97.4391 46.7929C98.102 46.4016 98.7158 46.0137 99.3787 45.6224C99.4346 45.7171 99.4905 45.8118 99.5726 45.9293Z" fill="black"/>
<path d="M100.299 47.1603C99.6365 47.5516 99.0227 47.9395 98.3598 48.3308C98.2777 48.2133 98.2218 48.1186 98.1659 48.0239C98.8287 47.6326 99.4426 47.2447 100.105 46.8534C100.184 46.9218 100.24 47.0165 100.299 47.1603Z" fill="black"/>
<path d="M88.3705 27.3854C88.4526 27.5029 88.5085 27.5976 88.5644 27.6923C87.9015 28.0836 87.2877 28.4715 86.6248 28.8628C86.5689 28.7681 86.513 28.6734 86.4309 28.5559C87.0938 28.1646 87.7076 27.7767 88.3705 27.3854Z" fill="black"/>
<path d="M87.6437 26.1542C87.7258 26.2718 87.7818 26.3664 87.8377 26.4611C87.1748 26.8525 86.5609 27.2404 85.898 27.6317C85.8421 27.537 85.7862 27.4423 85.7041 27.3248C86.367 26.9334 86.9808 26.5456 87.6437 26.1542Z" fill="black"/>
<path d="M86.9204 24.9722C87.0026 25.0898 87.0585 25.1845 87.1144 25.2792C86.4515 25.6705 85.8377 26.0584 85.1748 26.4497C85.1189 26.355 85.0629 26.2603 84.9808 26.1428C85.6174 25.7287 86.2575 25.3636 86.9204 24.9722Z" fill="black"/>
<path d="M101.286 53.1799C101.204 53.0624 101.148 52.9677 101.092 52.873C101.755 52.4817 102.369 52.0938 103.032 51.7024C103.088 51.7971 103.144 51.8918 103.226 52.0094C102.612 52.3973 101.949 52.7886 101.286 53.1799Z" fill="black"/>
<path d="M96.1567 44.6638C96.1008 44.5691 96.0449 44.4744 95.9628 44.3569C96.6256 43.9656 97.2395 43.5777 97.9024 43.1864C97.9583 43.2811 98.0142 43.3758 98.0963 43.4933C97.4597 43.9074 96.8196 44.2725 96.1567 44.6638Z" fill="black"/>
<path d="M96.9097 45.9178C96.8538 45.8231 96.7979 45.7284 96.7158 45.6109C97.3787 45.2196 97.9925 44.8316 98.6554 44.4403C98.7113 44.535 98.7672 44.6297 98.8494 44.7472C98.2093 45.1123 97.5464 45.5036 96.9097 45.9178Z" fill="black"/>
<path d="M95.7257 39.5422C95.8079 39.6597 95.8638 39.7544 95.9197 39.8491C95.2568 40.2404 94.643 40.6283 93.9801 41.0196C93.9242 40.9249 93.8682 40.8303 93.7861 40.7127C94.4227 40.2986 95.0628 39.9335 95.7257 39.5422Z" fill="black"/>
<path d="M96.4524 40.7732C96.5345 40.8908 96.5904 40.9855 96.6235 41.1064C95.9606 41.4977 95.3468 41.8856 94.6839 42.2769C94.628 42.1822 94.5721 42.0875 94.49 41.97C95.1757 41.5524 95.7895 41.1646 96.4524 40.7732Z" fill="black"/>
<path d="M94.9761 38.3374C95.032 38.4321 95.0879 38.5268 95.1701 38.6443C94.5072 39.0356 93.8933 39.4235 93.2304 39.8148C93.1745 39.7201 93.1186 39.6254 93.0365 39.5079C93.6994 39.1166 94.336 38.7025 94.9761 38.3374Z" fill="black"/>
<path d="M91.0274 36.1478C90.9453 36.0302 90.8894 35.9356 90.8335 35.8409C91.4963 35.4495 92.1102 35.0616 92.7731 34.6703C92.829 34.765 92.8849 34.8597 92.967 34.9772C92.3304 35.3914 91.6903 35.7564 91.0274 36.1478Z" fill="black"/>
<path d="M92.5037 38.5838C92.4216 38.4663 92.3657 38.3716 92.3098 38.2769C92.9727 37.8856 93.5865 37.4977 94.2494 37.1063C94.3053 37.201 94.3612 37.2957 94.4433 37.4133C93.8067 37.8274 93.1666 38.1925 92.5037 38.5838Z" fill="black"/>
<path d="M88.8277 32.5298C88.7456 32.4123 88.6897 32.3176 88.6338 32.2229C89.2967 31.8316 89.9105 31.4437 90.5734 31.0524C90.6293 31.1471 90.6852 31.2418 90.7674 31.3593C90.1273 31.7244 89.4906 32.1385 88.8277 32.5298Z" fill="black"/>
<path d="M83.6722 23.991C83.6163 23.8963 83.5604 23.8016 83.4782 23.6841C84.1411 23.2928 84.755 22.9049 85.4179 22.5136C85.4738 22.6083 85.5297 22.703 85.6118 22.8205C84.998 23.2084 84.3351 23.5997 83.6722 23.991Z" fill="black"/>
<path d="M181.824 197.875L185.23 195.814L185.651 196.548L183.071 198.084C183.147 198.104 183.199 198.149 183.275 198.169C183.327 198.214 183.402 198.234 183.455 198.279C183.507 198.325 183.586 198.393 183.638 198.439C183.691 198.485 183.77 198.553 183.799 198.625L183.186 199.013C183.002 198.853 182.844 198.716 182.664 198.605C182.484 198.495 182.281 198.41 182.101 198.3L181.824 197.875Z" fill="black"/>
<path d="M177.649 184.659L176.81 183.238L177.402 182.876L178.74 185.1L178.478 185.242C178.312 185.327 178.145 185.413 177.975 185.449C177.805 185.486 177.632 185.473 177.481 185.434C177.308 185.422 177.157 185.383 177.029 185.318C176.879 185.279 176.751 185.214 176.623 185.149C176.496 185.084 176.394 185.042 176.27 185.026C176.168 184.984 176.044 184.968 175.968 184.948C175.893 184.929 175.795 184.936 175.697 184.943C175.625 184.972 175.527 184.979 175.481 185.032C175.341 185.14 175.272 185.219 175.234 185.369C175.218 185.494 175.228 185.641 175.363 185.804C175.53 186.088 175.815 186.29 176.195 186.436L175.533 186.827C175.175 186.655 174.861 186.381 174.663 186.025C174.578 185.859 174.492 185.692 174.456 185.522C174.419 185.352 174.409 185.205 174.448 185.054C174.486 184.904 174.529 184.802 174.616 184.648C174.708 184.543 174.822 184.412 174.966 184.353C175.132 184.267 175.276 184.208 175.397 184.175C175.544 184.165 175.691 184.154 175.816 184.17C175.966 184.209 176.091 184.225 176.241 184.264C176.392 184.303 176.519 184.368 176.674 184.456C176.775 184.498 176.877 184.54 176.952 184.559C177.053 184.602 177.129 184.621 177.204 184.64C177.279 184.66 177.355 184.679 177.43 184.699C177.577 184.688 177.626 184.685 177.649 184.659Z" fill="black"/>
<path d="M171.241 173.003L170.601 173.368C170.629 173.07 170.556 172.73 170.389 172.446C170.277 172.256 170.146 172.142 170.018 172.077C169.89 172.012 169.72 172.049 169.602 172.131C169.436 172.217 169.371 172.344 169.385 172.541C169.372 172.714 169.461 172.93 169.599 173.142L169.793 173.449L169.225 173.784L169.057 173.5C168.781 173.076 168.525 172.946 168.241 173.113C167.957 173.281 167.925 173.53 168.145 173.859C168.283 174.072 168.493 174.254 168.749 174.384L168.158 174.746C167.899 174.567 167.686 174.335 167.492 174.028C167.294 173.672 167.198 173.359 167.253 173.084C167.308 172.809 167.442 172.602 167.677 172.438C168.101 172.162 168.5 172.233 168.897 172.624C168.782 172.385 168.765 172.14 168.823 171.914C168.881 171.688 169.018 171.531 169.231 171.393C169.537 171.199 169.855 171.152 170.186 171.302C170.49 171.428 170.779 171.679 171.029 172.081C171.075 172.398 171.22 172.708 171.241 173.003Z" fill="black"/>
<path d="M159.764 161.133L161.871 159.877L161.621 159.475L162.189 159.14L162.439 159.542L163.125 159.124L163.516 159.787L162.83 160.205L163.695 161.648L163.127 161.983C162.901 161.925 162.678 161.916 162.403 161.861C162.155 161.829 161.906 161.797 161.634 161.792C161.386 161.76 161.114 161.754 160.869 161.771C160.624 161.788 160.401 161.779 160.182 161.819L159.764 161.133ZM162.735 161.32L162.262 160.54L161.103 161.237C161.25 161.227 161.374 161.243 161.522 161.233C161.669 161.222 161.793 161.238 161.966 161.251C162.091 161.267 162.264 161.279 162.389 161.295C162.487 161.288 162.611 161.304 162.735 161.32Z" fill="black"/>
<path d="M156.497 148.568L155.883 148.956C155.886 148.635 155.816 148.344 155.652 148.109C155.54 147.92 155.409 147.806 155.232 147.744C155.081 147.705 154.934 147.716 154.768 147.801C154.438 148.021 154.409 148.319 154.689 148.793C154.774 148.959 154.935 149.145 155.073 149.357L153.146 150.355L152.088 148.604L152.679 148.243L153.402 149.425L154.091 149.056C154.009 148.939 153.953 148.844 153.897 148.749C153.7 148.393 153.604 148.08 153.682 147.778C153.759 147.477 153.915 147.244 154.222 147.05C154.552 146.83 154.896 146.806 155.272 146.903C155.626 147.027 155.937 147.251 156.161 147.63C156.358 147.986 156.477 148.274 156.497 148.568Z" fill="black"/>
<path d="M146.923 134.988C147.09 134.903 147.256 134.817 147.426 134.781C147.596 134.744 147.77 134.757 147.92 134.796C148.071 134.834 148.248 134.896 148.379 135.01C148.51 135.124 148.641 135.238 148.753 135.428C148.865 135.617 148.928 135.81 148.941 136.006C148.955 136.202 148.942 136.376 148.858 136.579C148.796 136.756 148.686 136.936 148.5 137.097C148.34 137.28 148.128 137.419 147.893 137.583C147.609 137.751 147.321 137.869 147.056 137.962C146.765 138.031 146.52 138.048 146.271 138.016C146.023 137.984 145.82 137.9 145.613 137.766C145.407 137.633 145.246 137.447 145.108 137.235C144.966 136.973 144.877 136.758 144.841 136.588L145.455 136.2C145.445 136.422 145.534 136.638 145.646 136.827C145.728 136.945 145.811 137.062 145.912 137.105C146.017 137.196 146.141 137.212 146.266 137.228C146.39 137.244 146.537 137.234 146.684 137.223C146.854 137.187 146.998 137.128 147.139 137.019C146.841 136.991 146.582 136.811 146.388 136.505C146.306 136.387 146.246 136.243 146.236 136.096C146.226 135.949 146.242 135.825 146.281 135.674C146.319 135.523 146.411 135.418 146.502 135.313C146.642 135.205 146.756 135.074 146.923 134.988ZM147.39 135.671C147.034 135.868 146.93 136.146 147.098 136.43C147.127 136.502 147.18 136.548 147.232 136.594C147.285 136.639 147.36 136.659 147.435 136.678C147.511 136.697 147.56 136.694 147.631 136.664C147.703 136.635 147.775 136.605 147.847 136.575C147.942 136.519 147.987 136.467 148.056 136.388C148.102 136.336 148.17 136.257 148.189 136.182C148.209 136.106 148.228 136.031 148.225 135.982C148.244 135.907 148.215 135.835 148.162 135.789C148.132 135.717 148.08 135.672 148.027 135.626C147.975 135.58 147.9 135.561 147.824 135.542C147.749 135.522 147.677 135.552 147.579 135.559C147.556 135.585 147.484 135.615 147.39 135.671Z" fill="black"/>
<path d="M137.673 123.58C138.042 123.579 138.36 123.532 138.68 123.534C138.974 123.514 139.292 123.467 139.56 123.424C139.828 123.38 140.119 123.311 140.41 123.241C140.674 123.149 140.965 123.079 141.276 122.934L141.723 123.692C141.435 123.81 141.171 123.903 140.88 123.972C140.589 124.042 140.298 124.112 140.03 124.155C139.762 124.198 139.467 124.219 139.173 124.239C138.879 124.26 138.607 124.254 138.336 124.248L139.256 125.786L138.665 126.148L137.271 123.83L137.673 123.58Z" fill="black"/>
<path d="M133.871 112.901C133.777 112.957 133.682 113.012 133.584 113.019C133.486 113.026 133.365 113.059 133.29 113.04C133.191 113.047 133.09 113.004 132.962 112.939C132.861 112.897 132.733 112.832 132.628 112.741C132.668 112.96 132.632 113.16 132.544 113.314C132.483 113.49 132.369 113.622 132.202 113.707C132.085 113.789 131.941 113.849 131.817 113.833C131.669 113.843 131.545 113.827 131.394 113.788C131.244 113.749 131.139 113.658 131.008 113.544C130.876 113.43 130.794 113.312 130.686 113.172C130.6 113.006 130.541 112.862 130.505 112.692C130.468 112.522 130.458 112.375 130.474 112.25C130.49 112.126 130.529 111.975 130.62 111.87C130.685 111.743 130.802 111.66 130.92 111.578C131.086 111.493 131.256 111.456 131.43 111.469C131.603 111.481 131.806 111.566 131.987 111.676C131.954 111.555 131.943 111.408 131.959 111.284C131.975 111.16 131.991 111.035 132.011 110.96C132.053 110.858 132.095 110.757 132.163 110.678C132.232 110.599 132.327 110.543 132.395 110.465C132.535 110.356 132.683 110.346 132.853 110.31C133 110.299 133.173 110.312 133.301 110.377C133.452 110.416 133.583 110.53 133.714 110.644C133.845 110.758 133.954 110.898 134.065 111.088C134.151 111.254 134.237 111.421 134.273 111.591C134.31 111.761 134.32 111.908 134.307 112.081C134.268 112.232 134.23 112.383 134.165 112.51C134.103 112.687 134.012 112.792 133.871 112.901ZM133.382 112.245C133.454 112.215 133.522 112.136 133.568 112.084C133.614 112.031 133.633 111.956 133.652 111.881C133.672 111.805 133.668 111.756 133.662 111.658C133.632 111.586 133.602 111.514 133.573 111.443C133.543 111.371 133.49 111.325 133.412 111.257C133.359 111.211 133.284 111.192 133.209 111.172C133.133 111.153 133.084 111.156 132.986 111.163C132.914 111.193 132.816 111.2 132.77 111.252C132.699 111.282 132.653 111.334 132.607 111.387C132.562 111.439 132.542 111.514 132.523 111.59C132.503 111.665 132.484 111.74 132.514 111.812C132.543 111.884 132.55 111.982 132.603 112.028C132.632 112.1 132.685 112.145 132.764 112.214C132.816 112.259 132.891 112.279 132.967 112.298C133.042 112.318 133.091 112.314 133.189 112.307C133.238 112.304 133.31 112.274 133.382 112.245ZM131.834 113.018C131.906 112.988 131.951 112.936 131.997 112.883C132.042 112.831 132.062 112.756 132.085 112.729C132.104 112.654 132.101 112.605 132.097 112.556C132.094 112.507 132.064 112.435 132.035 112.363C132.005 112.291 131.952 112.246 131.926 112.223C131.874 112.177 131.825 112.181 131.749 112.161C131.674 112.142 131.625 112.145 131.576 112.149C131.527 112.152 131.455 112.182 131.383 112.211C131.311 112.241 131.266 112.294 131.22 112.346C131.174 112.399 131.155 112.474 131.132 112.5C131.113 112.575 131.116 112.624 131.119 112.674C131.123 112.723 131.153 112.794 131.182 112.866C131.212 112.938 131.264 112.984 131.317 113.03C131.369 113.075 131.418 113.072 131.494 113.091C131.569 113.111 131.618 113.107 131.667 113.104C131.739 113.074 131.788 113.071 131.834 113.018Z" fill="black"/>
<path d="M124.228 99.03C124.512 98.8623 124.822 98.7174 125.064 98.6512C125.329 98.5588 125.6 98.5646 125.823 98.5737C126.071 98.6056 126.274 98.6901 126.455 98.8007C126.661 98.9342 126.822 99.1202 126.96 99.3324C127.128 99.6165 127.22 99.8812 127.26 100.1L126.669 100.462C126.678 100.239 126.586 99.9747 126.471 99.7363C126.329 99.475 126.123 99.3415 125.848 99.2868C125.599 99.2548 125.308 99.3244 124.952 99.5218C125.25 99.5503 125.505 99.6804 125.699 99.9873C125.781 100.105 125.818 100.275 125.851 100.396C125.861 100.543 125.872 100.69 125.807 100.818C125.768 100.969 125.703 101.096 125.611 101.201C125.52 101.306 125.406 101.437 125.239 101.523C125.05 101.635 124.906 101.694 124.71 101.708C124.54 101.744 124.367 101.732 124.19 101.67C124.039 101.631 123.862 101.57 123.731 101.456C123.6 101.341 123.443 101.205 123.357 101.038C123.245 100.849 123.182 100.656 123.172 100.509C123.158 100.312 123.171 100.139 123.255 99.9359C123.317 99.759 123.428 99.5788 123.614 99.4179C123.78 99.3323 123.966 99.1715 124.228 99.03ZM124.296 100.011C124.201 100.067 124.156 100.12 124.087 100.198C124.019 100.277 123.973 100.33 123.954 100.405C123.934 100.48 123.915 100.555 123.896 100.631C123.876 100.706 123.906 100.778 123.958 100.824C123.988 100.895 124.04 100.941 124.116 100.96C124.168 101.006 124.243 101.025 124.319 101.045C124.394 101.064 124.466 101.035 124.564 101.028C124.636 100.998 124.708 100.968 124.803 100.913C124.897 100.857 124.943 100.804 125.011 100.725C125.057 100.673 125.125 100.594 125.122 100.545C125.141 100.47 125.161 100.395 125.157 100.346C125.128 100.274 125.124 100.225 125.068 100.13C125.039 100.058 124.986 100.012 124.934 99.9667C124.881 99.9211 124.806 99.9017 124.757 99.9051C124.682 99.8857 124.633 99.8891 124.561 99.9188C124.414 99.929 124.342 99.9587 124.296 100.011Z" fill="black"/>
<path d="M116.624 90.021L120.029 87.9595L120.45 88.6942L117.871 90.2299C117.946 90.2493 117.998 90.2949 118.074 90.3143C118.126 90.3599 118.202 90.3793 118.254 90.425C118.306 90.4706 118.385 90.5391 118.438 90.5847C118.49 90.6303 118.569 90.6988 118.599 90.7707L117.985 91.1586C117.801 90.9988 117.644 90.8619 117.463 90.7512C117.283 90.6406 117.08 90.5561 116.9 90.4455L116.624 90.021Z" fill="black"/>
<path d="M118.793 85.778C119.266 86.5584 118.948 87.2955 117.838 87.9891C117.269 88.3245 116.763 88.4831 116.318 88.4648C115.896 88.4203 115.561 88.2218 115.312 87.8202C114.838 87.0398 115.183 86.3256 116.293 85.6319C116.861 85.2965 117.368 85.1379 117.764 85.1596C118.209 85.1779 118.569 85.3992 118.793 85.778ZM115.906 87.5076C116.1 87.8145 116.587 87.7312 117.394 87.2806C118.151 86.8334 118.445 86.4431 118.251 86.1362C118.057 85.8293 117.57 85.9126 116.812 86.3598C116.005 86.8105 115.712 87.2006 115.906 87.5076Z" fill="black"/>
<path d="M109.505 78.0697L112.91 76.0082L113.331 76.7429L110.752 78.2785C110.827 78.2979 110.879 78.3436 110.955 78.363C111.007 78.4086 111.083 78.428 111.135 78.4736C111.187 78.5193 111.266 78.5877 111.319 78.6334C111.371 78.679 111.45 78.7475 111.48 78.8193L110.866 79.2072C110.682 79.0475 110.525 78.9106 110.344 78.7999C110.164 78.6892 109.961 78.6048 109.781 78.4941L109.505 78.0697Z" fill="black"/>
<path d="M107.834 75.3268L111.24 73.2652L111.661 74L109.081 75.5356C109.157 75.555 109.209 75.6007 109.285 75.6201C109.337 75.6657 109.412 75.6851 109.465 75.7307C109.517 75.7764 109.596 75.8448 109.649 75.8905C109.701 75.9361 109.78 76.0046 109.809 76.0765L109.196 76.4644C109.012 76.3046 108.854 76.1677 108.674 76.057C108.494 75.9463 108.291 75.8619 108.111 75.7512L107.834 75.3268Z" fill="black"/>
<path d="M102.149 65.9126L105.555 63.8511L105.976 64.5859L103.396 66.1215C103.472 66.1409 103.524 66.1865 103.6 66.2059C103.652 66.2516 103.727 66.271 103.78 66.3166C103.832 66.3622 103.911 66.4307 103.963 66.4763C104.016 66.522 104.095 66.5904 104.124 66.6623L103.51 67.0502C103.327 66.8905 103.169 66.7535 102.989 66.6429C102.809 66.5322 102.606 66.4477 102.425 66.3371L102.149 65.9126Z" fill="black"/>
<path d="M103.853 62.4169L103.014 60.9964L103.605 60.6348L104.943 62.8585L104.682 62.9999C104.516 63.0855 104.349 63.1711 104.179 63.2076C104.009 63.2441 103.836 63.2315 103.685 63.1927C103.512 63.1802 103.361 63.1414 103.233 63.0763C103.083 63.0376 102.955 62.9725 102.827 62.9075C102.699 62.8424 102.598 62.8002 102.473 62.7843C102.372 62.742 102.247 62.726 102.172 62.7066C102.097 62.6872 101.999 62.6941 101.901 62.7009C101.829 62.7306 101.731 62.7375 101.685 62.7899C101.545 62.8983 101.476 62.977 101.437 63.1276C101.421 63.252 101.432 63.3992 101.566 63.5623C101.734 63.8464 102.019 64.0484 102.399 64.1944L101.736 64.5857C101.379 64.4134 101.064 64.1396 100.867 63.7837C100.781 63.6171 100.696 63.4505 100.659 63.2805C100.623 63.1105 100.612 62.9633 100.651 62.8127C100.69 62.6621 100.732 62.5606 100.82 62.4065C100.911 62.3016 101.026 62.1704 101.169 62.1111C101.336 62.0255 101.48 61.9662 101.601 61.9331C101.748 61.9228 101.895 61.9126 102.019 61.9285C102.17 61.9673 102.294 61.9833 102.445 62.0221C102.595 62.0609 102.723 62.1259 102.877 62.2138C102.979 62.256 103.08 62.2982 103.156 62.3176C103.257 62.3598 103.333 62.3792 103.408 62.3986C103.483 62.418 103.558 62.4374 103.634 62.4568C103.781 62.4466 103.83 62.4431 103.853 62.4169Z" fill="black"/>
<path d="M94.7976 53.805L98.2033 51.7434L98.6243 52.4782L96.0446 54.0138C96.1199 54.0332 96.1724 54.0788 96.2477 54.0982C96.3002 54.1438 96.3755 54.1633 96.4279 54.2089C96.4804 54.2545 96.5592 54.323 96.6116 54.3686C96.6641 54.4143 96.7428 54.4827 96.7725 54.5546L96.1587 54.9425C95.975 54.7828 95.8175 54.6459 95.6372 54.5352C95.457 54.4245 95.2539 54.3401 95.0737 54.2294L94.7976 53.805Z" fill="black"/>
<path d="M97.4185 50.7382L96.7784 51.1033C96.8069 50.8055 96.7339 50.4655 96.5662 50.1814C96.4544 49.992 96.3232 49.8779 96.1954 49.8129C96.0676 49.7479 95.8976 49.7844 95.7801 49.8665C95.6135 49.9521 95.5485 50.0799 95.5622 50.2761C95.5496 50.4495 95.6386 50.6652 95.7766 50.8774L95.9706 51.1843L95.4024 51.5197L95.2347 51.2356C94.9586 50.8112 94.703 50.6811 94.4189 50.8488C94.1348 51.0165 94.1029 51.2653 94.3231 51.595C94.4611 51.8072 94.671 51.9898 94.9266 52.1198L94.3356 52.4815C94.0766 52.3024 93.8633 52.0707 93.6693 51.7638C93.4719 51.4078 93.3761 51.0941 93.4309 50.8191C93.4857 50.5442 93.6192 50.3376 93.8542 50.1734C94.2786 49.8973 94.6779 49.968 95.075 50.3594C94.9597 50.1209 94.9426 49.8756 95.0008 49.6497C95.059 49.4238 95.196 49.2664 95.4082 49.1283C95.7151 48.9344 96.0323 48.8876 96.3631 49.0371C96.6678 49.1637 96.9564 49.4147 97.2063 49.8163C97.2793 50.1563 97.3979 50.4439 97.4185 50.7382Z" fill="black"/>
<path d="M87.3796 41.4553L90.7854 39.3938L91.2063 40.1286L88.6266 41.6642C88.7019 41.6835 88.7544 41.7292 88.8297 41.7486C88.8822 41.7942 88.9575 41.8136 89.01 41.8593C89.0625 41.9049 89.1412 41.9734 89.1937 42.019C89.2461 42.0647 89.3249 42.1331 89.3545 42.205L88.7407 42.5929C88.557 42.4331 88.3996 42.2962 88.2193 42.1856C88.0391 42.0749 87.836 41.9905 87.6557 41.8798L87.3796 41.4553Z" fill="black"/>
<path d="M85.6626 38.3952L87.7688 37.1392L87.5189 36.7375L88.0871 36.4021L88.3369 36.8037L89.0227 36.3862L89.414 37.0491L88.7283 37.4666L89.593 38.9099L89.0249 39.2453C88.799 39.1872 88.5765 39.178 88.3015 39.1232C88.0528 39.0913 87.8041 39.0593 87.5325 39.0536C87.2838 39.0217 87.0123 39.016 86.767 39.0331C86.5217 39.0502 86.2992 39.0411 86.0801 39.081L85.6626 38.3952ZM88.6335 38.5825L88.1601 37.802L87.0009 38.4991C87.148 38.4889 87.2724 38.5048 87.4196 38.4946C87.5668 38.4843 87.6911 38.5003 87.8646 38.5128C87.9889 38.5288 88.1623 38.5414 88.2867 38.5573C88.3848 38.5505 88.5092 38.5665 88.6335 38.5825Z" fill="black"/>
<path d="M79.9719 29.2527L83.3776 27.1911L83.7986 27.9259L81.2189 29.4615C81.2942 29.4809 81.3467 29.5265 81.422 29.5459C81.4745 29.5916 81.5498 29.611 81.6023 29.6566C81.6548 29.7023 81.7335 29.7707 81.786 29.8164C81.8384 29.862 81.9172 29.9304 81.9468 30.0023L81.333 30.3902C81.1493 30.2305 80.9919 30.0936 80.8116 29.9829C80.6313 29.8722 80.4282 29.7878 80.248 29.6771L79.9719 29.2527Z" fill="black"/>
<path d="M82.5894 26.1369L81.9755 26.5248C81.9778 26.2042 81.9082 25.9133 81.7439 25.6782C81.6321 25.4888 81.5009 25.3748 81.3241 25.3131C81.1735 25.2743 81.0263 25.2846 80.8597 25.3702C80.53 25.5904 80.5015 25.8881 80.781 26.3616C80.8666 26.5282 81.0274 26.7142 81.1655 26.9264L79.2384 27.9235L78.1797 26.1733L78.7707 25.8116L79.494 26.9937L80.1831 26.6252C80.101 26.5077 80.0451 26.4129 79.9892 26.3182C79.7918 25.9623 79.696 25.6485 79.7736 25.3473C79.8512 25.0461 80.0075 24.8134 80.3144 24.6194C80.6441 24.3992 80.9876 24.3753 81.3641 24.4723C81.7177 24.5955 82.0292 24.8203 82.2528 25.1991C82.4502 25.5551 82.5688 25.8426 82.5894 26.1369Z" fill="black"/>
<path d="M72.7845 17.3801L76.1902 15.3185L76.6112 16.0533L74.0315 17.5889C74.1068 17.6083 74.1593 17.654 74.2346 17.6734C74.2871 17.719 74.3624 17.7384 74.4149 17.784C74.4674 17.8297 74.5461 17.8981 74.5986 17.9438C74.6511 17.9894 74.7298 18.0579 74.7594 18.1297L74.1456 18.5176C73.9619 18.3579 73.8045 18.221 73.6242 18.1103C73.4439 17.9997 73.2409 17.9152 73.0606 17.8045L72.7845 17.3801Z" fill="black"/>
<path d="M73.0449 12.6293C73.2114 12.5437 73.378 12.4582 73.548 12.4217C73.718 12.3852 73.8914 12.3977 74.042 12.4365C74.1926 12.4753 74.3695 12.5369 74.5007 12.651C74.6319 12.7651 74.7631 12.8792 74.8749 13.0686C74.9867 13.258 75.0494 13.4508 75.0631 13.6471C75.0768 13.8433 75.0643 14.0168 74.9798 14.2198C74.9182 14.3967 74.8075 14.5769 74.6216 14.7378C74.4618 14.9215 74.2496 15.0595 74.0146 15.2238C73.7305 15.3915 73.443 15.5102 73.1783 15.6026C72.8873 15.6721 72.642 15.6893 72.3933 15.6573C72.1446 15.6254 71.9415 15.5409 71.735 15.4074C71.5285 15.2739 71.3676 15.088 71.2295 14.8758C71.0881 14.6145 70.9991 14.3988 70.9626 14.2288L71.5764 13.8409C71.5673 14.0634 71.6563 14.2791 71.7681 14.4685C71.8502 14.586 71.9324 14.7035 72.0339 14.7457C72.1389 14.837 72.2632 14.8529 72.3876 14.8689C72.512 14.8849 72.6591 14.8747 72.8063 14.8644C72.9763 14.8279 73.1201 14.7686 73.2604 14.6602C72.9626 14.6316 72.7037 14.4525 72.5097 14.1456C72.4276 14.0281 72.3683 13.8843 72.358 13.7371C72.3477 13.5899 72.3637 13.4656 72.4025 13.315C72.4413 13.1644 72.5326 13.0594 72.6238 12.9545C72.7642 12.8461 72.8783 12.7149 73.0449 12.6293ZM73.5115 13.3116C73.1555 13.509 73.0517 13.7874 73.2194 14.0715C73.249 14.1433 73.3015 14.189 73.354 14.2346C73.4065 14.2803 73.4818 14.2996 73.5571 14.319C73.6324 14.3384 73.6814 14.335 73.7533 14.3054C73.8252 14.2757 73.8971 14.246 73.969 14.2164C74.0637 14.1605 74.1093 14.108 74.1778 14.0293C74.2234 13.9768 74.2919 13.898 74.3113 13.8227C74.3307 13.7474 74.3501 13.6721 74.3466 13.6231C74.366 13.5478 74.3364 13.4759 74.2839 13.4303C74.2542 13.3584 74.2017 13.3128 74.1492 13.2671C74.0968 13.2215 74.0215 13.2021 73.9462 13.1827C73.8709 13.1633 73.799 13.1929 73.7009 13.1998C73.6781 13.226 73.6062 13.2557 73.5115 13.3116Z" fill="black"/>
<path d="M192.62 208.461C192.774 208.549 192.934 208.735 193.099 208.97C193.266 209.254 193.336 209.545 193.258 209.846C193.181 210.147 193.024 210.38 192.74 210.548C192.433 210.742 192.093 210.815 191.792 210.737C191.491 210.66 191.255 210.454 191.035 210.125C190.897 209.912 190.834 209.72 190.824 209.572L191.32 209.267C191.307 209.44 191.344 209.61 191.429 209.777C191.515 209.943 191.646 210.057 191.82 210.07C191.97 210.109 192.14 210.072 192.33 209.96C192.496 209.875 192.61 209.744 192.649 209.593C192.688 209.442 192.651 209.272 192.566 209.106C192.48 208.939 192.349 208.825 192.172 208.764L192.62 208.461Z" fill="black"/>
<path d="M190.604 205.003L190.965 205.594L189.878 206.261C189.594 206.429 189.532 206.606 189.648 206.844C189.703 206.939 189.805 206.981 189.929 206.997C190.054 207.013 190.175 206.98 190.292 206.898L191.357 206.257L191.718 206.848L190.631 207.515C190.347 207.683 190.285 207.86 190.397 208.049C190.453 208.144 190.532 208.212 190.656 208.228C190.78 208.244 190.901 208.211 191.019 208.129L192.083 207.488L192.445 208.079L190.528 209.223L190.167 208.632L190.474 208.438C190.326 208.448 190.199 208.383 190.071 208.318C189.943 208.253 189.838 208.162 189.752 207.995C189.585 207.711 189.617 207.463 189.773 207.23C189.452 207.228 189.197 207.098 189.029 206.813C188.779 206.412 188.925 206.032 189.422 205.726L190.604 205.003Z" fill="black"/>
<defs>
<linearGradient id="paint0_linear_29_18091" x1="138.901" y1="107.808" x2="108.618" y2="126.088" gradientUnits="userSpaceOnUse">
<stop stop-color="#333333"/>
<stop offset="0.00293242" stop-color="#393939"/>
<stop offset="0.0246945" stop-color="#626262"/>
<stop offset="0.0490951" stop-color="#888888"/>
<stop offset="0.0756577" stop-color="#A8A8A8"/>
<stop offset="0.105" stop-color="#C4C4C4"/>
<stop offset="0.1382" stop-color="#DADADA"/>
<stop offset="0.1769" stop-color="#EBEBEB"/>
<stop offset="0.2248" stop-color="#F6F6F6"/>
<stop offset="0.292" stop-color="#FDFDFD"/>
<stop offset="0.4785" stop-color="white"/>
<stop offset="0.6817" stop-color="#FDFDFD"/>
<stop offset="0.7549" stop-color="#F6F6F6"/>
<stop offset="0.8072" stop-color="#EBEBEB"/>
<stop offset="0.8494" stop-color="#DADADA"/>
<stop offset="0.8855" stop-color="#C4C4C4"/>
<stop offset="0.9175" stop-color="#A8A8A8"/>
<stop offset="0.9465" stop-color="#888888"/>
<stop offset="0.9731" stop-color="#626262"/>
<stop offset="0.9968" stop-color="#393939"/>
<stop offset="1" stop-color="#333333"/>
</linearGradient>
<linearGradient id="paint1_linear_29_18091" x1="138.118" y1="108.28" x2="108.884" y2="125.928" gradientUnits="userSpaceOnUse">
<stop stop-color="#808080"/>
<stop offset="0.0227369" stop-color="#7A7A7A"/>
<stop offset="0.0949237" stop-color="#6F6F6F"/>
<stop offset="0.1964" stop-color="#686868"/>
<stop offset="0.4785" stop-color="#666666"/>
<stop offset="0.7859" stop-color="#686868"/>
<stop offset="0.8965" stop-color="#6F6F6F"/>
<stop offset="0.9752" stop-color="#7A7A7A"/>
<stop offset="1" stop-color="#808080"/>
</linearGradient>
<linearGradient id="paint2_linear_29_18091" x1="138.118" y1="108.28" x2="108.884" y2="125.928" gradientUnits="userSpaceOnUse">
<stop stop-color="#CCCCCC"/>
<stop offset="0.0306848" stop-color="#D6D6D6"/>
<stop offset="0.1056" stop-color="#EBEBEB"/>
<stop offset="0.1559" stop-color="#F2F2F2"/>
<stop offset="0.3871" stop-color="#E6E6E6"/>
<stop offset="0.6398" stop-color="#CCCCCC"/>
<stop offset="0.7533" stop-color="#D7D7D7"/>
<stop offset="0.914" stop-color="#EFEFEF"/>
<stop offset="0.9568" stop-color="#EDEDED"/>
<stop offset="0.9723" stop-color="#E6E6E6"/>
<stop offset="0.9833" stop-color="#DBDBDB"/>
<stop offset="0.9921" stop-color="#CACACA"/>
<stop offset="0.9997" stop-color="#B4B4B4"/>
<stop offset="1" stop-color="#B3B3B3"/>
</linearGradient>
</defs>
</svg>
