<svg width="234" height="648" viewBox="0 0 234 648" fill="none" xmlns="http://www.w3.org/2000/svg">
<mask id="mask0_123_3" style="mask-type:alpha" maskUnits="userSpaceOnUse" x="0" y="0" width="234" height="648">
<rect width="234" height="648" fill="#D9D9D9"/>
</mask>
<g mask="url(#mask0_123_3)">
<circle cx="60.5" cy="342.5" r="60.5" fill="url(#paint0_radial_123_3)"/>
<ellipse cx="64" cy="521" rx="27" ry="259" fill="url(#paint1_radial_123_3)"/>
<ellipse cx="173" cy="521" rx="27" ry="259" fill="url(#paint2_radial_123_3)"/>
<circle cx="173.5" cy="342.5" r="60.5" fill="url(#paint3_radial_123_3)"/>
<path d="M158.218 58.4674V261.565H80.3081V58.4674C80.3081 58.4674 86.1828 38.1857 95.4145 21.5406C101.709 9.93107 109.682 0 118.354 0C118.634 0 118.774 0 119.053 0C126.467 0.419623 133.32 7.69308 139.335 17.0647C140.314 18.4634 141.153 20.002 141.993 21.5406C149.965 35.5281 155.84 52.1731 157.379 57.0687C157.519 57.3484 157.659 57.4883 157.659 57.6282C157.938 58.1877 158.218 58.4674 158.218 58.4674Z" fill="#FFEA4D"/>
<path d="M158.218 58.4674V261.565H118.913V0C126.327 0.419623 133.46 7.69308 139.475 17.0647C140.454 18.4634 141.293 20.002 142.133 21.5406C150.245 35.5281 155.98 52.1731 157.519 57.0687C157.659 57.3484 157.798 57.4883 157.798 57.6282C157.938 58.1877 158.218 58.4674 158.218 58.4674Z" fill="#F6C250"/>
<path d="M142.133 21.9603H95.135C101.429 10.0709 109.682 0 118.354 0C118.494 0 118.914 0 119.054 0C126.467 0.419623 133.461 7.97283 139.335 17.3444C140.314 18.883 141.154 19.7223 142.133 21.9603Z" fill="#B05A27"/>
<path d="M142.272 21.9603H118.773V0C118.773 0 118.913 0 119.053 0C126.467 0.419623 133.46 7.83296 139.335 17.2045C140.454 18.6033 141.153 19.8621 142.272 21.9603Z" fill="#7D421F"/>
<path d="M185.494 316.535H162.694L160.736 334.02H187.312L185.494 316.535Z" fill="#D16D32"/>
<path d="M191.648 330.942H156.4L153.463 339.615H194.725L191.648 330.942Z" fill="#B05A27"/>
<path d="M189.27 121.551V324.508H158.918V121.551C158.918 121.551 165.632 63.0833 173.884 63.0833C174.024 63.0833 174.024 63.0833 174.164 63.0833C182.416 64.2022 189.27 121.551 189.27 121.551Z" fill="#FFEA4D"/>
<path d="M189.27 121.551V324.508H173.744V62.9434C182.556 64.2022 189.27 121.551 189.27 121.551Z" fill="#F6C250"/>
<path d="M75.692 316.535H52.8925L51.0741 334.02H77.6502L75.692 316.535Z" fill="#D16D32"/>
<path d="M81.9864 330.942H46.7381L43.6609 339.615H84.9238L81.9864 330.942Z" fill="#B05A27"/>
<path d="M79.4684 121.551V324.508H49.1157V121.551C49.1157 121.551 55.8297 63.0833 64.0823 63.0833C64.2221 63.0833 64.2221 63.0833 64.362 63.0833C72.6146 64.2022 79.4684 121.551 79.4684 121.551Z" fill="#FFEA4D"/>
<path d="M79.4684 121.551V324.508H63.9424V62.9434C72.8943 64.2022 79.4684 121.551 79.4684 121.551Z" fill="#F6C250"/>
<path d="M29.1139 313.458V285.343L92.0573 153.442L98.0719 154.561L101.429 313.458H29.1139Z" fill="#B05A27"/>
<path d="M136.537 313.458L140.034 154.561L145.769 153.302L208.573 285.344V313.458H136.537Z" fill="#B05A27"/>
<path d="M140.874 314.018H131.502V326.187H140.874V314.018Z" fill="#FFEA4D"/>
<path d="M106.465 314.018H97.0931V326.187H106.465V314.018Z" fill="#FFEA4D"/>
<path d="M94.8549 154.701L32.0514 286.043V310.521H98.2119L94.8549 154.701Z" fill="#D9D9D9"/>
<path d="M142.972 154.701L205.635 286.043V310.521H139.755L142.972 154.701Z" fill="#929292"/>
<path d="M147.028 129.244V317.794H91.3579V129.244C91.3579 129.244 103.387 74.9726 118.633 74.8328C134.02 74.8328 147.028 129.244 147.028 129.244Z" fill="white"/>
<path d="M147.028 129.244V317.794H118.913V74.9727C134.439 74.8328 147.028 129.244 147.028 129.244Z" fill="#C1C1C1"/>
<path d="M147.028 254.151H91.3579V317.934H147.028V254.151Z" fill="#4C4C4C"/>
<path d="M146.888 254.151H118.773V317.934H146.888V254.151Z" fill="#303030"/>
<path d="M142.972 321.571H129.404L128.005 328.704H144.371L142.972 321.571Z" fill="#FBB23C"/>
<path d="M108.563 321.571H95.1348L93.5962 328.704H110.101L108.563 321.571Z" fill="#FBB23C"/>
<path d="M124.089 266.041V331.781L118.773 340.873L113.598 331.781V266.041H124.089Z" fill="#929292"/>
<path d="M124.089 266.041V331.781L118.773 340.873V266.041H124.089Z" fill="#787878"/>
<path d="M105.625 100.99C103.947 102.248 102.548 103.927 101.429 105.605L105.765 109.941C106.744 107.983 108.143 106.445 109.962 105.186L105.625 100.99Z" fill="#7D421F"/>
<path d="M130.943 100.99L126.746 105.186C128.425 106.445 129.824 107.983 130.943 109.941L135.279 105.605C134.02 103.927 132.621 102.388 130.943 100.99Z" fill="#7D421F"/>
<path d="M129.264 99.8704C126.047 97.9122 122.271 96.6533 118.354 96.6533C114.298 96.6533 110.521 97.7723 107.444 99.8704L111.78 104.207C113.738 103.227 115.976 102.668 118.354 102.668C120.732 102.668 122.97 103.227 124.928 104.207L129.264 99.8704Z" fill="#7D421F"/>
<path d="M205.635 296.953H147.028V310.521H205.635V296.953Z" fill="#B05A27"/>
<path d="M91.3582 296.953H32.0515V310.521H91.3582V296.953Z" fill="#DE8133"/>
<path d="M147.028 244.5H91.3582V254.152H147.028V244.5Z" fill="#F2F2F2"/>
<path d="M146.888 244.5H118.773V254.152H146.888V244.5Z" fill="#929292"/>
</g>
<defs>
<radialGradient id="paint0_radial_123_3" cx="0" cy="0" r="1" gradientUnits="userSpaceOnUse" gradientTransform="translate(60.5 342.5) rotate(90) scale(60.5)">
<stop offset="0.161458" stop-color="white"/>
<stop offset="0.354167" stop-color="#FFE6CC" stop-opacity="0.84"/>
<stop offset="1" stop-color="#BB8CFF" stop-opacity="0"/>
</radialGradient>
<radialGradient id="paint1_radial_123_3" cx="0" cy="0" r="1" gradientUnits="userSpaceOnUse" gradientTransform="translate(64 521) rotate(90) scale(259 27)">
<stop offset="0.161458" stop-color="white"/>
<stop offset="0.354167" stop-color="#FFD9B4" stop-opacity="0.84"/>
<stop offset="1" stop-color="#BB8CFF" stop-opacity="0"/>
</radialGradient>
<radialGradient id="paint2_radial_123_3" cx="0" cy="0" r="1" gradientUnits="userSpaceOnUse" gradientTransform="translate(173 521) rotate(90) scale(259 27)">
<stop offset="0.161458" stop-color="white"/>
<stop offset="0.354167" stop-color="#FFD9B4" stop-opacity="0.84"/>
<stop offset="1" stop-color="#BB8CFF" stop-opacity="0"/>
</radialGradient>
<radialGradient id="paint3_radial_123_3" cx="0" cy="0" r="1" gradientUnits="userSpaceOnUse" gradientTransform="translate(173.5 342.5) rotate(90) scale(60.5)">
<stop offset="0.161458" stop-color="white"/>
<stop offset="0.354167" stop-color="#FFE6CC" stop-opacity="0.84"/>
<stop offset="1" stop-color="#BB8CFF" stop-opacity="0"/>
</radialGradient>
</defs>
</svg>
