<svg width="114" height="86" viewBox="0 0 114 86" fill="none" xmlns="http://www.w3.org/2000/svg">
<path d="M113.739 85.9182L101.598 64.4494L100.627 62.7104L100.304 62.4957L95.3866 59.3398L31.3139 17.5615L33.0607 14.8994L24.1108 9.05984L28.1653 2.8983L74.1441 32.9546L73.799 33.4699L61.8298 25.6767L60.6437 27.4586L74.4244 36.4541L77.1201 32.3321L27.5182 0L19.1722 12.6666L20.1858 13.3322L11.2143 7.49266L0 24.5389L8.97149 30.3784L5.80127 35.1874L15.5707 41.628L17.3175 38.9659L48.5667 59.3398L86.2426 83.9001L86.6524 84.1577L88.5718 84.2865L100.261 85.038L113.739 85.9182ZM109.901 83.5137L104.078 83.1487L107.097 78.5544L109.901 83.5137ZM2.95454 23.9378L11.7966 10.4768L17.943 14.4914L9.10088 27.9524L2.95454 23.9378ZM14.9021 38.6009L8.75581 34.5863L23.852 11.5288L29.9984 15.522L14.9021 38.6009ZM87.4287 82.0967L52.5133 59.3398L19.8623 38.0642L31.5511 20.288L91.5047 59.3398L99.1607 64.342L89.3481 79.0911L87.4287 82.0967ZM89.9304 82.2256L94.6102 75.0979L100.261 66.5104L105.911 76.4504L101.598 82.8911L89.9304 82.2256Z" fill="#F6C250"/>
</svg>
